<svg xmlns="http://www.w3.org/2000/svg" viewBox="0 0 512 512"><path d="M504.2,198.1a12.2,12.2,0,0,0,0-2.7C480.5,92.2,384.5,8.9,280,.8,170.3-7.6,73.3,47.2,25.2,145.6,7.4,182-1.6,220.6.2,261.5c-.6,47.3,12.2,91,36.7,131q58,94.3,165.8,118.9c7.3,1.7,8.4-.2,8.4-7.1q-.3-120.6,0-241.2c0-6.7-1.4-9-8.5-8.8-24.3.3-48.6-.2-72.9-.3,0-26.1.5-52.2-.2-78.3-.2-8.6,2.4-9.8,10.2-9.8,41.5.4,83.1.7,124.5,0,17.8-.2,30.4,5.6,37,22.9l.7,5.7c1.9,2.5,1.2,5.4,1.2,8.1v309h3.6c49.9-8.8,91-34.4,127.5-68.1,33.3-30.9,54.9-69.6,67.5-113.3S515.7,242.4,504.2,198.1ZM250.6,144.9c-22.8,1.1-47.3-25.6-47.3-51.7a51.6,51.6,0,0,1,3.5-19.4,51,51,0,0,1,10.7-16.5,49.6,49.6,0,0,1,16.1-11,48.7,48.7,0,0,1,19.1-3.9,49.9,49.9,0,0,1,35.5,14.9A50.7,50.7,0,0,1,303,93.2C302.9,120.9,280.2,143.5,250.6,144.9Z"/></svg>