<svg xmlns="http://www.w3.org/2000/svg" viewBox="0 0 198.1 110.4"><path d="M38,4.1l.7,20.7c.2,3.3.1,6.7.4,10.1s1.8,4.5,4.4,4.6,5.1-2.9,4.1-5.4-2.5-3.2-4.6-2.6-3.4,2.7-2.7,4.6V34.5l1-1.6h-.2l1.7-.9h1.5l1.6,1c.6,1.6.8,2,.7.9V31l-.2-4-.2-7.4L45.5,4.1a3.8,3.8,0,1,0-7.5,0Z"/><path d="M44.7,8.3c.7-.6-.6.3.2-.2l.7-.3c.3-.3-.6.1,0-.1l.9-.2h1.6c.9,0-.7-.2.2,0l1.4.4c-.8-.2,0,0,.2.1l.7.4h0a2.3,2.3,0,0,0,.7.7c.4.4-.1-.3,0,0a3.5,3.5,0,0,0,.5.8c.2.2-.2-.6,0,.1a2.9,2.9,0,0,1,.2.9c-.1-.5,0-.4,0,0v.8c0,.9.2-.7,0,.2s-.1.5-.2.8l-.3.7v.2l-.5.7c-.2.3.4-.4,0,.1l-.7.6-.2.2-.6.4c-.3.2-.6.3-.1.1l-.9.3c-.2.1-1.1.1-.2.1a3.8,3.8,0,0,0-3.7,3.7,3.8,3.8,0,0,0,3.7,3.8h.9c.6,0-.6-.1,0,0l1.5.5h.2l.7.4h.1l.7.5.6.7h0l.8,1.3c.2.4-.1-.4.1.2a1.4,1.4,0,0,0,.2.7c.3,1,0-.4,0,.2a2.2,2.2,0,0,1,.1.8h0a2.9,2.9,0,0,1-.2.9s-.2.7-.1.3-.1.4-.2.5l-.3.5c-.5.9.2-.2-.2.2l-1,1.1c.5-.4-.1,0-.2.1l-.8.4c-.2.2-.3.2,0,.1l-.8.2H50c.5-.1-.3,0-.5,0h-.6c.7,0-.1,0-.3-.1A3.9,3.9,0,0,0,43.9,36a3.8,3.8,0,0,0,2.7,4.6c7.1,1.9,14.5-3.8,15-11.1S55.2,16.1,48.2,16.1v7.5a12.4,12.4,0,0,0,9.5-5.9,11.9,11.9,0,0,0,.7-11.3C55-.6,45-2,39.4,3c-1.5,1.3-1.3,3.9,0,5.3a3.9,3.9,0,0,0,5.3,0Z"/><path d="M69.9,7.2c1.1,6.2,2.4,12.4,3.4,18.6a15.5,15.5,0,0,1-.3,7.4c0,.1-.3.8-.1.2l-.3.7a3.5,3.5,0,0,1-.5.8c-.1.2-.4.6-.1.2l-.6.7c-.1.1-.7.5-.2.2a8,8,0,0,1-1.6.8c-1.8.8-2.2,3.6-1.3,5.1s3.2,2.2,5.1,1.4c6.3-2.7,8.2-10.4,7.5-16.5-.4-3.7-1.2-7.3-1.8-10.9l-2-10.7a3.8,3.8,0,0,0-4.6-2.6,3.7,3.7,0,0,0-2.6,4.6Z"/><path d="M88.9,7.9l.4,11.8c.1,3.9,0,7.9.4,11.7s2.6,7.4,6.8,8,6.4-.7,9.3-2.2a3.9,3.9,0,0,0,1.3-5.2,3.7,3.7,0,0,0-5.1-1.3l-1.5.7h-.2l-.8.2-1,.3c-.4.1-.3,0,0,0h-.9c-.5,0-.2-.1.1,0s-.8-.4-.2,0-.1-.1,0,.1.3.9-.2-.2c.2.4.1,0,0-.1s0,.3-.1-.5v-.8a22.6,22.6,0,0,1-.1-2.6l-.7-20a3.6,3.6,0,0,0-3.7-3.7,3.8,3.8,0,0,0-3.8,3.7Z"/><path d="M96.4,22.4a29.3,29.3,0,0,0,11-1.5,4.1,4.1,0,0,0,2.2-1.7,3.7,3.7,0,0,0-4.2-5.5,28.8,28.8,0,0,1-4.9,1.1h.9a41,41,0,0,1-5,.2,3.7,3.7,0,0,0-3.8,3.7,4,4,0,0,0,3.8,3.8Z"/><path d="M93.3,10.1h11.5a3.7,3.7,0,0,0,3.7-3.7,3.7,3.7,0,0,0-3.7-3.8H93.3a3.7,3.7,0,0,0-3.7,3.8,3.7,3.7,0,0,0,3.7,3.7Z"/><path d="M121.8,6.4a293,293,0,0,0,.6,29.6,3.8,3.8,0,0,0,7,1.9,9.6,9.6,0,0,0,1.4-4.7,3.9,3.9,0,0,0-3.8-3.8,3.8,3.8,0,0,0-3.7,3.8c-.1.7.2-.2-.1.5s-.3.3-.3.4l7,1.9a293,293,0,0,1-.6-29.6,3.8,3.8,0,0,0-3.8-3.8,3.9,3.9,0,0,0-3.7,3.8Z"/><path d="M117.8,10.2l19.9-1a3.8,3.8,0,0,0,3.8-3.7,3.9,3.9,0,0,0-3.8-3.8l-19.9,1a3.8,3.8,0,0,0-3.7,3.8,3.8,3.8,0,0,0,3.7,3.7Z"/><path d="M160.1,3.4c-7.4-.3-12.6,6.9-13.5,13.6a21.2,21.2,0,0,0,5.2,16.8,17.8,17.8,0,0,0,7.9,5,11.3,11.3,0,0,0,11.2-2.6c5.6-5,5.5-14.4,3-20.9-1.5-3.8-3.9-7.3-7.6-9.1a13,13,0,0,0-12.1,0,3.7,3.7,0,0,0-1.3,5.2,3.8,3.8,0,0,0,5.1,1.3,4.4,4.4,0,0,1,2.2-.5h.8l1,.3c.7.2-.2-.2.5.2l1.4.8c.5.4-.6-.6.2.2l.6.5.5.6.4.5.9,1.7a7.2,7.2,0,0,1,.5,1.4,8.4,8.4,0,0,1,.5,1.7,11.7,11.7,0,0,1,.4,3.7v1.8a8.8,8.8,0,0,1-.2,1.6l-.3.8c.1-.1-.4,1.2-.2.8l-.4.6s-.6,1-.2.5a15.9,15.9,0,0,1-1.3,1.3c.1-.1.5-.3-.1,0l-.8.5c-.5.2.7-.1-.3.1h-1.8a8.8,8.8,0,0,1-2.8-1.2l-.5-.4c-.9-.5.3.3-.2-.1l-1.3-1.2a6.3,6.3,0,0,1-1-1.2c.5.6-.2-.3-.3-.5a6.4,6.4,0,0,1-.8-1.4l-.3-.5h0c-.1-.2-.2-.3-.2-.5a24.5,24.5,0,0,1-.8-2.9,1.3,1.3,0,0,1-.1-.6c.1.8,0,.1,0-.2a9.1,9.1,0,0,1-.1-1.7c0-.5.1-1.1.1-1.6s.1-.1.1-.3.1-.6.2-.9a8.8,8.8,0,0,1,.5-1.5c-.3.7,0,.1.1-.1l.5-1.1.5-.6c.5-.8-.4.3.3-.4l.7-.7.4-.4h0l.8-.5c.7-.5-.4,0,.4-.2l.7-.2h.9a3.8,3.8,0,0,0,3.7-3.8,3.8,3.8,0,0,0-3.7-3.7Z"/><path d="M192.5,2.4a11.3,11.3,0,0,0-10.3,3.3,11.9,11.9,0,0,0-3.3,10.4c.7,3.8,3.7,6.6,6.6,8.9a27.1,27.1,0,0,1,4,3.6l.2.2.2.3a2.1,2.1,0,0,0,.4.6c0,.1.3.6.1.2s.1.5.2.6.1.8,0,.3v.8c0,.5-.1.3,0,0s-.1.4-.1.6.3-.2,0-.1-.3.5-.1.2-.1.1-.2.2h-.1c.3-.3.4-.3.1-.2h-.1c.2-.1.2-.1-.1,0h-2.3l-3.3-.2a3.8,3.8,0,0,0-3.7,3.8,3.7,3.7,0,0,0,3.7,3.7c1.8,0,3.5.3,5.3.2a8.7,8.7,0,0,0,6.1-2.6c2.8-2.9,2.9-7.4,1.3-10.9s-4.7-5.5-7.5-7.9L187.7,17l-.4-.5a4.1,4.1,0,0,1-.7-1.1l-.3-.5c.2.4,0-.1,0-.2s-.1-.9-.1-.2v-1c0-.3.2-.5,0,.1s.1-.5.1-.7.1-.3.2-.4-.3.5,0,0l.6-1.1c.3-.4,0,0,0,.1l.4-.5.3-.3c.1-.1.6-.5.3-.3s.2-.1.3-.1l.5-.4.5-.2c-.4.2-.4.1,0,.1l.4-.2h.7c2,.3,4.2-.5,4.7-2.6s-.6-4.3-2.7-4.6Z"/><path d="M14,5.9a8.6,8.6,0,0,0-5.9-.6,10.5,10.5,0,0,0-4.5,3C1.1,11.3.7,15.1.2,18.8-.5,26,.3,33.9,6.8,38.3s14,.7,18.3-4.7,6.5-12.7,2.8-18.8c-2-3.2-5.1-5.4-8.2-7.3S16,5.3,13.9,5.4,8.3,7.9,8.6,10.9a3.8,3.8,0,0,0,3.7,3.7c1.9-.1,4-1.6,3.8-3.7a2.4,2.4,0,0,1-1.5,1.9c-1.6.4-1-.2-.6.1s.2.1.4.2l.6.4,3,1.8.7.4c0,.1.6.6.3.3l.4.3.7.7a5.2,5.2,0,0,1,1,1.1c-.1-.2-.3-.5.1.1a5.6,5.6,0,0,0,.5.8c.1.2.4.9.1.3l.3.7c0,.3.2,1.5.2.8v2.1c0-.8-.1.4-.1.4s-.3,1-.4,1.4l-.3.7c.2-.5,0,.1,0,.2a17.5,17.5,0,0,1-1.8,2.9c.3-.5-.1,0-.1.1l-.5.6-1.1,1A7.2,7.2,0,0,1,15.6,32c.2-.1-1,.5-.6.4s-.4.1-.5.1l-.8.2c-.6.2.5,0-.1.1h-.8c-.6,0,.8.2-.2,0l-.7-.2c-.6-.2.1.1-.2-.1l-.6-.4-.4-.2-.5-.4L9.7,31l-.5-.5c.2.1.3.5,0-.1s-.7-1.1-.9-1.6.2.5-.1-.1a2.9,2.9,0,0,1-.2-.9A11.6,11.6,0,0,1,7.6,26c0,.4-.1-.4-.1-.3v-1a8.1,8.1,0,0,1,0-2.2,27.1,27.1,0,0,1,1-7.7,2.4,2.4,0,0,1,.2-.8c-.2.5.3-.5.4-.5s.2-.3,0-.2l.4-.3c.1-.2.4-.3.6-.4a1.6,1.6,0,1,0,.4-.1h0c.6,0,0,0-.3-.2,1.9.8,4.1.6,5.2-1.3s.5-4.3-1.4-5.1Z"/><rect y="48.1" width="198.1" height="62.32" fill="none"/></svg>