<svg xmlns="http://www.w3.org/2000/svg" viewBox="0 0 512 297.1"><path d="M159.8,65.7l-3.3-2.1a27.4,27.4,0,0,0,6-17.1,34.1,34.1,0,0,0-4.6-17.6,30,30,0,0,0-14.3-12.5,28.9,28.9,0,0,0-9.6-2,26.6,26.6,0,0,0-11.1,2.3,5.8,5.8,0,0,0-2.8,3.7,6.7,6.7,0,0,0,.6,4.8l.7.9,1.8,67.4.5,19.5c.1,3,2.5,6,5.6,6.2a6.4,6.4,0,0,0,5.1,2.6c13.4-.1,28-6.4,34.3-18.8a30.1,30.1,0,0,0,2.7-20.8C169.8,75.4,165.4,69.8,159.8,65.7Zm-10-22.6v.3C149.8,43,149.7,42.2,149.8,43.1Zm-4.1-10c.1,0,.1,0,.1.1h0C146.4,33.9,146,33.4,145.7,33.1ZM134.9,27c.3,0,1.1.2.2,0h.3a16.8,16.8,0,0,1,3.2.9h.9c.5.2.3.2,0,.1l1,.4,1.3.8.6.4.5.3-.5-.3c.3-.2,2.1,1.9,2.4,2.1l.8,1,.7.9a18.2,18.2,0,0,1,1.5,2.7l.5.9v.2h-.1c-.4-.8,0-.1.1.2l.3.9.9,3.2a8.8,8.8,0,0,0,.2,1.6,1.7,1.7,0,0,1,.1.7,20.5,20.5,0,0,1,0,3.5V48h0v.5c-.1.5-.1.3-.1.1l-.3,1.5a9.4,9.4,0,0,1-.4,1.6,1.4,1.4,0,0,0-.2.6v0c0,.1-.1.1-.1.2s-.3.5-.2.2a20.1,20.1,0,0,1-1.4,2.5l.3-.3-.3.4h0l-.3.3h-.1L145.7,57l-.6.5H145l-1.2.8a8,8,0,0,1-1.6.8l-.7.3-1.8.5H139a7.3,7.3,0,0,0-4.2,1.6c-.1-5.9-.3-11.8-.4-17.7s-.4-11.4-.5-17.1Zm24.8,63.1c0,.4-.1.8-.1,1.2v.3h-.1c0,.2-.1.5-.1.7a13.3,13.3,0,0,1-.5,1.9,4.9,4.9,0,0,1-.4,1.1h0c-.3.5-.5,1.2-.7,1.6l-1,1.7a4.4,4.4,0,0,0-.8,1.1c.1-.2.2-.1-.1.2l-.2.2h0l-.8.9a27.3,27.3,0,0,1-2.5,2.3h0l-.2.2-.3.2-.2.2-1.8,1.1-2.1,1.2-.9.4c-.4.2-1.8.7-.1.1l-4.1,1.4-2.4.6-1.6.2h-.8c.1,0,.1,0,.1-.1h-1.6a4.5,4.5,0,0,0-.3-1.6c-.3-12.2-.7-24.3-1-36.5a5.1,5.1,0,0,0,3.9,1.4,24.1,24.1,0,0,1,3.8-.1h1.9c-2.1-.1.3.1.9.3a17,17,0,0,1,3.2,1l.9.3,1.8,1,1.6,1,.2.2.3.2h.1a30.7,30.7,0,0,1,2.6,2.5l.5.7a8.3,8.3,0,0,1,.8,1.2l.9,1.6c.1.2.7,1.3.1.3s.2.5.3.7.4,2.4.8,3.5v3.6Z"/><path d="M149.9,48.3h0a.7.7,0,0,0-.1.5A2,2,0,0,1,149.9,48.3Z"/><path d="M153.7,76.7h0l-.4-.3C153,76.2,152.9,76.4,153.7,76.7Z"/><path d="M146.9,55.7l.3-.3h0C146.9,55.6,146.9,55.8,146.9,55.7Z"/><path d="M155.7,100.2h0c0-.2.1-.3.3-.4S155.7,100,155.7,100.2Z"/><path d="M148.9,52.4h0l-.3.4Z"/><path d="M159.6,91.6h0v-.2C159.6,90.8,159.5,90.6,159.6,91.6Z"/><path d="M139.5,28.3l-.4-.2h0Z"/><path d="M151.9,103.8l.5-.4h0C151.9,103.5,151.7,103.9,151.9,103.8Z"/><path d="M238.9,75c-3.5-12.2-7.6-24.1-11.6-36.1-2.3-6.9-4.6-13.9-7-20.8-1-3.1-4.3-5.4-7.6-4.3a6.6,6.6,0,0,0-4,3.3,4.3,4.3,0,0,0-1.3,2.6q-5.6,31.2-12.2,62.1a6.5,6.5,0,0,0-.8,4.1c-1,4.7-2.1,9.5-3.1,14.3-1.7,7.6-3.4,15.1-5.2,22.7-.7,3.2,1,6.9,4.4,7.7a6.2,6.2,0,0,0,7.7-4.4c2.5-10.7,4.9-21.5,7.2-32.3l4.1,1.4c.3.1,1.7.8.8.3l.7.3,2.9,1.4,5.3,3,2.4,1.7,1.2.9.5.3h-.1a53.4,53.4,0,0,1,4.4,3.9,50.1,50.1,0,0,1,4.4,4.8h.1c-.1-.2-.1-.2.1.1l.3.4-.3-.3h.1l.9,1.4a16.7,16.7,0,0,1,1.8,2.8,6.5,6.5,0,0,0,7.1,2.8,6.3,6.3,0,0,0,2.7-1.6,6,6,0,0,0,1.9-4.4A247.6,247.6,0,0,0,238.9,75Zm-25.3,8.6-5.2-1.9H208c2.5-11.9,4.9-23.8,7.2-35.8a18.5,18.5,0,0,0,.4-2.3l4.8,14.2c4,11.7,7.5,23.6,10.3,35.6a67.7,67.7,0,0,0-17.1-9.8Z"/><path d="M232.1,112c.1.1.1.1.1.2h-.1Z"/><path d="M283.8,108.2c-.2-3.2-.5-6.5-.8-9.7l-1.5-19.6C280.6,66,279.9,53,279.4,40c-.3-7.4-.5-14.8-.7-22.2,0-3.2-2.8-6.4-6.2-6.2s-6.4,2.7-6.3,6.2q.9,39.6,4.2,79l.9,10.9c.2,1.8.3,3.6.5,5.4l.3,3a17.4,17.4,0,0,0,.5,3.9c1.2,3.1,4.3,5.5,7.7,4.4s5.6-4.4,4.4-7.7Z"/><path d="M335.9,108.7l-12.8,1.4c-.1-.8-.1-1.6-.2-2.4-.4-7.4-.6-14.8-.8-22.3-.4-15.9-.5-31.9-.9-47.9-.3-8.1-.6-16.2-1.1-24.3-.3-3.3-2.8-6.5-6.3-6.3s-6.5,2.8-6.2,6.3c1,15.7,1.3,31.4,1.5,47.1s.5,32.1,1.4,48.1l.3,6.1c.2,2.3.7,4.6,2.5,6.3a8.7,8.7,0,0,0,6.1,2.2l8.2-.9,8.3-.9a6,6,0,0,0,4.4-1.8,6.1,6.1,0,0,0,1.9-4.4C342,111.9,339.4,108.4,335.9,108.7Zm-12.6,5.8C323.4,114.9,323.4,114.7,323.3,114.5Z"/><path d="M365.6,100.5c.1,2.3.2,4.6.2,6.9a54.9,54.9,0,0,0,.5,7,11.3,11.3,0,0,0,4.6,6.7c2.3,1.6,5.3,1.7,8,1.8a142,142,0,0,0,31.2-2.6c3.2-.6,5.3-4.7,4.3-7.7a6.8,6.8,0,0,0-7.7-4.4l-6.1,1.1h-1.9l-3.4.4a104.5,104.5,0,0,1-12.5.5h-4.4v-.6c-.1-1.1-.1-2.2-.1-3.3s-.1-4.4-.2-6.7c-.2-9.7-.3-19.4-.4-29.1l26.5,1.2a6.1,6.1,0,0,0,6.2-6v-.2a6.5,6.5,0,0,0-6.2-6.3L377.7,58V47.4c0-7.7.1-15.5.2-23.2l33.4,1a6.4,6.4,0,0,0,6.3-6.2,6.5,6.5,0,0,0-6.3-6.3l-39.5-1.2c-3.4-.1-6.2,3-6.3,6.3-.3,18.4-.4,36.8-.3,55.3C365.3,82.2,365.4,91.3,365.6,100.5Zm34.7,8.8c-.3.1-.6.2-.7.1Zm-23.9.9Z"/><path d="M163.2,158.4c-14,0-28,.6-41.9,1.9a6.6,6.6,0,0,0-4.4,1.9,6,6,0,0,0-1.8,4.4c.1,3.1,2.7,6.6,6.2,6.2l16.2-1.2,3,33.5c1.1,12.1,2.3,24.2,3.2,36.3.2,3,.3,5.9.3,8.8a34.7,34.7,0,0,1-.1,4c-.1,1.3-.1,1.6-.2,2.4a6,6,0,0,0-.1.8.4.4,0,0,1-.1.3,38.3,38.3,0,0,1-1.9,7.4l-.2.3h0l-.6,1.3a33.7,33.7,0,0,1-1.9,3.2l-.5.5a.8.8,0,0,1-.2.4h-.1v.2h.1l-.5.5-2.3,2.3-.5.4-1.1.8-1.6.8-.5.3-3,.9h-4.8a16.8,16.8,0,0,1-3.2-.9h.1c-.1,0-.2,0-.2-.1h-.2l-.4-.2-.3-.2-1.7-.9-.6-.5h0c-.8-.5-.5-.4-.3-.3l-1.3-1.1a6.9,6.9,0,0,1-1.1-1.3h-.2c-.3-.4-.3-.5-.2-.4l-.3-.4a8.6,8.6,0,0,1-1-1.6c-.2-.3-.3-.9-.5-1.3s0,.4-.2-.1-.1-.2-.1-.3h0l-.3-.8a14.6,14.6,0,0,1-.5-2c-.2-.6-.2-1.3-.4-1.9V261a6.5,6.5,0,0,0,3.5-4.1c.8-3.5-1.1-6.4-4.4-7.7a7.8,7.8,0,0,0-6.5.8,10.6,10.6,0,0,0-4.4,5.6c-1.2,3.1-.8,6.6-.3,9.8a29.3,29.3,0,0,0,8,16.2c8.7,9,23.7,11,34.1,3.8a34.1,34.1,0,0,0,11.1-13,49.8,49.8,0,0,0,4.4-19c.4-6.5-.3-13.1-.9-19.5s-1.2-13.4-1.7-20.1c-1.3-14.2-2.5-28.4-3.8-42.6l13.2-.2c3.2,0,6.4-2.9,6.2-6.2a6.3,6.3,0,0,0-6.2-6.4Z"/><path d="M128.2,277.1h.4c0-.1-.2,0-.6.1h.2Z"/><path d="M138.4,270.5c.1-.2,0-.2-.3.6h0Z"/><path d="M112.4,267.7l-.3-.4h0Z"/><path d="M117.3,274.2h0l-.3-.3Z"/><path d="M114.6,271.5c0-.2-.3-.4-.4-.5Z"/><path d="M120.6,276.1c-.6-.4-.7-.4-.7-.3l.6.2C120.5,276.1,120.5,276.1,120.6,276.1Z"/><path d="M214.8,265.3l.3.3-.3-.2Z"/><path d="M220.4,190.5l-5.7-24a2.7,2.7,0,0,0-.3-1.2,6.4,6.4,0,0,0-1.4-2.2h-.1a6.9,6.9,0,0,0-3-1.7h-.8a9,9,0,0,0-2.3.2l-.3.2a4.7,4.7,0,0,0-2.4,1.5l-1,1.2v.2H203a6.7,6.7,0,0,0-.7,2.4.9.9,0,0,1-.1.5c-.4,3.7-.8,7.4-1.3,11v.2c-.1.4-.1.9-.2,1.3s-.3,1.8-.4,2.7-.5,3.8-.8,5.7c-1.2,7.5-2.4,15.1-3.7,22.6-2.7,15.1-5.6,30-8.4,45-1.6,8.2-3.1,16.3-4.5,24.5a6.7,6.7,0,0,0,.6,4.8,6.9,6.9,0,0,0,3.8,2.9c3,.7,7-1,7.6-4.4,1.6-8.8,3.2-17.6,4.9-26.4l1.3.4,1,.4c.5.2,1.9,1,.3.1,1.7,1,3.5,1.6,5.2,2.5l4.6,2.8,2.6,1.8h0l.3.2.8.6a65.6,65.6,0,0,1,8,7.8l.9,1.2.3.3,1.5,2.2c1.1,1.6,2.1,3.2,3.1,4.9a6.1,6.1,0,0,0,8.3,2.7,6.1,6.1,0,0,0,3.1-7.5Zm-18.2,54.4c2.7-14.6,5.5-29.2,7.8-43.9,4.4,18.4,8.7,36.7,13.1,55.1A70.4,70.4,0,0,0,202.2,244.9Z"/><path d="M324,218.8q-10.7.1-21.3.6c3.3-8.4,6.5-16.8,9.7-25.3s6.5-17.1,9.8-25.6c1.5-3.9-2.3-7.9-6-7.9H256.1a6.3,6.3,0,0,0-5.5,7,6.4,6.4,0,0,0,5.5,5.5h51l-18,47.3c-9.5.8-18.9,1.8-28.2,3.2a6.2,6.2,0,0,0-3.8,2.9,6.7,6.7,0,0,0-.6,4.8,6,6,0,0,0,2.9,3.7,7.3,7.3,0,0,0,4.8.7l3.9-.6h.8l2-.3,7.3-.8,5.9-.6-8.9,23.3c-3.2,8.6-6.5,17.1-9.8,25.7-1.4,3.8,2.3,7.9,6.1,7.9,13.2,0,26.4-.6,39.6-1.6,3.2-.3,6.4-2.7,6.2-6.2s-2.7-6.6-6.2-6.3q-15.3,1.2-30.6,1.5l17.4-45.4c8.7-.6,17.4-.8,26.1-.9a6.4,6.4,0,0,0,6.3-6.2A6.5,6.5,0,0,0,324,218.8Z"/><path d="M411.3,220l-22.6.6a3.6,3.6,0,0,0,.4-.9c5-11.7,9.7-23.4,14.2-35.3l3.3-8.7a62.8,62.8,0,0,0,2.9-8.3,8.3,8.3,0,0,0-2-7.8,8,8,0,0,0-6.6-2.2l-9.7.7-43.4,3.2c-3.3.3-6.4,2.7-6.3,6.3s2.8,6.5,6.3,6.2l37.1-2.8,9.3-.6h1.1l-.6,1.6c-1,2.8-2.1,5.7-3.2,8.5-2,5.5-4.2,11-6.4,16.5l-3.3,8.1-1.6,4a11.9,11.9,0,0,0-.8,2l-.4.8c-.1.3-.7,1.8-.1.3-1.3,3.1-2.5,6.1-3.9,9.2-7.6.4-15.3,1-22.9,1.6-3.3.3-6.4,2.7-6.3,6.3s2.8,6.5,6.3,6.2l17.2-1.3c-1.6,3.4-3.2,6.8-4.7,10.2-5.7,12-11.5,24-17.7,35.8a7,7,0,0,0,0,6.3c1,1.7,3.3,3.3,5.4,3.1l47.1-5.7a7.2,7.2,0,0,0,4.4-1.8,6.8,6.8,0,0,0,1.9-4.5c-.2-3-2.8-6.6-6.3-6.2l-36.2,4.4q10.5-21,20-42.3c9.4-.5,18.8-.8,28.1-.9a6.4,6.4,0,0,0,6.3-6.2A6.5,6.5,0,0,0,411.3,220Zm-9.5-50.2Z"/></svg>