<svg xmlns="http://www.w3.org/2000/svg" viewBox="0 0 268 124"><path d="M.2,24.7q6,15.8,10.5,32.1c1,3.7,6.1,3.4,7.2,0a225.1,225.1,0,0,0,8.7-34.4,3.9,3.9,0,0,0-2.7-4.6c-1.8-.4-4.2.6-4.6,2.6a237,237,0,0,1-8.6,34.4h7.2A300.8,300.8,0,0,0,7.4,22.7a3.8,3.8,0,0,0-4.6-2.6C1,20.6-.5,22.8.2,24.7Z"/><path d="M34.3,27.6a152.9,152.9,0,0,0,2.1,27.9c.3,2,2.8,3.1,4.6,2.6a3.8,3.8,0,0,0,2.6-4.6,139.9,139.9,0,0,1-1.8-25.9A3.8,3.8,0,0,0,38,23.9a3.8,3.8,0,0,0-3.7,3.7Z"/><path d="M41.4,13.2,52.1,7a3.9,3.9,0,0,0,1.3-5.2A3.7,3.7,0,0,0,48.3.5L37.6,6.7a3.8,3.8,0,0,0,3.8,6.5Z"/><path d="M51.2,26.9l2.1,24.7a3.8,3.8,0,0,0,7.4,1l.5-1.8a3.7,3.7,0,0,0-2.6-4.6A3.8,3.8,0,0,0,54,48.8l-.6,1.8,7.4,1L58.7,26.9a3.8,3.8,0,0,0-3.8-3.7c-1.9.1-3.9,1.6-3.7,3.7Z"/><path d="M55.9,29l1.1-.3h3.2l1.1.2,2.2.7c-.7-.2.3.2.5.3l1,.5,1,.6.4.3h.2l1.5,1.5.8.9c.3.3-.1-.1-.1-.2l.5.7a11.4,11.4,0,0,1,1,1.9c.4.6.1.1,0,0a.8.8,0,0,1,.2.4,5,5,0,0,1,.4,1.3,3.6,3.6,0,0,1,.2,1.1c-.1-.7.1.3.1.5v1.7c0,.1-.1.8-.1.4s-.1.6-.1.8l-.3,1.2c-.1.4-.3.7-.4,1.1v.2c.2-.4-.2.5-.2.5a19.9,19.9,0,0,1-1.2,1.9c-.1.2-.7,1-.3.5l-.9,1-1,1-.6.4a16.4,16.4,0,0,1-2.2,1.4l-.6.3h0l-1.3.4-1.3.3c-.5.1.1,0,.1,0h-.9l1.9.5c-1-.5-.7.3,1.1,2.4l-1.1,2.6h.1l-2.6,1.1h.1a3.9,3.9,0,0,0,3.8-3.8,3.8,3.8,0,0,0-3.8-3.7,3.9,3.9,0,0,0-4,3.9A4.9,4.9,0,0,0,58.8,60c2.6.6,5.6-.5,7.9-1.5A20.1,20.1,0,0,0,76.5,49a18.5,18.5,0,0,0,1.3-14.2,20.4,20.4,0,0,0-8.7-10.7,19.8,19.8,0,0,0-15.2-2.3,3.7,3.7,0,0,0-2.6,4.6A3.7,3.7,0,0,0,55.9,29Z"/><path d="M81.3,24.6l.6,23.2c0,1.9-.1,4,.8,5.7A6.2,6.2,0,0,0,88,56.7a85.3,85.3,0,0,0,11.3-.3,3.8,3.8,0,0,0,3.8-3.7,3.9,3.9,0,0,0-3.8-3.8c-3.3.3-6.6.3-9.9.3H88.3c-.5,0-.2-.1.1,0a4.7,4.7,0,0,1,1,1c0,.3.1.4,0,.1V50c-.1-1.7-.1-3.4-.1-5.2l-.5-20.2a3.8,3.8,0,0,0-3.7-3.8,3.9,3.9,0,0,0-3.8,3.8Z"/><path d="M87.8,42.1a49.6,49.6,0,0,0,13.3-.8,3.8,3.8,0,0,0,2.6-4.6,3.8,3.8,0,0,0-4.6-2.6l-2.6.4h1a52.4,52.4,0,0,1-9.7.2,3.8,3.8,0,0,0-3.7,3.7A3.5,3.5,0,0,0,85.2,41a4.1,4.1,0,0,0,2.6,1.1Z"/><path d="M86.3,29.1l11.4-1a3.7,3.7,0,0,0,2.7-1.1,4.1,4.1,0,0,0,1.1-2.6,3.9,3.9,0,0,0-3.8-3.8l-11.4,1a4.6,4.6,0,0,0-2.7,1.1,4.4,4.4,0,0,0-1.1,2.7c.1,1.8,1.7,3.9,3.8,3.7Z"/><path d="M127.9,20.8c-6.5-1.6-13.4,2.1-16.2,8.1s-1.1,14.2,3.3,19.7,10.6,8,16.5,5.8,9.7-11.5,8.6-18.5a17.8,17.8,0,0,0-15.5-14.7c-1.9-.2-3.8,1.9-3.7,3.8a3.8,3.8,0,0,0,3.7,3.7c-.7-.1.1.1.3.1l.7.2.9.3c.1,0,.6.3.1,0l1.5.8.6.4h0c.1.1.3.2.4.4a4.3,4.3,0,0,1,1.2,1.1l.5.6h.1l1,1.7a7.2,7.2,0,0,1,.5,1.4,12.3,12.3,0,0,1,.2,6.3l-.6,1.8c-.2.7.4-.7-.1.4l-.4.6c-.1.2-.8,1.3-.5.9l-.6.7c-.1.1-.3.2-.4.4s.2-.2,0-.1l-.6.4c-.2.1-.9.3-.2.1l-1.3.3c.8-.1-.6,0-.8,0s-.9-.2-.2,0l-1-.3-.8-.2-1.4-.7-.8-.5c0-.1-.5-.4-.1-.1l-1.3-1.2c-2.7-2.7-4.4-7.4-3.5-10.9a2.9,2.9,0,0,1,.2-.9c.1-.1.5-1.1.2-.5a10.9,10.9,0,0,1,.8-1.5h.1l.7-.7.5-.5c.8-.7-.5.3.4-.3l1.5-.9c-.6.3-.1,0,.1,0l1-.3h2.4a3.7,3.7,0,0,0,2-7.2Z"/><path d="M168.8,26.5a84.3,84.3,0,0,0,13.1,13.6,4.6,4.6,0,0,0,2.7,1.1,4,4,0,0,0,2.7-1.1c1.2-1.4,1.6-4,0-5.3a63.7,63.7,0,0,1-6.6-6l-3-3.2a11.5,11.5,0,0,1-1.4-1.7l-.7-.8-.3-.4A4,4,0,0,0,173,21a3.7,3.7,0,0,0-2.9.3,3.9,3.9,0,0,0-1.7,2.3,3.7,3.7,0,0,0,.4,2.9Z"/><path d="M188.5,20.5A140.8,140.8,0,0,0,180,50.3c-.3,1.9.5,4.1,2.6,4.6s4.3-.6,4.6-2.6a147,147,0,0,1,8.5-29.8,3.7,3.7,0,0,0-7.2-2Z"/><path d="M7.6,85.1,4.1,119.5a3.8,3.8,0,0,0,3.7,3.8,3.9,3.9,0,0,0,3.8-3.8l3.5-34.4a3.6,3.6,0,0,0-3.7-3.7,3.9,3.9,0,0,0-3.8,3.7Z"/><path d="M10.6,86.8a135.6,135.6,0,0,1,13.2,33.9,3.8,3.8,0,0,0,4.7,2.6,3.7,3.7,0,0,0,2.6-4.6A146.5,146.5,0,0,0,17.1,83a3.8,3.8,0,0,0-6.5,3.8Z"/><path d="M12,114.9h9.9a3.8,3.8,0,0,0,3.8-3.8,3.8,3.8,0,0,0-3.8-3.7H12a3.8,3.8,0,0,0-3.8,3.7,3.9,3.9,0,0,0,3.8,3.8Z"/><path d="M37.7,88.1c-.5,10.2-.6,20.5-.3,30.7a3.8,3.8,0,0,0,3.8,3.7,3.8,3.8,0,0,0,3.7-3.7c-.3-10.2-.2-20.5.3-30.7a3.8,3.8,0,0,0-3.7-3.7,3.9,3.9,0,0,0-3.8,3.7Z"/><path d="M39.4,90.8c6,8.8,11.7,17.9,17.2,27.1,1.9,3.3,6.8,1.7,6.9-1.9l1.4-26.3a3.8,3.8,0,0,0-3.8-3.8,3.8,3.8,0,0,0-3.7,3.8L56,116l7-1.9C57.6,104.9,51.9,95.9,45.9,87a3.9,3.9,0,0,0-5.2-1.3,3.7,3.7,0,0,0-1.3,5.1Z"/><path d="M72.1,87.4l1.3,15.1.7,7.4a51.8,51.8,0,0,0,1.1,7.9,3.9,3.9,0,0,0,4.6,2.7,4,4,0,0,0,2.7-4.7,26.7,26.7,0,0,1-.9-6.4l-.7-7.4L79.6,87.4c-.2-2-1.6-3.9-3.8-3.8s-3.9,1.7-3.7,3.8Z"/><path d="M90.2,87.4v30.2a3.8,3.8,0,0,0,3.2,3.7,3.8,3.8,0,0,0,4.1-2.7l.7-1.9a3.7,3.7,0,0,0-2.6-4.6,3.8,3.8,0,0,0-4.6,2.6l-.7,1.9,7.4,1V87.4a3.8,3.8,0,0,0-3.8-3.8,3.8,3.8,0,0,0-3.7,3.8Z"/><path d="M93.1,88.2a98.5,98.5,0,0,0,8.5,19.7,3.8,3.8,0,0,0,6.5,0l10.1-19-7-1.9c.5,9.3.6,18.5.4,27.7a3.7,3.7,0,0,0,3.7,3.8,3.9,3.9,0,0,0,3.8-3.8v-2a3.7,3.7,0,0,0-3.7-3.8,3.9,3.9,0,0,0-3.8,3.8v2h7.5c.2-9.2.1-18.4-.4-27.7a3.7,3.7,0,0,0-2.7-3.6,3.8,3.8,0,0,0-4.2,1.7l-10.2,19h6.5a91.6,91.6,0,0,1-7.8-17.9,3.9,3.9,0,0,0-4.6-2.6,3.8,3.8,0,0,0-2.6,4.6Z"/><path d="M131.1,86.4a105.5,105.5,0,0,0-3.4,30.1,3.8,3.8,0,0,0,3.8,3.7,3.8,3.8,0,0,0,3.7-3.7,98.6,98.6,0,0,1,3.1-28.1,3.7,3.7,0,0,0-7.2-2Z"/><path d="M134.2,87a170.5,170.5,0,0,1,11.4,34.3,3.7,3.7,0,0,0,4.6,2.6,3.9,3.9,0,0,0,2.6-4.6,178.2,178.2,0,0,0-12.1-36.1c-.8-1.8-3.5-2.2-5.1-1.3a3.9,3.9,0,0,0-1.4,5.1Z"/><path d="M136.3,114.7l13-3.1a3.7,3.7,0,0,0,2.6-4.6,3.8,3.8,0,0,0-4.6-2.6l-13,3a3.8,3.8,0,0,0-2.6,4.6,3.9,3.9,0,0,0,4.6,2.7Z"/><path d="M179.4,84.7c-3.9-2.6-9.5-2.2-13.4.4s-6.3,7.4-6.8,12.3c-1.1,9,4.1,19.1,13.3,21.4a15.4,15.4,0,0,0,14.4-3.5,3.7,3.7,0,0,0-5.3-5.3c-.1.1-.8.6-.3.3l-1,.6-.7.4c.4-.2-.1,0-.1,0l-.7.2-1,.3c.7-.2-.4,0-.6,0h-1.7a9,9,0,0,1-2.2-.6l-.5-.2c.1.1.5.3.1.1l-1.1-.6-.9-.7c.4.4-.4-.3-.5-.5a6,6,0,0,1-.8-.8l-.3-.4c.2.3,0,0-.1-.1a23.9,23.9,0,0,1-1.3-2.1l-.2-.5h0c-.2-.4-.3-.9-.5-1.3a20.5,20.5,0,0,1-.5-2.4c-.1-.4-.1,0,0,.1a1.3,1.3,0,0,1-.1-.6c0-.4-.1-.9-.1-1.3a5.3,5.3,0,0,1,.1-1.3V98s.1-.6,0-.3.1-.2.1-.2a1.3,1.3,0,0,1,.1-.6,8.3,8.3,0,0,1,.4-1.5c0-.2.3-.9.2-.8s.3-.5.4-.7l.6-1c.3-.3,0,0,0,.1l.6-.7c.1-.2.9-.9.5-.5l1-.7.5-.3c-.3.2-.1.1.1,0l1.4-.4c-.6.2.4,0,.6,0h.6l1.3.4.7.4c1.6,1.1,4.1.3,5.1-1.3a3.9,3.9,0,0,0-1.4-5.2Z"/><path d="M191.3,88.1a75.8,75.8,0,0,0,3.6,27.6,3.7,3.7,0,0,0,6.2,1.7l1.3-1.3a3.7,3.7,0,1,0-5.3-5.3l-1.3,1.2,6.3,1.7a69.5,69.5,0,0,1-3.3-25.6,3.8,3.8,0,0,0-7.5,0Z"/><path d="M218.9,85.6a11.1,11.1,0,0,0-8,4,15,15,0,0,0-3.4,9,36.5,36.5,0,0,0,.7,9.9,15.8,15.8,0,0,0,4.1,8.5,10.6,10.6,0,0,0,8.5,3.4,11.5,11.5,0,0,0,7.9-4.9c3.8-4.9,4.6-12,2.6-17.8a15.7,15.7,0,0,0-6-8.1,10,10,0,0,0-10-.9c-1.8.8-2.3,3.5-1.3,5.1s3.2,2.2,5.1,1.4c-.7.3,0,0,.1,0h.1c.3-.1.2-.1-.2,0s.5-.1.5,0h.2c-.4-.1-.5-.1-.2,0s1.2.3.6.1l1.3.7h.1c.2.1.3.3.4.4a5.2,5.2,0,0,1,1,1.1c-.4-.5.4.6.4.7l.3.4.2.4a16.7,16.7,0,0,1,.8,3c.2.7,0-.4.1.3v.6a10.9,10.9,0,0,1,.1,1.8,14.2,14.2,0,0,1-1.3,5l-.8,1.3c.3-.4-.4.4-.5.5l-.5.5-.6.4c-.1.1-.9.4-.5.3s-1.1.2-.3.1h-.7c.1,0,.6.2-.1,0l-.7-.2h0l-.6-.4c-.5-.3.5.6-.3-.2l-.6-.5s-.4-.5-.2-.2-.2-.3-.2-.4a1.6,1.6,0,0,1-.4-.7,11.8,11.8,0,0,1-1-2.7,40.4,40.4,0,0,1-.7-6.3V99.5c0-.5.1-1.2.1-1.5a13.9,13.9,0,0,1,.6-1.9c-.2.6.2-.6.3-.7l.4-.7.2-.2.5-.5c.1-.1.7-.6.2-.2l1.2-.7c-.6.3,0,.1.1,0h.4c1.9-.2,3.8-1.7,3.7-3.8s-1.7-3.9-3.7-3.7Z"/><path d="M238,89.7v23.7c0,1.8-.1,3.5,1.1,5,3.1,4.2,9.8,0,7.2-4.6a3.7,3.7,0,0,0-5.1-1.4,3.9,3.9,0,0,0-1.3,5.2h.1l-.6-1.9v.2l.5-1.9.3-.4,1.7-1h1.3l1.7.9c.4,1.7.6,2,.6,1.2V89.7a3.8,3.8,0,0,0-3.7-3.8,3.9,3.9,0,0,0-3.8,3.8Z"/><path d="M241,92.2l18.6,26.9a3.8,3.8,0,0,0,7-1.8c.5-9.7.9-19.4,1.4-29.1a3.8,3.8,0,0,0-3.8-3.8,3.8,3.8,0,0,0-3.7,3.8c-.5,9.7-.9,19.4-1.4,29.1l7-1.9-18.6-27a3.9,3.9,0,0,0-5.1-1.3,3.7,3.7,0,0,0-1.4,5.1Z"/><path d="M225,78.4a62.8,62.8,0,0,0,18.6-8.5,3.9,3.9,0,0,0,1.3-5.2,3.7,3.7,0,0,0-5.1-1.3,52.1,52.1,0,0,1-8.3,4.7l-1,.5-.6.3c.4-.2.4-.2,0-.1l-2.2.9-4.6,1.5a3.8,3.8,0,0,0-2.7,4.6,3.9,3.9,0,0,0,4.6,2.6Z"/></svg>