<svg xmlns="http://www.w3.org/2000/svg" viewBox="0 0 524.5 127.1"><path d="M1.6,21.4.4,56.1a3.8,3.8,0,0,0,3.8,3.7,3.7,3.7,0,0,0,3.7-3.7L9.1,21.4a3.7,3.7,0,0,0-3.7-3.8,3.9,3.9,0,0,0-3.8,3.8Z"/><path d="M2.9,24.2A84.7,84.7,0,0,1,11,39.3c1.2,3.1,4.8,3.7,6.8.9L29.2,24.7l-7-1.9L24,58.1a3.8,3.8,0,1,0,7.5,0L29.7,22.8a3.8,3.8,0,0,0-2.8-3.6,3.9,3.9,0,0,0-4.2,1.7L11.4,36.4l6.8.9A96.8,96.8,0,0,0,9.4,20.4a3.8,3.8,0,0,0-6.5,3.8Z"/><path d="M41.6,20.4a227.1,227.1,0,0,0-3.7,37.7,3.9,3.9,0,0,0,3.8,3.8,3.8,3.8,0,0,0,3.7-3.8,224.8,224.8,0,0,1,3.4-35.7,3.8,3.8,0,0,0-2.6-4.6c-1.8-.4-4.2.5-4.6,2.6Z"/><path d="M44.6,21.3A147.8,147.8,0,0,1,60.2,59.2a3.8,3.8,0,0,0,4.6,2.7,3.9,3.9,0,0,0,2.6-4.7A154.5,154.5,0,0,0,51.1,17.5a3.9,3.9,0,0,0-5.2-1.4,4,4,0,0,0-1.3,5.2Z"/><path d="M46,52.8a41.3,41.3,0,0,1,8.4-2.1l-1,.2,4.8-.4a3.8,3.8,0,0,0,3.7-3.7A3.8,3.8,0,0,0,58.2,43,43,43,0,0,0,44,45.6a3.7,3.7,0,0,0-2.6,4.6C42,52,44,53.5,46,52.8Z"/><path d="M89.6,21.1a12.1,12.1,0,0,0-12.3.1,11.7,11.7,0,0,0-5.5,10.9A11.3,11.3,0,0,0,74,38.2a20.6,20.6,0,0,0,4.8,4.5,16.2,16.2,0,0,1,3.4,2.7l.3.4.3.5c.3.6.1.3,0,.1a1.7,1.7,0,0,1,.2.5c.1.2.3,1.3.2.7a9.1,9.1,0,0,1,.1,1.7c-.1.4,0,0,0-.1s-.1.6-.2.9-.1.4-.2.6-.1.1-.2.3a2.1,2.1,0,0,1-.4.6c-.3.5.6-.5-.2.2s-1,.9-.6.6l-1.2.7-.8.3h-.7c.5-.1,0,0-.3,0H78c-1.1,0,.6.2-.5,0a3.8,3.8,0,0,0-4.6,2.6c-.4,1.9.6,4.2,2.7,4.6a12.7,12.7,0,0,0,11.8-3.6,12.5,12.5,0,0,0,2.7-12.5c-1.5-4.2-4.8-6.4-8.2-8.9h-.1c-.2-.1-.3-.3-.4-.4a3.9,3.9,0,0,1-1-.8c0-.1-.5-.7-.3-.3s-.1-.2-.1-.2-.6-1.3-.4-.7a5.7,5.7,0,0,1-.4-1.4c.2.7,0-.1,0-.4s.2-1.4,0-.7a7.4,7.4,0,0,0,.4-1.4c0,.1-.2.5,0,.1s.3-.5.4-.8.4-.4.2-.1l.4-.5h0l.6-.4.6-.3c-.3.1-.1,0,.1-.1s1.5-.3.7-.2a8.5,8.5,0,0,1,1.6,0c.5,0,0,0-.1-.1l.9.3h.5c-.7-.2.3.2.3.2A3.9,3.9,0,0,0,91,26.2a3.8,3.8,0,0,0-1.4-5.1Z"/><path d="M99.4,22.4,96,58.8a3.8,3.8,0,0,0,3.8,3.8,3.8,3.8,0,0,0,3.7-3.8l.3-2.7a3.8,3.8,0,0,0-3.8-3.8,3.8,3.8,0,0,0-3.7,3.8L96,58.8h7.5l3.4-36.4a3.7,3.7,0,0,0-3.7-3.8,3.9,3.9,0,0,0-3.8,3.8Z"/><path d="M104.6,22.8a103.9,103.9,0,0,1,12.8,32.3,3.8,3.8,0,0,0,7.3-2,109.2,109.2,0,0,0-13.6-34,3.9,3.9,0,0,0-5.2-1.4,3.7,3.7,0,0,0-1.3,5.1Z"/><path d="M103.1,51.6a40.5,40.5,0,0,0,14.3-1A3.8,3.8,0,0,0,120,46a3.7,3.7,0,0,0-4.6-2.6l-4,.7h1a41.3,41.3,0,0,1-9.3.1,3.6,3.6,0,0,0-2.6,1.1,3.3,3.3,0,0,0-1.1,2.6,3.5,3.5,0,0,0,1.1,2.7,4.7,4.7,0,0,0,2.6,1.1Z"/><path d="M131.6,22.5a158.7,158.7,0,0,1,4.1,20.3c.2,1.6.4,3.3.5,5a11.6,11.6,0,0,1-.1,4.2l-.3,1.1c-.2.4.2-.3-.2.3a4.7,4.7,0,0,1-.6.9l-.2.2c-.2.2-.6.6-.2.3a3.1,3.1,0,0,1-1,.5c.7-.3-.3.1-.4.1s-.2,0-.4,0a3.8,3.8,0,0,0-3.8,3.7,3.9,3.9,0,0,0,3.8,3.8,10.6,10.6,0,0,0,9.4-5.9c1.9-3.7,1.7-7.8,1.3-11.8a170.9,170.9,0,0,0-4.7-24.7,3.7,3.7,0,1,0-7.2,2Z"/><path d="M147.8,23.5l3,26.5c.3,2.2.2,4.9,1.3,6.9s4,2.9,6.5,3.1a28.5,28.5,0,0,0,12.9-2.4c1.9-.8,2.3-3.5,1.4-5.1a4,4,0,0,0-5.2-1.4,19.8,19.8,0,0,1-9.1,1.4h-.7c-.3,0-.3,0,.1.1h-.3a1.9,1.9,0,0,1,1.1,1.2v-.4h0c-.1-.5-.1-1-.2-1.5l-.6-5.6-2.6-22.6c-.2-2-1.6-3.9-3.8-3.8s-3.9,1.7-3.7,3.8Z"/><path d="M154.1,41.9l2.3-.4h-1a41.8,41.8,0,0,1,10-.1,3.6,3.6,0,0,0,2.6-1.1,3.3,3.3,0,0,0,1.1-2.6,3.5,3.5,0,0,0-1.1-2.7,4.1,4.1,0,0,0-2.6-1.1,45.6,45.6,0,0,0-13.3.6,3.8,3.8,0,0,0-2.7,4.7,4,4,0,0,0,4.7,2.6Z"/><path d="M153.1,27l11.2-2.1a4.1,4.1,0,0,0,2.3-1.8,4.7,4.7,0,0,0,.4-2.9,4,4,0,0,0-4.7-2.6l-11.2,2.2a3.8,3.8,0,0,0-2.2,1.7,3.7,3.7,0,0,0-.4,2.9,3.8,3.8,0,0,0,4.6,2.6Z"/><path d="M197.4,22.1l14.4,18.3c1.2,1.6,4,1.4,5.3,0s1.3-3.6,0-5.3L202.7,16.8c-1.2-1.6-4-1.4-5.3,0s-1.3,3.6,0,5.3Z"/><path d="M217.6,18.2a231.6,231.6,0,0,0-6.8,37.9,3.7,3.7,0,0,0,3.7,3.7,3.8,3.8,0,0,0,3.8-3.7,219.9,219.9,0,0,1,6.5-35.9,3.7,3.7,0,0,0-2.6-4.6,3.7,3.7,0,0,0-4.6,2.6Z"/><path d="M254.2,20.3l1,17.7.4,8.7.3,4.2c.1,1.8,0,3.5.8,5.1a3.8,3.8,0,0,0,6.5-3.8l.3,1v-.5c0-.3-.1-.7-.1-1V49.5l-.2-4-.5-8.5-.9-16.7a3.8,3.8,0,0,0-3.8-3.7,3.8,3.8,0,0,0-3.7,3.7Z"/><path d="M257.1,20.5l6.8,9.2,3.4,4.7c1.1,1.5,2.1,3.4,3.8,4.3,4.5,2.5,7.7-3.2,9.8-6.2a82.4,82.4,0,0,0,5.4-9l-6.9-1.9L281.6,50a4,4,0,0,0,3.8,3.8c1.9-.1,3.9-1.7,3.7-3.8l-2.2-28.4a4,4,0,0,0-2.8-3.6,3.8,3.8,0,0,0-4.2,1.7,69.9,69.9,0,0,1-4.2,7.1l-2.2,3.3-1,1.2-.6.9c-.3.3.6-.3-.2.1l1.9-.5a2,2,0,0,1,1.7.8c.1.3.1.2-.2-.2l-.6-.8-1.7-2.2-3.1-4.2-6.1-8.5a4,4,0,0,0-5.2-1.3c-1.6.9-2.5,3.5-1.3,5.1Z"/><path d="M294.8,24.5c-3.1,9.1-1.6,20.1,4.4,27.7a11,11,0,0,0,6.1,4.5,8.8,8.8,0,0,0,8.1-1.9c4-3.2,5.5-8.7,6-13.6s-.5-11.2-1.6-16.7a3.8,3.8,0,0,0-4.6-2.6,3.8,3.8,0,0,0-2.7,4.6,64.1,64.1,0,0,1,1.6,11.3c0,3.7-.5,7.2-2.5,10.2l-.3.4c.4-.4,0,.1-.1.1a6,6,0,0,1-.8.8c.6-.5-.7.3-.3.1h-.4c-.6.2.5,0-.1,0s.5.2-.1,0H307c.5.2-.5-.3-.6-.4s-.1,0,0,0l-.6-.5-.7-.8A21.2,21.2,0,0,1,301,38c0-.2-.1-.4-.1-.6V37c-.1-.5-.1-1.1-.2-1.6s0-2,.1-3v-.8c0-.1.1-.8.1-.5v-.5c0-.3.1-.5.1-.8l.9-3.3a3.7,3.7,0,0,0-2.6-4.6,3.8,3.8,0,0,0-4.6,2.6Z"/><path d="M307.9,12.7l2.5-2.1-.8.6a28.9,28.9,0,0,1,5.8-3.5l-.9.4,2-.7a4.1,4.1,0,0,0,2.2-1.7A3.7,3.7,0,0,0,314.5.2a31,31,0,0,0-11.9,7.2,3.7,3.7,0,1,0,5.3,5.3Z"/><path d="M344.1,17.7c-7.7-.2-19.5,5.2-16.7,14.7,1.1,3.8,4,6.4,6.9,8.9l1.8,1.5.8.8.5.6.6.9c.4.5.2.2.1,0a1.4,1.4,0,0,0,.2.6,1.1,1.1,0,0,0,.1.5s.1.6,0,.2v.4c0,.1-.1.7,0,.4s-.1.1-.1.2a1.4,1.4,0,0,1-.2.6c.2-.5-.3.6-.4.7l-.5.5c-.4.4.4-.3-.1,0s-.7.4-.4.3h-1c.6-.1.1,0-.1,0H335l-1-.2c.1,0,.5.2.1,0l-.8-.5a3.8,3.8,0,0,0-3.8,6.5,10.6,10.6,0,0,0,16-11.8c-1.2-3.7-4-6.2-6.9-8.6a13.7,13.7,0,0,1-1.8-1.6,12.4,12.4,0,0,1-1.6-1.9l-.5-1c.2.5-.2-.6-.2-.7s0,0,0,.1v-.6c.1-.6-.1.5.1-.1s-.3.4,0-.1l.3-.5c-.3.4.2-.2.3-.3l.4-.4c.4-.4,0,0,.3-.2a9.2,9.2,0,0,1,2.7-1.6c-.1,0-.3.1.1-.1l1-.3,1.6-.5a12.4,12.4,0,0,1,2.8-.1,3.9,3.9,0,0,0,3.8-3.8,3.8,3.8,0,0,0-3.8-3.7Z"/><path d="M354.1,21.3,357,51c.2,2,1.6,3.9,3.7,3.8s4-1.7,3.8-3.8l-2.9-29.7c-.2-2-1.6-3.9-3.7-3.8s-4,1.7-3.8,3.8Z"/><path d="M387.9,18a12.4,12.4,0,0,0-11.6,1.9A16.5,16.5,0,0,0,370,30.6c-1.4,8,.7,18.1,8.6,22,4.2,2.1,9.4,2.4,13.4-.3a3.9,3.9,0,0,0,1.4-5.2c-1-1.6-3.5-2.5-5.1-1.3l-1.2.7c.6-.3-.6.1-.8.2s.4,0-.3,0h-1.4c-.5,0-.5,0-.1.1l-.7-.2-1-.3h-.1l-.6-.3-1.2-.8c.5.4-.3-.2-.3-.3a5.7,5.7,0,0,1-1.1-1.1c.3.4-.5-.7-.5-.9l-.6-1c-.2-.4-.2-.4-.1-.1L378,41a8.3,8.3,0,0,1-.4-1.5l-.3-1.1c0-.3-.1-.6-.1-.8v-.2a26.4,26.4,0,0,1-.2-2.8,8.1,8.1,0,0,0,.1-1.6c.1-.4.1-.5.1-.2a1.7,1.7,0,0,1,.1-.7,10.3,10.3,0,0,1,1.8-4.6c.3-.4.3-.4.2-.2l.4-.5.7-.6.9-.6.6-.3c-.3.1-.3.1.1-.1l1.2-.3h.6c.2,0,1.5.2.7,0l1.4.4a3.7,3.7,0,0,0,4.6-2.6,3.8,3.8,0,0,0-2.6-4.6Z"/><path d="M402.7,19.4l-3,22.2c-.5,3.5-2.1,9.3,2.6,10.7a4.5,4.5,0,0,0,5.4-3.1,4.1,4.1,0,0,0-3.9-5.3,3.8,3.8,0,0,0-3.8,3.7,3.9,3.9,0,0,0,3.8,3.8h.1l-1.9-.5h.2l-1.8-2.3,2.1-3.6H405l1.3,1.4c.3.4.1,1.1.2.1l.3-2,.4-3.4,1-7.3,2-14.6a3.8,3.8,0,0,0-3.8-3.8c-2.2.1-3.4,1.7-3.7,3.8Z"/><path d="M407.1,19.7A74.2,74.2,0,0,1,425,50a3.7,3.7,0,0,0,7.2-2,81.9,81.9,0,0,0-19.8-33.6,3.7,3.7,0,0,0-5.3,0,3.8,3.8,0,0,0,0,5.3Z"/><path d="M407.3,43a37.3,37.3,0,0,1,4.6-.9l2.1-.4c.2,0,1.1-.1.4,0l1.3-.2c3-.3,6.1-.5,9.1-.6a3.8,3.8,0,0,0,3.8-3.8,3.8,3.8,0,0,0-3.8-3.7,98.9,98.9,0,0,0-19.5,2.3,3.8,3.8,0,0,0-2.6,4.6,4,4,0,0,0,4.6,2.7Z"/><path d="M.5,87.7a292.6,292.6,0,0,0-.3,29.6A3.9,3.9,0,0,0,4,121.1a3.8,3.8,0,0,0,3.7-3.8A292.6,292.6,0,0,1,8,87.7a3.8,3.8,0,0,0-3.7-3.8A4,4,0,0,0,.5,87.7Z"/><path d="M3.6,91.1a70.8,70.8,0,0,1,9.2,12c1.2,1.9,4.3,2.7,5.9.8a81.3,81.3,0,0,0,9.9-14.8l-7-1.9a110.7,110.7,0,0,0,3.9,34.3,3.7,3.7,0,0,0,4.6,2.6,3.8,3.8,0,0,0,2.6-4.6,103.5,103.5,0,0,1-3.6-32.3c.1-3.7-5.3-5.3-7-1.9a70.9,70.9,0,0,1-8.7,13.3l5.9.7A85.1,85.1,0,0,0,8.9,85.8a3.8,3.8,0,0,0-5.3,0,3.9,3.9,0,0,0,0,5.3Z"/><path d="M36.6,88.8l1.2,21.9a19.9,19.9,0,0,0,.6,5.4A5.6,5.6,0,0,0,43,120a29.3,29.3,0,0,0,11-.8,3.7,3.7,0,1,0-2-7.2l-3.5.6H45.3c-.1,0-1.2-.1-.8,0h0c-.5-.1-.3,0,.5.4s.6.9.5.9-.1-1.8-.1-2.1l-.3-4.7-1-18.4A3.8,3.8,0,0,0,40.4,85a3.9,3.9,0,0,0-3.8,3.8Z"/><path d="M41.7,103.7h9.2a3.8,3.8,0,0,0,2.6-1.1,3.3,3.3,0,0,0,1.1-2.6,3.8,3.8,0,0,0-3.7-3.8H41.7A3.9,3.9,0,0,0,39,97.3a4.4,4.4,0,0,0-1.1,2.7,3.8,3.8,0,0,0,3.8,3.7Z"/><path d="M39.6,91.5H50.9a3.8,3.8,0,0,0,3.7-3.8A3.8,3.8,0,0,0,50.9,84H39.6a3.8,3.8,0,0,0,0,7.5Z"/><path d="M63.6,88.8c.4,7.4.8,14.7,1.3,22,.1,1.9.3,3.7.4,5.5s.5,4.2,2.5,5.3a4.1,4.1,0,0,0,6-2.1,4.1,4.1,0,0,0-3.7-5.7,3.8,3.8,0,0,0-3.7,3.8,3.7,3.7,0,0,0,3.7,3.7h.2l-2.7-1.1h.1l-.9-1.7v-1.8l1.3-1.7,1.9-.5h-.2l1.9.5a2.2,2.2,0,0,1,1.1,1.8v-1c-.1-.6-.1-1.3-.2-1.9s-.1-2.3-.2-3.5-.3-4.8-.5-7.2c-.3-4.8-.6-9.7-.8-14.6a3.8,3.8,0,0,0-3.8-3.7,3.8,3.8,0,0,0-3.7,3.7Z"/><path d="M68.4,92.9l1.3-.3c-.9.2.4,0,.6,0h2c-.5-.1-.5-.1-.1,0l2.6.7.6.3,1.1.7.6.4a3.9,3.9,0,0,1,1,.8,4.6,4.6,0,0,1,.7.7c.1.1,1,1.2.5.5a17.1,17.1,0,0,1,1.3,2.3h0a1.4,1.4,0,0,1,.2.6,5,5,0,0,1,.4,1.3c0,.4.1.4,0,0a2,2,0,0,0,.1.7V103a2,2,0,0,0-.1.7c.1-.4,0-.4,0,0a7.4,7.4,0,0,1-.4,1.4c0,.1-.5,1.4-.2.7l-.4.9-.7,1.2c-.1.1-.9,1.2-.5.6a18,18,0,0,1-1.9,2h0l-.6.4-1.2.7c-.1.1-1.4.7-.6.4l-1.3.4-1.4.3c.9-.1-.6,0-.7,0a3.8,3.8,0,0,0-3.8,3.7,3.9,3.9,0,0,0,3.8,3.8,18.4,18.4,0,0,0,17-13.8C90.2,98.6,86,90.7,79,87.2a17.3,17.3,0,0,0-12.6-1.5,3.7,3.7,0,0,0-2.6,4.6,3.7,3.7,0,0,0,4.6,2.6Z"/><path d="M89.9,89.8a118.2,118.2,0,0,1,5.2,27.5c.2,2,1.7,3.9,3.8,3.8s3.9-1.7,3.7-3.8a123.8,123.8,0,0,0-5.5-29.5,3.9,3.9,0,0,0-4.6-2.6,3.8,3.8,0,0,0-2.6,4.6Z"/><path d="M122.7,87.7a11.5,11.5,0,0,0-11.2,3.6c-2.8,3.2-3.9,7.3-4.2,11.5-.6,7.7,2.7,15.7,10.2,18.7a12.6,12.6,0,0,0,11.6-1.1,3.8,3.8,0,0,0-3.8-6.5l-1.2.7h-.3l-1,.2c.9-.1-.3,0-.5,0s-1.3-.1-.5,0l-1-.2-1-.3c.7.2-.5-.3-.6-.3a5.8,5.8,0,0,1-2.5-2.4,9,9,0,0,1-1.7-4c-.1-.4-.1-.8-.2-1.2s0-.6,0-.7a11.3,11.3,0,0,1,0-2.6,4.9,4.9,0,0,1,.1-1.2v-.2c0-.3.1-.5.1-.8a21.7,21.7,0,0,1,.7-2.4c.1-.4.2-.5.1-.2s.1-.4.2-.5l.8-1.3c-.3.4.4-.4.4-.4s.9-.7.4-.4l1.3-.7.5-.2c.9-.3-.5-.1.4-.1h.8c-.4,0-.4,0,.1.1a3.9,3.9,0,0,0,4.6-2.6c.4-1.9-.6-4.2-2.6-4.6Z"/><path d="M135,88.7a167.7,167.7,0,0,0,2.5,30.8c.3,2,2.8,3.1,4.6,2.6s2.9-2.6,2.6-4.6a162.9,162.9,0,0,1-2.2-28.8,3.8,3.8,0,0,0-7.5,0Z"/><path d="M149.1,89.8a160.7,160.7,0,0,1,1.1,28.6,3.8,3.8,0,0,0,7.5,0,160.7,160.7,0,0,0-1.1-28.6c-.3-2-1.6-3.9-3.8-3.8s-4,1.7-3.7,3.8Z"/><path d="M152.8,93.1A82.5,82.5,0,0,1,170,118.6a3.8,3.8,0,0,0,7-1.9l3.6-26.9c.2-1.9-1.9-3.8-3.8-3.7s-3.4,1.6-3.7,3.7l-3.6,26.9,7-1.9a90.5,90.5,0,0,0-18.4-27,3.7,3.7,0,1,0-5.3,5.3Z"/><path d="M188.1,87.7l-2.2,28.6a3.8,3.8,0,0,0,3.7,3.8,3.9,3.9,0,0,0,3.8-3.8l2.2-28.6a3.7,3.7,0,0,0-3.7-3.7,3.8,3.8,0,0,0-3.8,3.7Z"/><path d="M192.3,90.3a44.9,44.9,0,0,1,7.9,11.9c.4,1.1.6,1.5,1.1,2.7l1.2,3.6.9,3.6.3,1.8c.1.3.1.5.2.8s.1,1.2.1.7c.2,1.9,1.5,3.8,3.7,3.7s4-1.7,3.8-3.7A55.7,55.7,0,0,0,197.6,85a3.8,3.8,0,0,0-5.3,0,3.9,3.9,0,0,0,0,5.3Z"/><path d="M193.8,113.7l12.3-3.9a3.7,3.7,0,0,0,2.6-4.6,3.8,3.8,0,0,0-4.6-2.6l-12.3,3.9a3.7,3.7,0,0,0-2.6,4.6,3.8,3.8,0,0,0,4.6,2.6Z"/><path d="M314.5,83.9c-1.7,8.4-3.2,16.9-4.7,25.3-.3,2.1-.7,4.2-1,6.3s-.8,5.3,1.8,6.9a4.1,4.1,0,0,0,6.1-3.6,4,4,0,0,0-6.7-2.9,3.9,3.9,0,0,0,0,5.3,3.8,3.8,0,0,0,5.3,0h.1l-2.6,1.1h.1l-2.7-1.1h.1l-1-1.6.4-2.4,1.3-1.3h-.1l1.9-.5h-.1l1.8.5-.2-.2,1.4,1.4.2,1.1V118h0v-.5l.3-1.9c.3-1.5.5-2.9.8-4.4s.9-5.6,1.4-8.4c1-5.6,2.1-11.3,3.3-16.9a3.8,3.8,0,0,0-2.7-4.6,3.9,3.9,0,0,0-4.6,2.6Z"/><path d="M315.3,87.9a81.7,81.7,0,0,1,10.5,30.8c.2,2,1.6,3.9,3.8,3.8s4-1.7,3.7-3.8a90.8,90.8,0,0,0-11.5-34.6,3.8,3.8,0,0,0-6.5,3.8Z"/><path d="M312.4,113.2a33.5,33.5,0,0,0,16.3-2.1,4.4,4.4,0,0,0,2.3-1.7,4.1,4.1,0,0,0,.3-2.9c-.5-1.8-2.6-3.4-4.6-2.6l-3.7,1.2-1.9.4-.8.2h-.6c.6,0-.5.1-.6.1h-2.8a25.5,25.5,0,0,1-3.9-.2,3.6,3.6,0,0,0-2.6,1.1,3.5,3.5,0,0,0-1.1,2.7,3.4,3.4,0,0,0,1.1,2.6,4.1,4.1,0,0,0,2.6,1.1Z"/><path d="M355.3,82.5a11.8,11.8,0,0,0-11.5,4.1c-3,3.6-3.9,8.3-3.7,12.9.3,7.9,2.5,17.8,10.6,21.4a12.9,12.9,0,0,0,13.5-1.4c1.6-1.3,1.3-4,0-5.3s-3.7-1.3-5.3,0c.6-.5-.5.2-.7.3l-.6.2c-1,.2.6,0-.4,0h-2l-1-.3c-.4-.2-.4-.2-.1-.1l-.6-.3-.9-.5h-.1l-.5-.4-1-1.1-.4-.5a10,10,0,0,0-.8-1.4,11.7,11.7,0,0,1-.8-2.1,24.5,24.5,0,0,1-.8-2.9,42.4,42.4,0,0,1-.6-5.4c0-1,0-2,.1-3.1v-.2c0-.3.1-.6.1-.9a7.4,7.4,0,0,1,.4-1.4,6.5,6.5,0,0,1,1.1-2.2c-.4.6.2-.2.3-.3s1.1-1,.6-.7l1.2-.7c.6-.4-.3,0,.4-.2h1.5c1.9.4,4.2-.6,4.6-2.6a3.7,3.7,0,0,0-2.6-4.6Z"/><path d="M365.2,87.1a36.7,36.7,0,0,0,5.6,26.6c1.5,2.2,3.2,4.4,5.8,5.3a7.6,7.6,0,0,0,7.5-1.5c3.5-2.9,5-8,5.9-12.4a41.1,41.1,0,0,0-.3-17.1,3.7,3.7,0,0,0-7.2,2,32.6,32.6,0,0,1,.5,11.3c0,.4-.2,1.5-.3,2.3s-.5,1.9-.8,2.8-.6,1.8-.9,2.7-.3.7-.1.3-.1.2-.1.2a8.3,8.3,0,0,0-.7,1.3l-.3.4-.4.3-.3.3H379s.5-.3.1-.1h.1c-.1,0-.5-.3-.3-.1l-.2-.2-.4-.4-.4-.5c0,.1.2.3,0,0l-1-1.4a28.5,28.5,0,0,1-4-9.3,24.3,24.3,0,0,1-.8-5.3V91.7c.1-.5.1-1,.2-1.6v-.6c.1-.7-.1.9.1-.4s-.5-4.1-2.6-4.6-4.3.5-4.6,2.6Z"/><path d="M414.5,81.3c-4.7-.4-9.8.2-13.5,3.5s-5,8.7-2.5,12.8a12.5,12.5,0,0,0,5.1,4.3L406,103l1.3.6.6.4h.1l.8.8c-.4-.5.3.4.4.6s.6,1.3.3.6a8.3,8.3,0,0,1,.4,1.5c.1.1.2.8.1.3v1.5h0c0,.3-.1.5-.1.7s-.1.4-.2.6.1-.2-.1.2-.8,1.3-.4.8a9.4,9.4,0,0,1-1,1c-.4.4.5-.3,0,0l-.7.5-.6.3c-.6.4.2,0-.2.1l-1.4.4h-1.6l-1.6-.5a3.8,3.8,0,0,0-4.6,2.6,3.7,3.7,0,0,0,2.6,4.6,13.1,13.1,0,0,0,12.1-1.8,12.5,12.5,0,0,0,5.3-11.5,13.7,13.7,0,0,0-7.2-10.7l-2.6-1.2-1.1-.5-.6-.3c-.1-.1-.9-.7-.4-.2l-.5-.5h0l-.3-.6s.2.5.1.1-.2-.8-.1-.3v-.3c0-.1.1-.8,0-.3s.1-.4.1-.5a1.4,1.4,0,0,0,.2-.6c-.2.6.1-.1.2-.2l.3-.6c.3-.3-.3.3.2-.1l.5-.5c-.5.5.3-.2.4-.3l.7-.3h.2c2.2-.9,4.2-.8,6.9-.6a3.8,3.8,0,1,0,0-7.5Z"/><path d="M232.1,88.8a209.9,209.9,0,0,0,.6,25.1c.4,4,.1,9.7,4.9,11,2,.6,4.3.4,6.3.4s4.2-.2,6.2-.5a3.8,3.8,0,0,0,3.7-3.8c0-1.8-1.6-4-3.7-3.7a49,49,0,0,1-5.4.4H242a10.3,10.3,0,0,0-2.5-.1h.4a1.9,1.9,0,0,1,.8,1v-.4h0c0-.2-.1-.5-.1-.7s-.1-1-.2-1.5-.3-3.6-.4-5.4a203.3,203.3,0,0,1-.4-22.1,3.8,3.8,0,0,0-3.7-3.7,3.8,3.8,0,0,0-3.8,3.7Z"/><path d="M236.8,106.6a17.8,17.8,0,0,0,10.2-.9,2.3,2.3,0,0,0,1.2-.6,3.5,3.5,0,0,0,1-1.1,3.7,3.7,0,0,0,.4-2.9,3.8,3.8,0,0,0-1.7-2.2,3.4,3.4,0,0,0-2.9-.4,15.6,15.6,0,0,1-3.7,1h-2.5a4.1,4.1,0,0,0-2.9.3,3.9,3.9,0,0,0-1.7,2.3,3.7,3.7,0,0,0,.3,2.9,3.6,3.6,0,0,0,2.3,1.7Z"/><path d="M236.7,92.5H248a3.8,3.8,0,0,0,0-7.5H236.7a3.8,3.8,0,0,0,0,7.5Z"/><path d="M258.5,88.7v22.2c.1,1.9.1,3.7.1,5.5s0,3.9,1.3,5.5a4.6,4.6,0,0,0,6.4.7,4.4,4.4,0,0,0,.6-6.5,3.7,3.7,0,0,0-5.3,0,3.8,3.8,0,0,0,0,5.3h.1l-.9-1.6v-1.8l3.3-1.9,1.7.9c.3.3.2,1.4.3.6a13.3,13.3,0,0,0,0-2c0-1.3,0-2.7-.1-4v-23a3.8,3.8,0,0,0-7.5,0Z"/><path d="M259.5,92.4a192.4,192.4,0,0,1,16,28.8c.6,1.5,2.7,2.1,4.2,1.7a3.7,3.7,0,0,0,2.7-3.6,208.2,208.2,0,0,0,.9-31.6c-.2-1.9-1.7-3.8-3.8-3.7s-3.9,1.6-3.7,3.7a208.2,208.2,0,0,1-.9,31.6l7-1.9a188.5,188.5,0,0,0-16-28.8,3.7,3.7,0,0,0-6.4,3.8Z"/><path d="M432.7,88.7v23.1c0,3.6-1,9.9,4,10.6a4.2,4.2,0,0,0,4.8-4.2,4,4,0,0,0-5.1-4,3.8,3.8,0,0,0-2.6,4.6,3.7,3.7,0,0,0,4.6,2.6h-1.7l-2.3-1.7,1.1-4.2,1.9-.5h-.2l1.9.5a2.2,2.2,0,0,1,1.1,1.8V88.7a3.8,3.8,0,0,0-7.5,0Z"/><path d="M426.2,89.5l17.4,2.1c1.9.2,3.8-1.9,3.7-3.8a3.8,3.8,0,0,0-3.7-3.7L426.2,82c-1.9-.2-3.8,1.9-3.7,3.8a3.8,3.8,0,0,0,3.7,3.7Z"/><path d="M454.2,85.7a139.9,139.9,0,0,0,2.6,35.4,3.8,3.8,0,0,0,3.6,2.8,4.1,4.1,0,0,0,3.7-2.8l.6-1.7a3.7,3.7,0,0,0-2.6-4.6,3.8,3.8,0,0,0-4.6,2.6l-.7,1.7h7.3a128.8,128.8,0,0,1-2.4-33.4,3.8,3.8,0,1,0-7.5,0Z"/><path d="M486.6,82.7c-8.1-.6-13.2,7.6-14.8,14.4-1.9,8.4-1.6,18.5,5.3,24.6a15.9,15.9,0,0,0,13.5,4,3.8,3.8,0,0,0,2.6-4.6,3.9,3.9,0,0,0-4.6-2.7c-.4.1-.5.1-.1.1H487l-1.3-.3-.8-.3A10.2,10.2,0,0,1,481,115c-.3-.4-.3-.4-.1-.2l-.4-.6a7.5,7.5,0,0,1-.7-1.2,9.5,9.5,0,0,1-1-2.7,19.5,19.5,0,0,1-.5-6,23.3,23.3,0,0,1,.9-5.8,11.4,11.4,0,0,1,.9-2.6c.1-.4.1-.5,0-.1l.3-.6a5.4,5.4,0,0,1,.5-1.1l.6-1c.1-.1,1-1.2.4-.6l.9-.9.5-.4,1-.7c.4-.2.4-.2-.1,0l.6-.2h.5a5.6,5.6,0,0,1,1.3,0,3.8,3.8,0,0,0,3.7-3.8,3.8,3.8,0,0,0-3.7-3.7Z"/><path d="M502.9,85.2a31.5,31.5,0,0,0-6,19.7,30,30,0,0,0,1.8,10.2c1.2,3.3,2.8,7,5.5,9.5a9.8,9.8,0,0,0,11.6,1,17.1,17.1,0,0,0,6.8-8.4,26.5,26.5,0,0,0,.7-18c-2.1-6.5-6.5-12.5-12.8-15.5a3.8,3.8,0,0,0-5.1,1.3,3.7,3.7,0,0,0,1.3,5.1l3,1.8c.9.6-.5-.5.3.2l.7.6,1.3,1.4.6.7s.7.8.3.4.3.4.3.4l.5.7a22.1,22.1,0,0,1,1.8,3.4c-.3-.7,0,0,.1.2l.3.7c.2.6.3,1.2.5,1.8s.3,1.1.4,1.6.1.6.1.9,0,.1,0,.3a13.7,13.7,0,0,1,.1,3.5,3.8,3.8,0,0,1-.1,1c0,.1-.1,1.1,0,.2a12.9,12.9,0,0,1-.4,1.9l-.4,1.6-.3.8c-.4,1,.3-.7-.1.3s-.5.9-.8,1.4a2.2,2.2,0,0,1-.5.8l-.4.7c.2-.3.1-.3-.2.1a5.8,5.8,0,0,1-1.4,1.3l-.4.3c-.1,0-1.1.5-.4.3l-.7.2c-.8.2.4.2-.4,0s.4.4-.4,0,.1.2-.5-.3.4.6-.3-.3l-.8-.8c.4.5-.3-.5-.3-.5a2.1,2.1,0,0,0-.4-.6l-1-2a1.6,1.6,0,0,1-.4-.7c-.1-.4-.2-.4,0-.1l-.3-.7a29.1,29.1,0,0,1-1.2-3.9l-.3-1.9c-.2-1.2,0,.7-.1-.5s-.1-1-.1-1.5a22.6,22.6,0,0,1,.1-4.5s.1-1.3,0-.5l.3-1.5a22.5,22.5,0,0,1,.5-2.2c.2-.7.5-1.5.8-2.3l.3-.8.4-.9a34.5,34.5,0,0,1,2.5-4.1c1.2-1.7.3-4.2-1.3-5.2s-3.9-.3-5.1,1.4Z"/><path d="M380.8,79l6.9-7.3a3.9,3.9,0,0,0,1.1-2.7,3.6,3.6,0,0,0-1.1-2.6,3.3,3.3,0,0,0-2.6-1.1,3.9,3.9,0,0,0-2.7,1.1l-6.9,7.3a3.9,3.9,0,0,0-1.1,2.7,3.6,3.6,0,0,0,1.1,2.6,3.3,3.3,0,0,0,2.6,1.1,3.5,3.5,0,0,0,2.7-1.1Z"/></svg>