<svg xmlns="http://www.w3.org/2000/svg" viewBox="0 0 208.5 99.4"><path d="M1.1,7.5.3,36.1a3.9,3.9,0,0,0,3.8,3.8,3.9,3.9,0,0,0,3.7-3.8L8.6,7.5A3.8,3.8,0,0,0,4.9,3.8,3.8,3.8,0,0,0,1.1,7.5Z"/><path d="M6.4,9.1c.1-.2.9-.8.4-.4l.3-.2.8-.4.3-.2H7.9l1.6-.4h1.8L13,8c.3.1.5.3.8.3s-.3-.1.1.1l1.5.9-.3-.2.3.3.6.6c.2.2.5.9,0-.1l.6.9.3.6c.2.4,0,.4-.1-.3v.4a2.4,2.4,0,0,1,.2.8c.1.1.1.4.1.5s-.1-.8,0-.3v1.1s-.1.3,0,.4.1-.7,0-.2-.1.6-.2.9-.1.3-.2.4-.3.9,0,.3l-.3.5-.5.9-.3.3c-.2.4-.2,0,.2-.2a7.3,7.3,0,0,0-.8.9l-.7.7c-.1.1-.5.3-.1.1s-.1.1-.2.2l-.9.5-.4.2-.4.2.5-.2-1.1.3H11c-.3.1-.1,0,.5,0a3.4,3.4,0,0,0-1,0H9.9c-.7,0,.9.1.1,0s-4.1.5-4.6,2.6.5,4.3,2.6,4.6A13.6,13.6,0,0,0,19.4,24a14.8,14.8,0,0,0,5.3-10,12.5,12.5,0,0,0-3.8-9.8,15.7,15.7,0,0,0-9.4-4A12.9,12.9,0,0,0,1.1,3.8a3.8,3.8,0,0,0,0,5.3,3.9,3.9,0,0,0,5.3,0Z"/><path d="M34.8,5.5,33.5,38.2a3.8,3.8,0,0,0,3.7,3.7A3.8,3.8,0,0,0,41,38.2L42.3,5.5a3.8,3.8,0,0,0-3.7-3.8,3.9,3.9,0,0,0-3.8,3.8Z"/><path d="M53.2,8.6V40.9a3.8,3.8,0,0,0,3.7,3.8,3.9,3.9,0,0,0,3.8-3.8V38.2a3.8,3.8,0,0,0-3.8-3.8,3.8,3.8,0,0,0-3.7,3.8v2.7a3.8,3.8,0,0,0,3.7,3.8,3.9,3.9,0,0,0,3.8-3.8V8.6a3.8,3.8,0,0,0-3.8-3.8,3.8,3.8,0,0,0-3.7,3.8Z"/><path d="M55.5,11l16,28a3.7,3.7,0,0,0,3.7,1.8,3.8,3.8,0,0,0,3.1-2.7A143.2,143.2,0,0,0,80.1,9.6a3.9,3.9,0,0,0-3.8-3.8,3.8,3.8,0,0,0-3.7,3.8,137.8,137.8,0,0,1-1.5,26.5l6.8-.9L62,7.2a3.8,3.8,0,0,0-5.1-1.3A3.7,3.7,0,0,0,55.5,11Z"/><path d="M95,7.5c.7,10.8-1,21.6,1.2,32.2a3.7,3.7,0,0,0,7.2-2c-2-9.7-.3-20.1-.9-30.2a3.8,3.8,0,0,0-3.7-3.7c-1.9.1-3.9,1.6-3.8,3.7Z"/><path d="M88.6,10.3h23.5a3.8,3.8,0,0,0,3.7-3.8,3.8,3.8,0,0,0-3.7-3.7H88.6a3.8,3.8,0,0,0-3.8,3.7,3.9,3.9,0,0,0,3.8,3.8Z"/><path d="M123.6,10.6a19.2,19.2,0,0,1,.3,6.4c-.2,2.2-.5,4.4-.5,6.6-.1,4.5.8,9.3,4,12.7a11.6,11.6,0,0,0,11.2,3.2,9,9,0,0,0,5.1-3.9,13.5,13.5,0,0,0,1.6-7.1c.2-5.6.2-11.3.1-16.9a3.8,3.8,0,0,0-3.7-3.7,3.8,3.8,0,0,0-3.8,3.7q.2,6.5,0,12.9v3.1c0,.4-.1.9-.1,1.3v.6c0,.1-.1,1-.1.7s0,.3,0,.3-.1.4-.2.6a4.3,4.3,0,0,1-.1.5c.1-.2.2-.3-.2.2s.1-.3-.2.2-.4.4-.1.1l-.3.2c.5-.4.2-.1-.2,0s-.7,0-.1,0h-1.1c-.4.1.2.1.3.1l-.6-.2-.8-.2-.5-.3-.3-.2-.8-.7h0a2.1,2.1,0,0,0-.4-.6,4.7,4.7,0,0,0-.5-1c.2.5-.1-.4-.1-.5a8.3,8.3,0,0,1-.4-1.5c0-.1-.1-1.1-.1-.5s-.1-.9-.1-1.3V22.7c.3-4.8,1.1-9.4,0-14.1A3.8,3.8,0,0,0,126.3,6a3.9,3.9,0,0,0-2.7,4.6Z"/><path d="M152.3,5.5c-.2,10.2-.1,20.4.3,30.7a3.7,3.7,0,0,0,7.3,1l1-3a3.7,3.7,0,1,0-7.2-2l-1,3,7.4,1c-.4-10.3-.5-20.5-.3-30.7a3.8,3.8,0,1,0-7.5,0Z"/><path d="M159.9,8.8c-.5.7.2-.1.3-.3l.3-.3c-.3.3-.3.3,0,.1l.8-.5c-.5.3,0,0,.3-.1l.9-.2c-.9.2,0,0,.2,0h1.4l1,.3h.3c.1.1.9.7.2.2l.8.7h0l.3.4.5.9V10a1.9,1.9,0,0,1,.2.7l.3,1c.2.9,0-.7,0,.3v1c0,.3-.1,1,0,.4l-.3,1.1c0,.2-.1.3-.1.5s.1-.4-.1,0a4.1,4.1,0,0,1-.5.9c-.4.8.4-.3-.2.4l-.8.8a9,9,0,0,1-2.9,1.6l-1.1.2c-1,.3.7,0-.4.1a10.5,10.5,0,0,1-2.5-.1c-2.7-.3-4.9,3.5-3.2,5.7a50.7,50.7,0,0,0,17,14.6,3.9,3.9,0,0,0,5.2-1.3,3.7,3.7,0,0,0-1.4-5.1,50.4,50.4,0,0,1-7.8-5.2,46.6,46.6,0,0,1-6.6-6.8l-3.2,5.6c7,.9,14.8-3.8,16.1-11a13.3,13.3,0,0,0-1.9-10.3A12.1,12.1,0,0,0,163.5,0a11.7,11.7,0,0,0-10.1,5.1c-1.2,1.6-.3,4.1,1.3,5.1a3.9,3.9,0,0,0,5.2-1.4Z"/><path d="M186.9,4.5l-5.1,31.6c-.3,1.9.5,4.1,2.6,4.6s4.3-.5,4.6-2.6l5.1-31.6c.3-2-.5-4.2-2.6-4.7s-4.3.6-4.6,2.7Z"/><path d="M187.9,9.3l.8.4.3.2c-.3-.2.4.4.4.4l.5.5h.1l.5.7.9,1.4,1.4,3c-.2-.4,0,.1.1.2a6.1,6.1,0,0,0,.5,1.2l.8,2,6.9,16.4c.8,1.9,2.5,3.2,4.6,2.6s3.4-2.7,2.6-4.6l-7.4-17.7c-2.1-5-4.1-10.7-9.2-13.3a4,4,0,0,0-5.2,1.3,4,4,0,0,0,1.4,5.2Z"/><path d="M188.7,33.5a28.2,28.2,0,0,0,8.7.1,28.5,28.5,0,0,0,7.5-2.4,3.7,3.7,0,0,0,1.3-5.1,3.8,3.8,0,0,0-5.1-1.4,2.5,2.5,0,0,0-.9.4h.1l-1.7.6-3.3.7,1-.2a20.8,20.8,0,0,1-6.1,0l1,.2h-.5a4.2,4.2,0,0,0-2.9.4,3.4,3.4,0,0,0-1.7,2.2,3.6,3.6,0,0,0,.4,2.9,3.4,3.4,0,0,0,2.2,1.7Z"/><path d="M69,67.1l2.3,16.4c.7,4.9,1.6,10.1,5.7,13.4s10,3.7,13.9-.3,3.8-7.8,4.2-12.1A95.3,95.3,0,0,0,94.8,66,3.8,3.8,0,0,0,91,62.3c-1.8.1-3.9,1.7-3.7,3.7a110.9,110.9,0,0,1,.6,14.1c-.1,1.2-.2,2.3-.2,3.4s-.1,1.2-.2,1.7a1.5,1.5,0,0,1-.1.7c0,1,.1-.4,0,.2a17,17,0,0,1-.4,2.2,4.9,4.9,0,0,1-.4,1.1,1.4,1.4,0,0,1-.2.6c.1-.3.2-.3,0,0l-.6,1,.2-.2-.4.5-.5.4h.2l-.4.2c-.6.4.2,0-.1.1H83.5c-.1-.1-1.2-.5-.7-.2l-.8-.5a6.1,6.1,0,0,1-2.4-3.9c-.5-2-.8-4.1-1.1-6.1L76.3,65.1c-.3-2-2.9-3.1-4.6-2.6s-2.9,2.6-2.7,4.6Z"/><path d="M104,64.5a111.9,111.9,0,0,0,1.2,21.6c.2,1.7.6,3.5.9,5.2s1.4,4.1,3.6,4.6a4.1,4.1,0,0,0,5-4.5,4,4,0,0,0-5.9-3,3.8,3.8,0,1,0,3.8,6.5H109l-1.3-1.4-.3-.6v-2l.3-.6,2.2-1.7h1.6l1.6,1c.5,1,.6,1.3.4.7a3,3,0,0,0-.2-1,6.8,6.8,0,0,1-.2-1.4c-.3-1.1-.4-2.2-.6-3.3s-.6-4.2-.8-6.4a125.3,125.3,0,0,1-.2-13.7,3.6,3.6,0,0,0-3.7-3.7,3.9,3.9,0,0,0-3.8,3.7Z"/><path d="M110.6,67.8a13.2,13.2,0,0,1,7.8-1,6.6,6.6,0,0,1,2.4,1.4l.3.3.6.8c.3.6,0-.1.1.3s.2,1,.2.6-.1.4-.1.5l-.2.7c.2-.4-.1.4-.2.5l-.7,1.1c-.2.4.2-.2-.2.3l-.7.8-1.4,1.2a7.6,7.6,0,0,1-1.5,1l-1,.5-.4.2h.1l-2.1.6-1.1.2H112c-1.6.2-3.3,1.1-3.6,2.8a3.7,3.7,0,0,0,1.7,4.2l18.1,9.9a3.8,3.8,0,0,0,3.8-6.5l-18.1-9.8L112,85.3a20.6,20.6,0,0,0,11.8-4.6c3.5-2.9,6.3-7.4,5.4-12.2s-4.4-7.4-8.3-8.8-9.7-.3-14.1,1.6c-1.8.8-2.3,3.5-1.3,5.1s3.2,2.2,5.1,1.4Z"/><path d="M142.8,62.7l-4.9,24.4c-.4,1.9-.8,3.8-1.1,5.7s.9,6,4.2,6a4.1,4.1,0,0,0,3.9-5.3c-.9-3.3-5.6-4-7.2-.9a3.8,3.8,0,0,0,1.3,5.1,3.9,3.9,0,0,0,5.2-1.4h0L142,97.9h.1l-2.9-.4h.1l-1.4-1.3-.2-2.3.9-1.7h-.1l2.7-1.1h.6l1.6,1a1.9,1.9,0,0,1,.6,2.2l.2-1,.4-1.9.8-4,1.5-7.5L150,64.7a3.9,3.9,0,0,0-2.6-4.7c-1.9-.4-4.2.6-4.6,2.7Z"/><path d="M144.1,67.2a151.4,151.4,0,0,1,11.8,28.5,3.9,3.9,0,0,0,4.6,2.6,3.8,3.8,0,0,0,2.6-4.6,157.2,157.2,0,0,0-12.5-30.3,3.8,3.8,0,0,0-5.1-1.4,4,4,0,0,0-1.4,5.2Z"/><path d="M145.3,92.7l13.2-2a4.4,4.4,0,0,0,2.3-1.7,4.1,4.1,0,0,0,.3-2.9,3.9,3.9,0,0,0-1.7-2.3,4.7,4.7,0,0,0-2.9-.4l-13.2,2a4.1,4.1,0,0,0-2.3,1.8,3.9,3.9,0,0,0-.3,2.8,3.6,3.6,0,0,0,1.7,2.3,4.7,4.7,0,0,0,2.9.4Z"/><path d="M167.9,62.7a179.1,179.1,0,0,0,.6,27.4c.2,2.1.3,4.2,1.4,6.1a7,7,0,0,0,6.6,2.8l13.9-1.6c1.5-.2,3.1-.1,4.5-.9a4.2,4.2,0,0,0,2.2-4.7,4,4,0,0,0-3.9-3,4.2,4.2,0,0,0-4,2.9,3.7,3.7,0,0,0,1,3.7h0a3.9,3.9,0,0,0,5.3,0,3.7,3.7,0,0,0,0-5.3h0l.9,3.6h.1l-1.8,2.3-1.4.4-1.9-.5h.2l-1.8-2.2h.1V92l1-1.7c.7-.7,1.6-.6.3-.5l-1.7.2-3,.3-6.4.8-3.5.4h-1.2l.7.3.4.6a1.4,1.4,0,0,1-.2-.6c-.1-.2-.2-1.1-.1-.3l-.3-3.1a200.4,200.4,0,0,1-.4-25.7,3.8,3.8,0,0,0-7.5,0Z"/><path d="M28.1,58.9a236.8,236.8,0,0,0-.8,36.7,3.8,3.8,0,0,0,3.8,3.7,3.6,3.6,0,0,0,3.7-3.7,236.8,236.8,0,0,1,.8-36.7c.2-2-1.9-3.8-3.8-3.8a3.8,3.8,0,0,0-3.7,3.8Z"/><path d="M29.1,60.8,40.6,80.6a3.8,3.8,0,0,0,6.5,0A136.9,136.9,0,0,1,59.5,62.9l-6.4-2.7c1,11,2.1,22.1,3.1,33.1.2,1.9,1.6,3.8,3.7,3.7s4-1.6,3.8-3.7c-1-11-2.1-22.1-3.1-33.1a3.8,3.8,0,0,0-6.4-2.6A144.6,144.6,0,0,0,40.6,76.8h6.5L35.6,57a3.8,3.8,0,0,0-5.1-1.4,3.9,3.9,0,0,0-1.4,5.2Z"/></svg>