<svg xmlns="http://www.w3.org/2000/svg" viewBox="0 0 512 320.5"><path d="M131.6,125.1a6.4,6.4,0,0,0,7.7-4.3c3.9-11.1,7.5-22.3,10.6-33.6a42.5,42.5,0,0,1,4.6,2.7l1.8,1.3h.1l.8.6,3.4,3.1c1.1,1.1,2.2,2.3,3.2,3.5l.8.9c.4.7.9,1.3,1.3,1.9a46.2,46.2,0,0,1,4.5,8.1h.1c.2.5.3.9.5,1.3a18.3,18.3,0,0,1,.8,2.5,44.2,44.2,0,0,1,1.4,5.2c.6,3.2,4.6,5.3,7.6,4.3a6.4,6.4,0,0,0,3.8-2.8,7.5,7.5,0,0,0,.6-4.9c-3.5-25.7-9.9-50.9-16.4-76-1.7-6.5-3.2-13.6-8.5-18.3a6.3,6.3,0,0,0-6.8-1.3c-2.5,1.1-3.5,3.2-3.8,5.7-.1.4-.1.8-.2,1.2h0v.3c0,.2-.1.3-.1.4s-.1,1.2-.2,1.7-.5,3.1-.7,4.7L147,42.7c-1.1,6.2-2.3,12.3-3.6,18.4-2.6,12.2-5.8,24.3-9.5,36.2-2.1,6.8-4.3,13.5-6.7,20.2C126.1,120.5,128.5,124.4,131.6,125.1Zm30.6-45a48.5,48.5,0,0,0-9.1-5.2c2-8.6,3.8-17.1,5.4-25.8.9,3.7,1.9,7.4,2.8,11,2,7.9,3.9,15.9,5.6,23.8Z"/><path d="M149.5,26.4c-.2.6-.2.8-.1.7a1.7,1.7,0,0,1,.1-.7Z"/><path d="M202.6,114c.1,3.3,2.9,6.5,6.3,6.3a6.3,6.3,0,0,0,6.2-6.3l-.4-31.1,3,1.6a101.8,101.8,0,0,1,9.8,6.3l1,.7c.1.1.2.1.2.2h.1l.2.2a.1.1,0,0,1-.1-.1l2.1,1.7,4.3,3.8a105.9,105.9,0,0,1,7.9,8.5,13.4,13.4,0,0,0,1.1,1.4h.1v.2l1.9,2.5,3.6,5.6c1.7,2.8,5.7,4.1,8.5,2.3a6.4,6.4,0,0,0,2.3-8.6A100.4,100.4,0,0,0,228,76a53,53,0,0,0,6.5-2.8,41.5,41.5,0,0,0,10.1-6.5,19.7,19.7,0,0,0,6.1-11.5,62.1,62.1,0,0,0,.2-12.2,36.8,36.8,0,0,0-3-13c-3.3-7.3-10.8-12.2-18.5-13.7a47.7,47.7,0,0,0-16,.1,21.1,21.1,0,0,0-7,1.7,6.3,6.3,0,0,0-5.2,6.1q.6,35,1.1,69.9Zm14.1-85.6h.3l1.9-.2h6.4l2.3.4,1.8.6,1,.4a7,7,0,0,1,1.7.9l1.7,1.1h.1l.8.8c.2.2.4.3.5.5h.1a7.8,7.8,0,0,0,1,1.5l.6,1.1h.1a27.5,27.5,0,0,1,1.1,4.1v.5c.1,0,.1.1.1.6h0a.1.1,0,0,1,.1.1h0a22.8,22.8,0,0,0,.2,2.6c0,1.4.1,2.9.1,4.4s.2,4.8-.2,4.9l.2-.9c-.1.3-.1.6-.2.9a3.1,3.1,0,0,1-.2.8l-.3,1.2h-.1c0,.2-.6,1-.8,1.5a.2.2,0,0,0-.2.2l-.9.8-.9.8h0l-1.7,1.2a47.9,47.9,0,0,1-4.5,2.5l-2.4,1.1-.7.3-.6.3-5.3,1.8L214.5,67h-.1l-.3-22.8-.3-15.3h.6Z"/><path d="M228.6,91.6h-.1l.4.3h-.3Z"/><path d="M238.3,41.3h-.1a2,2,0,0,0-.1-.7A1.9,1.9,0,0,0,238.3,41.3Z"/><path d="M258.9,29.8c7.7-.4,15.5-1,23.2-1.6-.1,19,.4,38,1.6,56.9q.4,8.9,1.2,17.7c.3,3.2,2.7,6.4,6.3,6.2s6.5-2.7,6.2-6.2c-1.6-20.6-2.6-41.3-2.7-62-.1-4.5-.1-9.1,0-13.6,7.8-.7,15.7-1.5,23.5-2.4a6.5,6.5,0,0,0,4.4-1.8,6.8,6.8,0,0,0,1.9-4.4c-.2-3.1-2.8-6.7-6.3-6.3-19.7,2.3-39.5,3.9-59.3,5-3.3.2-6.4,2.8-6.3,6.3S255.4,30,258.9,29.8Z"/><path d="M390.7,105.4a6.3,6.3,0,0,0-6.2-6.3c-12.7-.1-25.3-.4-38-.9-.7-9.8-1.2-19.5-1.6-29.3a107.4,107.4,0,0,0,31.4,3.5,6.4,6.4,0,0,0,6.3-6.3c-.2-3.2-2.8-6.4-6.3-6.2s-5.7.1-8.5,0l-4.3-.3-2.3-.2h-3.1l-2.1-.4-4.1-.8-7.5-2-.3-15v-12c12.1.5,24.3.8,36.4.9a6.3,6.3,0,0,0,0-12.5c-14.3-.1-28.6-.5-42.9-1.1a6.2,6.2,0,0,0-6.2,6.2,5.7,5.7,0,0,0,.3,1.8c-.2,20.3.2,40.7,1.5,61q.4,8.9,1.2,17.7a8.5,8.5,0,0,0,1.5,4,6.5,6.5,0,0,0,5.7,3.7c14.3.6,28.6,1,42.9,1.1C387.7,111.6,390.9,108.7,390.7,105.4Z"/><path d="M51.8,243.6l.3.6-.3-.6Z"/><path d="M49.6,235.5c.1.5.3.8-.1-.4h0C49.5,235.3,49.6,235.4,49.6,235.5Z"/><path d="M98.3,177.2c-15.4-4.3-31.5,2.5-42.7,13s-18.9,25.5-18.8,40.9,7.4,29.4,20,37.1a31.5,31.5,0,0,0,12.9,4.4,22.8,22.8,0,0,0,12.6-2.7,23.6,23.6,0,0,0,4.4-3.2l.3,2.8.6,7.2.3,3.4a33.5,33.5,0,0,0,.6,4.7c1.4,5.2,7.7,7.5,11.7,3.6a6.9,6.9,0,0,0,1.4-7.5,5.9,5.9,0,0,0-1.3-1.9,17.9,17.9,0,0,0-.2-2.3l-.6-6.9-1.2-14.5-.6-9.5a70.2,70.2,0,0,0,1.3-8,36.7,36.7,0,0,0-.3-12.8c-1.9-8.2-9-15.3-17.8-15.3a14.9,14.9,0,0,0-6.6,1.6,6.3,6.3,0,0,0-2.9,3.7,6.6,6.6,0,0,0,.6,4.8c2,3.1,5.4,3.7,8.6,2.3-1.6.7-.4.3.3.1h.7l.6.2h.3l.3.2.4.2.7.4.7.8a4.5,4.5,0,0,0-.4,2.3c.2,6.1.6,12.3,1,18.4a44.2,44.2,0,0,1-1.5,4.8l-.3.7v.2a17.4,17.4,0,0,1-1.4,2.7,18.8,18.8,0,0,1-1.2,1.8h0l-.6.7-1.5,1.5-.9.7-.3.2a11.8,11.8,0,0,1-1.9,1.1l-.7.4c.1-.1.2-.1.2-.2h-.1l-2.1.5H70.1a22.7,22.7,0,0,1-2.5-.6l-1.2-.4h-.2L64,257.9l-1.9-1.2-.9-.6h-.1l-.5-.5c-.8-.8-1.8-1.5-2.6-2.4l-1.5-1.6-.4-.5a20.3,20.3,0,0,0-1.3-1.8c-.4-.7-.9-1.4-1.3-2.2s-.9-1.9-1.4-2.9l-.3-.6h0l-.4-1c-.3-.8-.5-1.6-.8-2.3a31.5,31.5,0,0,1-.9-4.2,1.3,1.3,0,0,1-.1-.6c0-.1-.1-.2-.1-.3h0V235h0c-.1-.7-.1-1.4-.2-2.1s0-3.1.1-4.7a15,15,0,0,1,.2-2h0a7.7,7.7,0,0,1,.2-1.5c.3-1.4.6-2.9,1-4.3l.8-2.3a20,20,0,0,0,1-2.6h0l.3-.7,1.1-2.2a29.1,29.1,0,0,1,2.5-4.2,13.7,13.7,0,0,1,1.3-2l.7-1,.3-.3q.6-.9-.3.3c.1-.5,1.3-1.6,1.6-1.9l1.6-1.8c1.2-1.3,2.4-2.5,3.7-3.7l2.2-1.8h0l1.3-.9c1.4-1,2.9-1.9,4.4-2.8l2.5-1.2,1.1-.5h0a31.6,31.6,0,0,1,5.2-1.7l2.3-.5.9-.2h.5a29,29,0,0,1,5.1-.1h1.4l2.7.6a6.3,6.3,0,0,0,7.7-4.3A6.4,6.4,0,0,0,98.3,177.2Zm-17.4,45c-1,.2-.6,0,0,0ZM56,250.9h-.2C55.3,250.2,55.7,250.6,56,250.9Z"/><path d="M82.2,222.4l.6.3-.5-.3Z"/><path d="M81.4,222.2h0Z"/><path d="M75,259.5c.5-.2,1-.6,0,0Z"/><path d="M61.2,256.1h0l-.6-.5a1.2,1.2,0,0,1,.5.5Z"/><path d="M261.1,293.3c-9.4,1.1-18.8,2-28.2,2.3-4.7.2-9.4.2-14,0l-7.1-.5-3.2-.3h-.9c0-.1-.1-.1-.3-.2h-1.3a103.6,103.6,0,0,1-13.4-3c-2.2-.6-4.4-1.4-6.5-2.2l-1.4-.5-.5-.2-3.2-1.5a81.8,81.8,0,0,1-12.4-7.5l-2.7-2-.5-.4L164,276l-5.7-4.7L141,255.5a42.6,42.6,0,0,0,24.3-25.4,34.8,34.8,0,0,0-.2-23.8,42.4,42.4,0,0,0-15.4-19.8c-7.3-5.2-16.7-8.1-25.6-7.1a7.2,7.2,0,0,0-4.4,1.8,6.2,6.2,0,0,0-1.8,4.4,5.1,5.1,0,0,0,.3,1.7q-1.5,40-2.1,80.1l-.3,20.2h0v2.7a6.4,6.4,0,0,0,6.2,6.3,6.5,6.5,0,0,0,6.3-6.3c.1-9.7.2-19.5.4-29.3,6.1,5.7,12.3,11.4,18.5,16.9s15.5,13.4,24.5,18.3c17.5,9.5,37.5,12.2,57.1,11.9a316.8,316.8,0,0,0,32.3-2.4,7,7,0,0,0,4.4-1.8,6.2,6.2,0,0,0,1.8-4.4C267.2,296.5,264.6,292.9,261.1,293.3ZM137.4,193.8h.1l1.1.6,2.3,1.2,1.9,1.3,1,.7h.1a24.4,24.4,0,0,1,3.7,3.5l1.7,1.8h0a4.4,4.4,0,0,0,.8,1.1,36.2,36.2,0,0,1,2.4,4.3l.5.9h0a24.1,24.1,0,0,1,.8,2.5,10.5,10.5,0,0,1,.6,2.4,3.6,3.6,0,0,1,.2,1.1h0a27.9,27.9,0,0,1,.1,5,3.4,3.4,0,0,1-.1,1h0a22.1,22.1,0,0,1-.5,2.5c-.2.8-.5,1.6-.7,2.4a3.6,3.6,0,0,0-.4,1.1.4.4,0,0,0-.1.3c-.7,1.4-1.4,2.8-2.2,4.2l-1.4,2-.2.3-.7.8a39.8,39.8,0,0,1-3.5,3.6,8.7,8.7,0,0,1-1.1.9l-.2.2-2.2,1.5a20.1,20.1,0,0,1-2.5,1.4l-1.2.7h-.4a29.1,29.1,0,0,1-5,1.6l-1.4.2h-.1l-1.8.2.9-36.1.6-17.6,2.4.4C134.4,192.7,135.9,193.3,137.4,193.8Z"/><path d="M180.5,266.5a6.8,6.8,0,0,0,.7,4.8,5.8,5.8,0,0,0,3.7,2.8c3,.7,7.1-.9,7.7-4.3,1.1-6.9,2.4-13.7,3.7-20.6a81,81,0,0,1,7,4.2l2.3,1.7h.1l1.1.9a50.4,50.4,0,0,1,4.2,3.7,185.7,185.7,0,0,1,15.5,16.5,6.3,6.3,0,0,0,7.6,1c2.2-1.5,3.7-4.4,2.9-7.1L216,205c-1.9-6.2-3.9-12.4-5.9-18.5-.8-2.6-3.2-4.8-6-4.6a6.4,6.4,0,0,0-6.1,4.6c-5.5,20.5-10.3,41.3-14.3,62.2C182.6,254.6,181.5,260.5,180.5,266.5Zm36.3-18.3a70.6,70.6,0,0,0-16.9-11.1l-1-.4c1.8-8.7,3.7-17.4,5.8-26Z"/><path d="M234.5,148.8c-7.8,4.6-15.4,9.5-22.9,14.6-2.7,1.9-4.2,5.6-2.3,8.6s5.7,4.2,8.6,2.2c7.5-5.1,15.1-10,22.9-14.6,2.8-1.7,4.1-5.7,2.3-8.5A6.4,6.4,0,0,0,234.5,148.8Z"/><path d="M295.7,196.8a6.8,6.8,0,0,0,4.4-1.9,5.9,5.9,0,0,0,1.8-4.4c-.1-3.1-2.7-6.6-6.2-6.2a223.4,223.4,0,0,1-32.7,1.1,5.8,5.8,0,0,0-4.4,1.8,5.9,5.9,0,0,0-3.7,5.6q3,30,4.5,60.1c.2,3.9.4,7.9.5,11.8a7.6,7.6,0,0,0-.1,1.5l.3,3.8c.3,3.2,2.7,6.4,6.3,6.2s6.4-2.7,6.2-6.2q-.6-17.7-1.8-35.4a120.5,120.5,0,0,0,25.5-1.2,6.2,6.2,0,0,0,3.8-2.9,6.6,6.6,0,0,0,.6-4.8,6.3,6.3,0,0,0-2.9-3.7,7.2,7.2,0,0,0-4.8-.6h-.8l-1.6.2-3.7.3-6.8.4c-3.4,0-6.8-.1-10.1-.3-.3-4.1-.6-8.2-1-12.3s-.7-7.9-1.1-11.8A214.7,214.7,0,0,0,295.7,196.8Z"/><path d="M328.8,186.6c-.2-3.3-2.8-6.4-6.3-6.3s-6.4,2.8-6.2,6.3c1.1,21.7,2.3,43.5,3.4,65.2.4,6.2.7,12.3,1,18.5.2,3.2,2.8,6.4,6.3,6.2s6.4-2.7,6.2-6.2L329.8,205C329.4,198.9,329.1,192.7,328.8,186.6Z"/><path d="M404.3,185.7a27,27,0,0,0-18.5-2.7c-5.4,1-10.6,3.6-15.4,6.2s-9.1,5.7-12.4,9.8a37.6,37.6,0,0,0-7.2,14.9,92.2,92.2,0,0,0-1.9,15.7c-.3,5.9-.4,11.8,1,17.5,2.3,9.2,8.4,16.9,16,22.3a39.4,39.4,0,0,0,29.4,6.5c3.3-.6,5.4-4.7,4.4-7.7s-4.2-5-7.7-4.4h-4.1l-2.7-.2h-.1l-1.5-.2a34.5,34.5,0,0,1-5.2-1.6h-.2l-1-.4-2.5-1.4-2.3-1.5-.7-.5-.6-.5a35,35,0,0,1-3.9-3.8l-.8-.9h-.1l-1.6-2.4-1.2-2.4a3,3,0,0,1-.4-.8l-.2-.6a19.8,19.8,0,0,1-.8-2.6c-.1-.3-.9-2.9-.7-3.1s.2,1.3.1.3a3.8,3.8,0,0,1-.1-1,12.8,12.8,0,0,1-.1-1.9c-.1-1.4-.1-2.8-.1-4.2s.2-4.9.3-7.3l.3-3.3c.1-.5.1-1,.2-1.5s.1-.6.1-.8h0a46.9,46.9,0,0,1,1.4-6.5l.9-2.7.3-.5c.3-.6.5-1.1.8-1.6s1.2-1.7,1.7-2.6l.3-.3a8.6,8.6,0,0,1,1.3-1.4l2.4-2.2h.2c.1-.1.2-.1.2-.2l1.4-.9a60.2,60.2,0,0,1,6.5-3.7l2-1,.8-.4.8-.3,1.1-.4,1.9-.7c1.2-.4,2.4-.6,3.7-.9h3.7l1.9.5c.3.1,1.6.3,1.8.6s-1.4-.7-.3-.1l1.1.6c2.9,1.5,7,.8,8.6-2.3S407.4,187.3,404.3,185.7Z"/><path d="M438.8,256c.5.4,1.1.6,0,0Z"/><path d="M445.3,259h.6C446.1,259,446.1,259,445.3,259Z"/><path d="M478.5,213.9c-.8-6.9-2.4-13.9-6.5-19.6a6.3,6.3,0,0,0-3-4.7c-6.3-4.1-14.4-4.7-21.6-2.8s-13.8,6.8-18.5,13.1-7.1,13-8.6,20.2-2.5,16.8-1,25.2,5,14.8,10.8,19.6a27.7,27.7,0,0,0,10.3,5.8,25.6,25.6,0,0,0,12,.4c7.6-1.5,13.9-6.7,18.4-12.8s6.9-15.1,7.8-23.1A94.8,94.8,0,0,0,478.5,213.9Zm-45.6,34a3.4,3.4,0,0,1,.3.8A4.5,4.5,0,0,1,432.9,247.9Zm33.6-19.4c-.1,1.6-.1,3.3-.3,4.9a21.1,21.1,0,0,1-.2,2.6h-.1a5.1,5.1,0,0,1-.2,1.3,43.6,43.6,0,0,1-1.1,5.2c-.2.7-.5,1.5-.7,2.3a4.2,4.2,0,0,0-.4,1l-.2.5a28.2,28.2,0,0,1-2.3,4.2,7.1,7.1,0,0,0-1,1.4h0l-1,1.2-1.6,1.6-1.4,1.1h0l-.9.6-2.2,1.3-.9.4-1.7.5-1.5.3h-3.5l-1.1-.2-1.2-.5c.1.1,0,.2-.3,0l-.4-.2h0l-.9-.4-1.8-1.1-.9-.7h.1c-1.1-1-2.1-2-3.1-3.1a4.1,4.1,0,0,0-.5-.9l-1-1.5-1-2-.2-.3a.4.4,0,0,0-.1-.3,2.9,2.9,0,0,1-.3-.9,42.1,42.1,0,0,1-1.2-4.8,6.1,6.1,0,0,1-.3-1.3v.8a2.8,2.8,0,0,0-.1-.9c-.1-1.1-.1-2.1-.2-3.2s0-3.3.1-5l.3-2.7c0-.4.1-.9.1-1.3v-.2a76.6,76.6,0,0,1,2.1-9.5,39.6,39.6,0,0,1,1.5-4.5,4.9,4.9,0,0,0,.3-.7h0a19.6,19.6,0,0,1,1.3-2.5,32.3,32.3,0,0,1,2.7-4.4h0c.2-.1.8-1.1,1-1.2a18,18,0,0,1,1.9-2l1.6-1.4,1.1-.8,2.3-1.2.6-.4h.3a37.6,37.6,0,0,1,4.8-1.3h.7c-2,.4-.4,0,.1,0h3.6l2.1.5h.1l.8.8.7.8h.1v.1l.4.5a26.1,26.1,0,0,1,1.7,2.8l.5.9h0a1.4,1.4,0,0,1,.2.6,5,5,0,0,1,.5,1.3,30.1,30.1,0,0,1,1.1,4.3,14.3,14.3,0,0,1,.4,2.2.4.4,0,0,1,.1.3v.3h0a.9.9,0,0,1,.1.5v-.3c.1,1.6.3,3.1.3,4.7C466.6,222,466.6,225.3,466.5,228.5Z"/><path d="M448.4,259.1h0Z"/><path d="M461.5,201.1l-.4-.5h0Z"/><path d="M442.3,258.1l.7.2-.7-.2Z"/><path d="M466.1,214.1v-.5C465.9,213.3,465.9,213.1,466.1,214.1Z"/><path d="M463.9,205.5a1.9,1.9,0,0,1-.2-.7h0C463.9,205.7,463.9,205.7,463.9,205.5Z"/></svg>