<svg xmlns="http://www.w3.org/2000/svg" viewBox="0 0 512 117"><path d="M52.7,8.2C43.5.3,29.7,4.5,21,11.1S7.3,26.1,3.8,35.7A67.2,67.2,0,0,0,.4,65.2C1.6,76.4,5.6,88,14.4,95.5s23.9,11.3,36.1,6.7A6.2,6.2,0,0,0,54,99.5a6.4,6.4,0,0,0,.6-4.5c-.9-2.9-4.2-5.3-7.3-4.2l-3.4,1.1-1.3.3-1.1.2c-1.1.2,1.4-.2.2-.1a37.5,37.5,0,0,1-6.7,0c-1.3-.1,1.4.3.2,0h-.7l-1.8-.3-3.4-1-.9-.4h-.3l-.6-.3a33.7,33.7,0,0,1-3.2-1.9L23,87.3c-1-.7.8.7.2.2l-.7-.6L20,84.4,18.8,83c-.2-.3-.5-.8.3.4l-.5-.6a34.5,34.5,0,0,1-2-3.2l-1.5-3.1.2.5-.4-.9-.6-1.9a43.5,43.5,0,0,1-1.8-7.1,5.9,5.9,0,0,1-.2-1.4c-.3-1.3.1,1.4,0,.1a2,2,0,0,1-.1-.7l-.3-3.7c-.1-2.4-.1-4.7,0-7.1l.3-2.9c0-.5.4-2.4,0-.4l.3-1.6a50.3,50.3,0,0,1,1.4-6.5,58.4,58.4,0,0,1,2-5.9l.4-.9c-.1.1-.6,1.4-.2.5l.6-1.5,1.5-2.9a43.2,43.2,0,0,1,3.4-5.3l.4-.6c0,.1-.9,1.2-.3.5l1-1.3,2.2-2.2A27.3,27.3,0,0,1,27.4,21l.5-.4c-1.3,1.2-.6.4-.2.2l1.5-1.1,3-1.7,1.4-.7c1-.5-1.2.4-.4.2l1-.4L37.6,16l1.8-.3c-1.5.4-.8.1-.3.1h3.1c1.2.1-1.2-.2-.4,0l1.1.2.8.3c1.1.3-1.2-.7-.1-.1l.6.4.6.3c-.8-.5-.9-.6-.4-.2,2.3,2,6.1,2.4,8.3,0s2.5-6.2,0-8.4Z"/><path d="M94.5,5.5c-8.6-1-16.9,4.8-21.3,11.8S67.5,34,67,42.6a133.2,133.2,0,0,0,1.4,27.5c1.2,8.2,3,16.8,7.8,23.8s12.4,12.2,21.2,12,16.1-5.3,21.1-12.1,6.8-15.1,8-23.2,2.4-17.5,2-26.3-2.2-16.6-6.5-23.8S112.9,8.6,106.2,5.7a29.7,29.7,0,0,0-5.7-2c-3-.7-6.6.9-7.3,4.1s.9,6.6,4.1,7.3a7.9,7.9,0,0,1,2.2.6l.9.3.5.2c1.1.4-1-.5-.3-.2a28.8,28.8,0,0,1,3.8,2.2l.9.6c.9.7-.9-.7-.1,0l1.8,1.5,1.5,1.6.7.8.5.6.3.4.6.8,1.3,2.1c.8,1.3,1.4,2.7,2.1,4.1s-.5-1.2-.3-.6.1.4.2.5.3.8.4,1.2a17.2,17.2,0,0,1,.7,2.1,57.8,57.8,0,0,1,1.2,5.7c.1.1.1.5.1.6s-.1-1.4,0-.2.1.8.2,1.3.1,2,.2,3a56.1,56.1,0,0,1,0,5.8,119.1,119.1,0,0,1-.9,11.9l-.3,2.7a7.7,7.7,0,0,0-.2,1.5c-.1.7.1-.6.1-.6s-.1.6-.2.9c-.2,1.8-.5,3.7-.8,5.5s-.8,3.7-1.3,5.5a21.7,21.7,0,0,1-.7,2.4,21.5,21.5,0,0,0-1,2.7s.5-1.1.2-.5a3,3,0,0,1-.4.8l-.5,1.1c-.4.8-.9,1.6-1.4,2.4l-.6.9-.3.4c-.6.8.2-.2.3-.3L107,89.3l-1.6,1.5-.5.4c.7-.6-.4.3-.6.4l-2,1.2-.9.5.6-.3-.9.3-2.2.7-1,.2h0a17.7,17.7,0,0,1-2.3,0h0l-1.2-.3-1-.3-.7-.3s1.2.5.6.3l-2.2-1.2-.9-.6-.4-.3-.5-.4-.9-.9a12.9,12.9,0,0,1-1.6-1.7l-.4-.4.4.5L86,87.3,84.6,85l-.5-1.1-.3-.6c-.1-.1-.5-1.3-.2-.4s-.2-.4-.2-.6l-.5-1.2a22.9,22.9,0,0,1-.8-2.8,52.9,52.9,0,0,1-1.3-5.4c-.4-1.9-.7-3.8-1-5.7-.1-.3-.1-.6-.2-.9s-.1-1,0-.2,0-.5-.1-.8l-.3-3.1c-.4-4-.6-8.1-.6-12.1s.2-8.2.6-12.3l.3-2.4c-.1,1.6,0,.2,0-.3l.3-1.4a31.6,31.6,0,0,1,1.3-5.3,9.2,9.2,0,0,1,.8-2.5c.1,0-.4,1.1-.1.5a1.4,1.4,0,0,1,.2-.6,6.4,6.4,0,0,1,.8-1.4,8.2,8.2,0,0,1,1.2-2l.4-.6s-.8.9-.3.5a3.9,3.9,0,0,1,.8-1l1.7-1.7.4-.3c.1,0-.9.7-.4.4l1.2-.8a21.2,21.2,0,0,1,2.1-1.1c0-.1-1.2.4-.6.2l.5-.2,1.2-.3,1.2-.3H92a20.8,20.8,0,0,1,2.5,0,5.5,5.5,0,0,0,4.2-1.7,5.9,5.9,0,0,0,1.7-4.2,5.3,5.3,0,0,0-1.7-4.1,6.4,6.4,0,0,0-4.2-1.8Z"/><path d="M145.4,11.3c-1.4,25.2-2.1,50.5-1.9,75.7l.3,21.2c.1,3.1,2.7,6.1,6,5.9a6,6,0,0,0,5.9-5.9q-1-37.8.5-75.8c.3-7,.6-14.1,1-21.1a6,6,0,0,0-5.9-6,6.1,6.1,0,0,0-5.9,6Z"/><path d="M147.8,16.5c5,11.5,10,23,14.9,34.6l3.7,8.8c.2.3.6,1.3.1.1l.3.9.9,2.1c.7,1.6,1.4,3.2,2,4.8L176.9,85l8.1,19.8c1,2.4,2.9,4.5,5.7,4.3a6,6,0,0,0,5.7-4.3c8-23,8-47.7,8.9-71.8.3-6.8.6-13.5,1.2-20.3.3-3.1-2.9-6-5.9-5.9a6.1,6.1,0,0,0-5.9,5.9c-1.1,11.9-1.3,23.9-1.8,35.8-.2,5.8-.5,11.6-1,17.4-.2,3.1-.5,6.1-.9,9.1a11.1,11.1,0,0,1-.2,1.9c-.1,1,.2-1.5,0,0s-.1.5-.1.8-.5,3.2-.8,4.7a118.7,118.7,0,0,1-4.9,19.3h11.4q-14.6-36-29.9-71.5c-2.8-6.6-5.7-13.2-8.5-19.7a5.8,5.8,0,0,0-3.6-2.7,5.9,5.9,0,0,0-4.5.6,5.6,5.6,0,0,0-2.7,3.5,6.7,6.7,0,0,0,.6,4.6Z"/><path d="M237.2,8.4l3.9,70,1.1,19.7c.1,3.1,2.6,6.1,5.9,5.9s6.1-2.6,5.9-5.9l-3.9-70L249,8.4c-.2-3.1-2.6-6.1-5.9-5.9s-6.1,2.6-5.9,5.9Z"/><path d="M226.4,14a120.9,120.9,0,0,0,39.3-2.4,6.1,6.1,0,0,0,4.1-7.3A6,6,0,0,0,262.5.2c-3.1.7-6.2,1.2-9.3,1.7-1,.2.1-.1.2,0l-1.3.2-2.3.2-4.7.4a116.9,116.9,0,0,1-18.7-.5c-3.1-.3-6.1,3-5.9,5.9s2.6,5.6,5.9,5.9Z"/><path d="M292.4,7a431.3,431.3,0,0,0-13.2,79.9c-.5,7.4-.9,14.9-1,22.3a6,6,0,0,0,5.9,6,6.1,6.1,0,0,0,5.9-6l.2-3.9a6.1,6.1,0,0,0-5.9-5.9,6,6,0,0,0-5.9,5.9l-.2,3.9H290c.3-13.2,1.1-26.4,2.6-39.6.2-1.5.4-3,.5-4.5l.3-2.3a6.8,6.8,0,0,0,.2-1.4c.2-1.4-.1,1.1,0-.2l1.5-10c1-6.4,2.2-12.9,3.6-19.3s3.2-14.6,5.1-21.8a6.1,6.1,0,0,0-4.2-7.3A6,6,0,0,0,292.4,7Z"/><path d="M296.7,8.4c1.3,14,5,27.5,9.4,40.8s9.2,25.8,12.5,39.1A106.2,106.2,0,0,1,321,99.5c.2.9.3,1.8.5,2.8v.6c.2.8,0-.1,0-.4a6.8,6.8,0,0,0,.2,1.4c.2,2,.4,3.9.5,5.9l11-3a112.1,112.1,0,0,0-29.1-31.9,91.1,91.1,0,0,0-9.7-6.5,5.9,5.9,0,1,0-5.9,10.2c2.8,1.7,5.6,3.5,8.3,5.4l2,1.6c.9.6-.8-.7,0,0l1.1.8,3.8,3.3a92.8,92.8,0,0,1,7.1,6.9l3.4,3.8,1.5,1.8.7.9.4.5c.5.6-.7-.9-.2-.3,2.3,3.1,4.4,6.2,6.4,9.5a6.1,6.1,0,0,0,6.7,2.7c2.4-.8,4.5-3.1,4.3-5.7-.9-14-4.4-27.6-8.8-40.8s-9.1-25.9-12.7-39.2c-.9-3.7-1.8-7.4-2.5-11.1-.4-1.9-.7-3.8-.9-5.6a1.3,1.3,0,0,1-.1-.6c0,.3.1,1.1,0,.3a6.8,6.8,0,0,0-.2-1.4l-.3-3c-.2-3.1-2.5-6.1-5.9-5.9s-6.2,2.6-5.9,5.9Z"/><path d="M386,14.4c-5.4-2.9-11.2-2.4-16.6,0a28.9,28.9,0,0,0-11,9.2c-5.6,7.2-8.5,16-9.7,25a123.9,123.9,0,0,0-.8,27.9c.9,9.9,3.5,20.5,11.2,27.5s19.7,10.5,29.3,4.8a5.9,5.9,0,0,0,2.2-8,6.1,6.1,0,0,0-8.1-2.2l-1.1.7-.6.2.5-.2-2.5.6c-.8.2,1.4-.1.6,0h-3.6c-1.2,0,1.5.3.4.1l-2.4-.6-1.2-.4-.6-.2c-.7-.3,1.3.6.4.1a16.7,16.7,0,0,1-2.3-1.2l-1.2-.7-.4-.3.3.2A22.8,22.8,0,0,1,365,93c-.5-.5.7,1.1.3.5l-.4-.6-.8-1.2a28,28,0,0,1-1.5-3,2.5,2.5,0,0,0-.4-.7l.2.4c-.2-.5-.3-.9-.5-1.3a19.2,19.2,0,0,1-.9-3.2,28.2,28.2,0,0,1-.7-3.1l-.3-1.5c0-.3-.1-.6-.1-.8s.1,1.1,0,.2a120,120,0,0,1-.1-24.7l.3-2.8c.1-1,0,.4-.1.5s.1-.5.2-.7a11,11,0,0,1,.2-1.8c.4-1.9.8-3.8,1.3-5.6a48.4,48.4,0,0,1,1.7-5.4l.3-.7c-.3,1.3-.4.9-.2.5l.6-1.3a21.5,21.5,0,0,1,1.4-2.6,16.7,16.7,0,0,1,1.8-2.8l.3-.4c.5-.8.1-.2-.2.2a7.6,7.6,0,0,0,1.1-1.4,23.9,23.9,0,0,1,2.3-2.2l.5-.5c.2-.2,1-.9.3-.2s-.1,0,.1-.1l.7-.5,1.5-.8.6-.4c.8-.4.2,0-.3.1,1.1-.3,2-.7,3.1-.9s-.4.1-.6,0a4.1,4.1,0,0,0,1.1,0h.6c.3,0,1.3.1.3,0l.8.2.7.2-.8-.3.6.3c2.7,1.5,6.6.8,8.1-2.1s.8-6.5-2.1-8.1Z"/><path d="M412.5,14.2,417,89.9l1.3,21.2a5.9,5.9,0,0,0,5.9,5.9c3-.2,6.1-2.6,5.9-5.9l-4.5-75.8-1.3-21.1c-.2-3.1-2.6-6.1-5.9-5.9s-6.1,2.6-5.9,5.9Z"/><path d="M401.6,16.9a228.6,228.6,0,0,0,36.1,1.7c3.1-.1,6.1-2.7,5.9-5.9a6,6,0,0,0-5.9-5.9,228.6,228.6,0,0,1-36.1-1.7,5.9,5.9,0,0,0-4.2,1.7,6.1,6.1,0,0,0-1.7,4.2,5.7,5.7,0,0,0,1.7,4.2,6.9,6.9,0,0,0,4.2,1.7Z"/><path d="M487.3,4.6c-9.1-2-18.1,2.2-23.6,9.4s-7.6,16.2-8.6,25-.2,18.3,1.2,27.3c.7,4.3,1.6,8.6,2.6,12.8a74.3,74.3,0,0,0,3.6,11.3c3.1,7.4,10,13.6,18.6,12.8a23.9,23.9,0,0,0,13.2-5.7,33.7,33.7,0,0,0,7.5-10,84.7,84.7,0,0,0,9.8-48.1c-.7-8-2.2-16-6-23.2s-8.8-12.4-16-13.9a18.3,18.3,0,0,0-5.7-.4,6.6,6.6,0,0,0-4.2,1.7A5.9,5.9,0,0,0,478,7.8c.1,2.9,2.6,6.2,5.9,5.9h2.8l1.8.6-.7-.3.4.2,1,.6.8.5.4.2-.6-.4,1.6,1.4,1.4,1.5.3.4-.3-.4.6.9a25,25,0,0,1,2.3,3.9,3.6,3.6,0,0,1,.4.9c.1.1.7,1.4.3.5s.1.1.1.3a11.2,11.2,0,0,1,.5,1.3,52.7,52.7,0,0,1,2.3,9.7,5.9,5.9,0,0,1,.2,1.4,1.3,1.3,0,0,1,.1.6s-.1-1.2,0-.6l.3,2.9.3,5.5a97.6,97.6,0,0,1-.5,10.8,2.5,2.5,0,0,0-.1.8c-.1.7,0-.5,0-.5s-.1.8-.1,1.2a27.4,27.4,0,0,0-.5,2.8l-1.2,5.4c-.5,1.8-1,3.5-1.6,5.3l-.9,2.5a11.7,11.7,0,0,1-.5,1.1,1.4,1.4,0,0,1-.2.6c-.1.2-.5,1.3-.1.4l-.3.7a11.7,11.7,0,0,0-.5,1.1c-.4.8-.8,1.7-1.3,2.5a41.7,41.7,0,0,1-2.6,4.6l-.7,1.1-.4.5c.6-.7-.2.3-.3.5l-1.1,1.1c-.5.5-1.4,1-1.8,1.7s.9-.7.4-.4l-.4.4a5.7,5.7,0,0,0-1.3.8l-1,.5h0c.8-.4,0-.1-.2,0s-1.7.3-2.4.6c1-.4,1-.1.5,0h-2.3c-1-.1.4,0,.5,0a7.9,7.9,0,0,1-1.3-.3h-.5l.5.2-.9-.5-.8-.5.5.4a1,1,0,0,0-.5-.4l-1.4-1.5c-.4-.5.5.6.4.6a.5.5,0,0,0-.2-.4l-.7-1.1a11.8,11.8,0,0,1-1.1-1.9,3.6,3.6,0,0,0-.4-.9c-.1-.1-.3-.7.1.1s-.1-.1-.1-.2-1-2.7-1.4-4.1c-1-3.7-1.8-7.5-2.6-11.2-.4-2-.8-4-1.1-6s-.3-1.9-.4-2.9.1,1-.1-.2a11,11,0,0,0-.2-1.8,93.9,93.9,0,0,1-.6-11.9q0-3,.3-6c0-.9.2-1.9.3-2.9s-.1.5-.1.5.1-.6.1-.7l.3-1.7a52.3,52.3,0,0,1,1.2-5.4,22.5,22.5,0,0,1,.8-2.4c.1-.5.3-.9.4-1.3a1.4,1.4,0,0,0,.2-.6c.3-.7.1.1-.1.4.9-1.6,1.5-3.2,2.5-4.7l.7-.9c.4-.7-.8.8-.2.2l.3-.4a17,17,0,0,1,1.9-1.9c.2-.3.6-.5.8-.8l-.5.4.7-.4a13.7,13.7,0,0,1,2-1.3l.7-.3c-.9.4.2-.1.5-.1a10.5,10.5,0,0,1,2.4-.6c.7-.2-.7,0-.6,0h3.1c3,.7,6.5-.9,7.3-4.1s-.9-6.5-4.2-7.3Z"/></svg>