<svg xmlns="http://www.w3.org/2000/svg" viewBox="0 0 400.9 110.6"><path d="M.4,3.8c.5,5,.7,10.1.7,15.1,0,2.7,0,5.3-.2,7.9S.5,31.5.6,33.9A12.5,12.5,0,0,0,9,44.8c4.8,1.9,10,.9,14.9-.2a3.7,3.7,0,0,0-2-7.2,43.1,43.1,0,0,1-6.1,1H13.4c.3.1.2.1-.2,0L12,38l-.6-.2-1-.5-.6-.4H9.7L9,36.1c.4.4-.4-.6-.4-.7s-.1.2-.3-.6a2.4,2.4,0,0,0-.2-.8c.1.2.1.2,0-.1a16.1,16.1,0,0,1,.1-3.1,173.9,173.9,0,0,0-.3-27C7.7,1.8,6.3-.1,4.1,0S.2,1.7.4,3.8Z"/><path d="M5.8,25.9l3.7-.7h.2l1-.2h1.8a38.5,38.5,0,0,1,7.6.1,3.8,3.8,0,0,0,3.7-3.8,3.7,3.7,0,0,0-3.7-3.7A49.5,49.5,0,0,0,3.8,18.7a3.7,3.7,0,0,0-2.6,4.6,3.8,3.8,0,0,0,4.6,2.6Z"/><path d="M3.8,8.6H21.1a3.9,3.9,0,0,0,3.8-3.8,3.8,3.8,0,0,0-3.8-3.7H3.8A3.8,3.8,0,0,0,0,4.8,3.9,3.9,0,0,0,3.8,8.6Z"/><path d="M33.8,5.8c-.3,10.3-.2,20.5.2,30.7a3.8,3.8,0,1,0,7.5,0c-.4-10.2-.5-20.4-.2-30.7a3.8,3.8,0,0,0-3.8-3.7,3.7,3.7,0,0,0-3.7,3.7Z"/><path d="M36.1,8.8q7.8,15.8,17.1,30.6c1.7,2.6,6,2.3,6.8-.9A153.2,153.2,0,0,0,64.9,4.9a3.8,3.8,0,0,0-3.7-3.8,3.9,3.9,0,0,0-3.8,3.8,147.9,147.9,0,0,1-4.6,31.6l6.9-.9A327.1,327.1,0,0,1,42.6,5a3.7,3.7,0,0,0-5.1-1.3,3.9,3.9,0,0,0-1.4,5.1Z"/><path d="M92.7,1.8c-9.2-.2-18.1,5.8-21.8,14.1A22.2,22.2,0,0,0,69.2,30a20.4,20.4,0,0,0,8.2,12.6,16.7,16.7,0,0,0,17,1.1,3.7,3.7,0,0,0,1.4-5.1,3.8,3.8,0,0,0-5.1-1.3c-.7.3-.4.1-.2.1l-.7.2-1.3.3c-.4.1,0,.1.1.1H85.5c.2.1.6.2-.1,0l-1.3-.3a7.9,7.9,0,0,1-2.1-1,10.7,10.7,0,0,1-3.4-3.3A10.5,10.5,0,0,1,77.3,31c-.3-.6.1.4-.1-.2l-.2-.5-.5-1.7a5.9,5.9,0,0,1-.2-1.3c.1.6-.1-.5-.1-.7a26.1,26.1,0,0,1,0-2.8h0a.9.9,0,0,0,.1-.5l.3-1.4a4.9,4.9,0,0,1,.4-1.1,4.3,4.3,0,0,1,.1-.5l.2-.5c-.1.4.2-.3.2-.4l.2-.5.7-1.2a6.1,6.1,0,0,1,.7-1c0-.2.1-.3.2-.5s.6-.7.4-.4.2-.3.2-.3l.4-.4a4.7,4.7,0,0,1,1-1,3.8,3.8,0,0,1,.9-.9l.5-.4.2-.2c.8-.5,1.5-1.1,2.3-1.5l1.5-.7c.3-.2-.1,0-.1,0l.8-.3,2.8-.7h2.5a3.9,3.9,0,0,0,3.8-3.8,3.8,3.8,0,0,0-3.8-3.7Z"/><path d="M108.3,5.9a207.8,207.8,0,0,0-6.4,35.9c-.3,3.3,4.3,5,6.4,2.7l1.1-1.3a3.9,3.9,0,0,0,0-5.3c-1.4-1.3-4-1.5-5.3,0L103,39.2l6.4,2.6a196,196,0,0,1,6.1-33.9,3.9,3.9,0,0,0-2.6-4.7,3.8,3.8,0,0,0-4.6,2.7Z"/><path d="M110.6,7.8l15.5,33.7c.8,1.8,3.5,2.3,5.1,1.3a3.9,3.9,0,0,0,1.4-5.1L117.1,4.1c-.9-1.9-3.5-2.3-5.2-1.4a3.7,3.7,0,0,0-1.3,5.1Z"/><path d="M109.9,36.8l1.8-.4h.9c.8-.1-.7.1.1,0a20.7,20.7,0,0,1,3.5-.3,54.6,54.6,0,0,1,7,.2,3.9,3.9,0,0,0,2.7-1.1,4.1,4.1,0,0,0,1.1-2.6,4.4,4.4,0,0,0-1.1-2.7,5,5,0,0,0-2.7-1.1,49.1,49.1,0,0,0-15.3.9,3.7,3.7,0,0,0-2.6,4.6,3.8,3.8,0,0,0,4.6,2.6Z"/><path d="M134.5,6.8,136,29.4a113,113,0,0,0,.8,11.6,5,5,0,0,0,4.5,4.3,4.4,4.4,0,0,0,4.8-4.5,3.8,3.8,0,0,0-3.7-3.8,3.9,3.9,0,0,0-3.8,3.8V41l.5-1.9,2.2-1.3,1.9.5,1,1.3v-.3c.1.5.1.5.1.1v-.5c0-.6-.1-1.3-.1-1.9l-.3-4.4-.6-8.6c-.4-5.8-.7-11.5-1.1-17.2A3.8,3.8,0,0,0,138.3,3a3.9,3.9,0,0,0-3.8,3.8Z"/><path d="M141.9,11.9h0l.3-.4.5-.4.7-.4c.2-.1,1-.4.3-.2l.9-.3h1.5l1.1.2.5.2h-.2l1,.6c.6.4-.2-.3.3.2l.7.8c-.5-.6.1.2.2.3l.5.9c-.4-.7.1.4.1.5l.3,1c0,.3,0,.3-.1-.1a1.5,1.5,0,0,1,.1.7v1c0,.8.1-.5-.1.3s-.1.7-.2,1,.2-.3-.2.4l-.5.9h-.1l-.3.4a3,3,0,0,1-.8.8l-.4.3c.3-.2.3-.2-.1.1l-.9.6-.4.2a16.6,16.6,0,0,1-2.1.6c-.8.2.4,0-.4,0a3.3,3.3,0,0,1-1.4,0c-3.4-.1-4.8,4.2-2.7,6.4a64.6,64.6,0,0,0,17.1,13.3,4,4,0,0,0,5.2-1.4,3.8,3.8,0,0,0-1.4-5.1,55.5,55.5,0,0,1-15.6-12.1l-2.6,6.4a14.7,14.7,0,0,0,15.4-12.9c.6-7.2-5-14-12.4-14a12.3,12.3,0,0,0-10.2,5.5,3.7,3.7,0,0,0,1.3,5.1,3.7,3.7,0,0,0,5.1-1.3Z"/><path d="M184.9,6.5A7.5,7.5,0,0,0,178,1.7a10,10,0,0,0-7.5,3.6,26,26,0,0,0-6.4,13.2c-.7,4.9-.1,10.2,2.9,14.3a17.5,17.5,0,0,0,10.6,6.9c4.9.9,10.1-.1,13.7-3.8a3.9,3.9,0,0,0,0-5.3,3.8,3.8,0,0,0-5.3,0,2.7,2.7,0,0,0-.8.7c-.2.3.1-.1.2-.1l-.5.3-.8.4c-.1.1-.6.3.1,0l-.5.2-1,.3h-1.3a4.8,4.8,0,0,1-1.2,0c-.3,0-.8-.1-.2,0l-1-.2-1.1-.3-.5-.2-1.8-.9-.9-.6c.6.4-.1-.2-.3-.3l-.8-.8-.3-.4c-.3-.4.4.5.1.1a11.3,11.3,0,0,1-1.2-2.1c-.3-.6.1.4-.1-.2a1.7,1.7,0,0,0-.2-.5l-.3-1.3a4.3,4.3,0,0,1-.1-.5s-.1-.6-.1-.2,0-.4,0-.5-.1-.5-.1-.7a20.9,20.9,0,0,1,.1-2.5c.1-.7,0-.3,0-.1s.1-.4.1-.6l.3-1.5a22.5,22.5,0,0,1,.8-2.4s.3-.6,0-.1l.3-.6a8.3,8.3,0,0,1,.7-1.3,21.3,21.3,0,0,1,1.6-2.5l.6-.7A6.3,6.3,0,0,1,177,9.5c-.5.3.9-.4.3-.2l.5-.2c.5-.2-.5.1,0,.1s-.3-.3,0-.1h.3c-.3,0,0,0,.1.1s-.4-.3-.5-.8a3.9,3.9,0,0,0,4.6,2.7c1.7-.5,3.4-2.8,2.6-4.7Z"/><path d="M185.8,21.2l-1.2,21.4a3.8,3.8,0,0,0,7.5,0l1.2-21.4a3.8,3.8,0,0,0-3.8-3.8,3.8,3.8,0,0,0-3.7,3.8Z"/><path d="M181.4,25.8l14.4-1.9a4.3,4.3,0,0,0,2.6-1.1,3.9,3.9,0,0,0,1.1-2.7,3.8,3.8,0,0,0-3.7-3.7l-14.4,1.9a3.8,3.8,0,0,0-2.6,1.1,3.3,3.3,0,0,0-1.1,2.6,3.5,3.5,0,0,0,1.1,2.7,3.8,3.8,0,0,0,2.6,1.1Z"/><path d="M217.3,2.5a12.2,12.2,0,0,0-9.7,4.9,19.8,19.8,0,0,0-3.8,11.5,53.2,53.2,0,0,0,.6,11.3,13.8,13.8,0,0,0,5.8,9.3c5.8,3.7,13.8,1.8,18.7-2.5a20.1,20.1,0,0,0,5.6-19.7c-2.1-8-9.2-13.5-17.3-14.5-1.9-.3-3.8,1.9-3.7,3.7s1.6,3.5,3.7,3.8h1.2l1,.4c-.1-.1,1,.3.6.1s.6.3.5.3l.8.4,1.7,1.1c-.6-.4.3.3.3.3l.6.5,1.3,1.5c.4.5-.4-.7.2.2l.5.8a9.1,9.1,0,0,1,.9,1.7c-.3-.7.2.4.2.5a6.4,6.4,0,0,1,.2.7l.3,1s.2,1.1.1.6.1.7,0,.6a2.8,2.8,0,0,1,.1.9,14.8,14.8,0,0,1-.1,2.1c.1-.8-.1.4-.1.4a6.4,6.4,0,0,1-.2.7l-.6,2c-.2.6.4-.8-.1.3a5.6,5.6,0,0,0-.5.8l-1,1.7c.4-.6-.4.4-.4.4l-.6.6a4.6,4.6,0,0,1-.7.7c-.7.7.4-.2-.1.1l-1.4.9-.8.4c.7-.4-.1,0-.3.1l-1.8.5c-.2,0-.9.1-.1,0H218a8.6,8.6,0,0,0-1.6,0c-.5,0,.8.2-.1,0l-.9-.3c-.2,0-1.1-.4-.3,0l-.7-.4-.7-.4c.7.4.1,0-.1-.1l-.5-.6a3.4,3.4,0,1,0-.2-.3,5.6,5.6,0,0,1-.5-.8c-.2-.4-.2-.5,0-.1a1.4,1.4,0,0,1-.2-.6,10.5,10.5,0,0,1-.5-1.9c0-.1-.2-.9-.1-.3s-.1-.7-.1-1-.2-3.1-.2-4.6a30.1,30.1,0,0,1,.1-5.2c0-.2.3-1.5.4-2s.3-.9.4-1.3.2-.4.3-.5a5.9,5.9,0,0,0,.4-.8l.3-.4c-.2.2-.1.2.1-.1l.5-.6.7-.6.6-.4.6-.3c-.4.1-.3.1.1-.1l.7-.2h.8a3.8,3.8,0,0,0,0-7.5Z"/><path d="M255,2c-4.2-1.7-9.3,0-12.4,3.3a11.2,11.2,0,0,0-2,13c1.7,3.5,4.9,5.7,7.8,8.2l1.9,1.8.9,1c-.5-.7.3.5.4.7s.6,1.2.4.5.3,1,.4,1.4,0,.3,0,.1v1.4c-.1,1.1.2-.5-.1.5a6.4,6.4,0,0,0-.2.7s-.4,1-.1.4l-.3.6-.4.6c.3-.4-.2.2-.2.3l-.6.5-.3.3-.8.4c-.6.4-.3.1-.1.1l-1,.3h-1.9c-.7,0,.4.2-.4,0l-.7-.2c-.1,0-1.1-.4-.4-.1a3.9,3.9,0,0,0-5.2,1.3c-.9,1.6-.5,4.3,1.4,5.2a13.5,13.5,0,0,0,14.6-2,13,13,0,0,0,3.5-13.8c-1.5-4.1-4.7-6.7-7.9-9.4l-1.9-1.6-.9-.9-.4-.5c-.2-.2-.5-.7-.1-.2a3.6,3.6,0,0,1-.7-1s-.4-.8-.2-.3,0-.2-.1-.3l-.2-.8v-.5c0-.1.1-.9,0-.4s.5-1.3.2-.9.1-.1.2-.2l.4-.7c.4-.6.1-.1,0,0a4.6,4.6,0,0,1,.7-.7l.4-.4c-.6.5.2-.1.3-.2l.6-.3h.2l.6-.2c.2-.1,1.2-.2.3-.1h1c-.6,0,.4.1.4.1l.9.3c1.9.8,4.2-.8,4.7-2.6A3.9,3.9,0,0,0,255,2Z"/><path d="M2,71.2v32.7a3.8,3.8,0,0,0,3.8,3.7,3.8,3.8,0,0,0,3.7-3.7V71.2a3.7,3.7,0,0,0-3.7-3.7A3.8,3.8,0,0,0,2,71.2Z"/><path d="M8.4,76.8l.7-.7c.5-.5-.7.5-.2.1l.3-.2.9-.5c.6-.3-.7.3-.3.2l.6-.2,1-.3c.9-.2-.9.1,0,0h2.2c-1.4-.1-.3-.1,0,0l1.1.3c.3.1,1.1.6.1,0l1.1.6.7.5c-1.1-.7-.1-.1.1.2l.6.6c-.7-.7-.3-.5-.1-.2l.3.5.2.4c.2.4.1.7-.1-.2l.3.9a1.3,1.3,0,0,0,.1.6c-.3-1-.1-.5-.1-.2a4.8,4.8,0,0,1,0,1.2c-.1-.9.1-.6,0-.2s-.1.4-.1.6a3.8,3.8,0,0,0-.3,1c.1-.9.2-.6,0-.2l-.3.6-.6,1c-.4.6.6-.7.1-.1l-.3.3-.9.9c-.3.2-.7.3.1-.1l-.3.2-1.2.7c-.7.4.7-.2.2,0h-.4l-1.2.3c-.6.1.3,0,.4,0H12a6.4,6.4,0,0,0-4.9.3,4.1,4.1,0,0,0-1.6,5.8,4.5,4.5,0,0,0,4.9,2c2.6-.6,3.5-3.5,2.3-5.8a3.7,3.7,0,1,0-6.4,3.8L6,91V89l.3-.8,1.3-1.3,2.6-.4.6.3c2.1,1.2,1.2,5.8-1.2,6,.4-.1.2.2-.4-.1h.7a14.5,14.5,0,0,0,3,.3,13.1,13.1,0,0,0,5.7-1.8,14,14,0,0,0,6.5-8.8,11.7,11.7,0,0,0-2.8-10.7,14.2,14.2,0,0,0-9.1-4.1A12.7,12.7,0,0,0,3.1,71.5c-1.3,1.5-1.6,3.9,0,5.3a3.8,3.8,0,0,0,5.3,0Z"/><path d="M29.6,73.3V97.9c0,2.3.5,4.5,2.6,5.8s4.2.9,6.3.9H50.7a3.8,3.8,0,0,0,3.8-3.7A3.9,3.9,0,0,0,50.7,97H36c-.2.1-.3,0-.5,0s-.2,0,.1.1l1.2.9c.3,1,.3,1.3.3.8V73.3a3.8,3.8,0,0,0-3.7-3.8,3.9,3.9,0,0,0-3.8,3.8Z"/><path d="M33.4,88.2a72.2,72.2,0,0,1,9.2.6h-1l4,.6a3.7,3.7,0,0,0,2.9-.4,3.4,3.4,0,0,0,1.7-2.2c.4-1.8-.5-4.2-2.6-4.6a75.9,75.9,0,0,0-14.2-1.4,3.8,3.8,0,0,0-3.8,3.7,3.9,3.9,0,0,0,3.8,3.8Z"/><path d="M34.4,76H46.6a3.8,3.8,0,0,0,3.8-3.8,3.8,3.8,0,0,0-3.8-3.7H34.4a3.8,3.8,0,1,0,0,7.5Z"/><path d="M59.5,71.3a95.4,95.4,0,0,0,.3,33.7,3.8,3.8,0,0,0,4.6,2.6,3.9,3.9,0,0,0,2.7-4.6,82.4,82.4,0,0,1-.3-29.7c.3-2-.6-4.2-2.7-4.7s-4.2.6-4.6,2.7Z"/><path d="M66.5,77.4c-.5.8,0,.1.1,0s-.4.1-.1,0l.6-.3c.6-.4-.7.1,0,0l.8-.2h.5c.9,0-.8-.2.1,0l1.3.4c.8.2-.7-.4,0,0l.6.4c.4.2.4.2,0-.1l.6.6.2.2c-.3-.5.2.3.3.4s.1.3,0-.1.1.5.2.8,0-.2,0,.2v.8c0-.8,0,.1-.1.3s-.3,1-.1.5-.2.4-.3.5a4.1,4.1,0,0,1-.5.9c.3-.4,0,0-.2.2l-.6.6c-.1.1-.9.6-.3.3l-.9.6-.5.2-.6.2-1,.3c.7-.2-.1-.1-.4,0-3,.1-5.2,4.1-2.6,6.4L78,104.2a3.8,3.8,0,0,0,5.3,0,3.9,3.9,0,0,0,0-5.3L68.9,86.2l-2.7,6.4a13.9,13.9,0,0,0,10.9-6.1A10.7,10.7,0,0,0,77.9,75a11.1,11.1,0,0,0-8-5.4,9.6,9.6,0,0,0-9.8,4,3.7,3.7,0,1,0,6.4,3.8Z"/><path d="M103.4,72.8a9.8,9.8,0,0,0-11.5-1.1c-4,2.2-5.6,6.7-4.9,11.1s3.7,7.5,7.3,9.5c1.5.8,3.1,1.5,4.5,2.4l1,.6c-.5-.4.3.3.4.4a2.7,2.7,0,0,1,.8,1.4c.1.2.1.4.2.5s0,.2,0,.3a1.3,1.3,0,0,1-.1.6c.1-.6,0,.1,0,.3s-.3.8-.1.4-.3.6-.3.6-.4.5-.1.2-.4.3-.5.4-.5.4,0,.1l-.7.3c-.1.1-.6.3,0,.1l-.7.2c-.7.2-.3.1-.1,0h-.8l-1-.2a3.7,3.7,0,0,0-4.6,2.6,3.8,3.8,0,0,0,2.6,4.6,10.7,10.7,0,0,0,11.9-4,10.8,10.8,0,0,0,.1-12.3c-2.4-3.2-5.8-4.4-9.1-6.3l-1.1-.7s-.5-.3-.1-.1l-.3-.2-.9-.9c.4.4-.3-.6-.4-.7l-.3-.5c-.2-.6.2.4,0-.1l-.3-1.2c.1.6,0-.2,0-.5V80h0a1.4,1.4,0,0,0,.2-.7c-.1.4-.1.2.1,0l.3-.6c-.3.5-.2.2.1,0l.3-.3c-.3.3-.2.1.1-.1l.4-.2c.6-.4-.2,0,.1-.1l.9-.2c-.7.1,1.2,0,.5,0s1,.3.5.1,0,0,0,.1-.5-.6.3.1a3.9,3.9,0,0,0,5.3,0c1.3-1.4,1.5-4,0-5.3Z"/><path d="M127.7,72.3c-3.6-1.5-7.7-.2-10.6,2.1s-4.4,6-4.8,9.6c-1,6.7.6,14.5,6.2,19s13,4.8,18.3.4c3-2.5,4.1-6.3,4.5-10.1a25,25,0,0,0-.8-10.5c-1.3-3.7-3.8-7.2-7.5-8.9a12,12,0,0,0-11.5.2,3.9,3.9,0,0,0-1.3,5.2,3.7,3.7,0,0,0,5.1,1.3l.9-.5c-.2.1-.6.2,0,.1s1-.3.5-.2h1.2l.8.2c.1.1,1.1.4.4.1l1.5.8c.1.1.6.5.1.1l.6.5.6.6h.1a10.3,10.3,0,0,1,1.1,2.1c-.1-.2-.1-.5.1.2l.3.9.3,1.7c.3,1.2,0-.6.1.6s.1.5.1.8v2.2c-.1,2.4-.3,4.6-1.7,6.5.5-.6-.5.4-.7.6s.2-.1.1,0l-.8.5h0l-.7.2-.8.2c-.1.1-1.1.1-.2.1h-2.3l-1.4-.4h-.3l-.9-.4-.5-.3c-.8-.5.3.2-.2-.2l-1.2-1.1-.3-.4-.4-.5a16.2,16.2,0,0,1-1-1.8c-.1-.1-.3-.8-.1-.3l-.3-.7c-.2-.5-.3-1.1-.5-1.7s-.1-.5-.1-.8-.2-1.2-.1-.4a12.1,12.1,0,0,1-.1-1.9c-.1-2.7.2-5,1.7-7.1l.4-.5c.1-.1.9-.7.3-.3l.6-.4.7-.3h-.1l.8-.2c.8-.2-.4,0,.4,0s.2-.1,0-.1l1.4.4c1.8.8,4.2-.8,4.6-2.6a3.9,3.9,0,0,0-2.6-4.6Z"/><path d="M149.7,72.2a181.5,181.5,0,0,0-.5,26.6,3.8,3.8,0,0,0,3.8,3.7c1.9-.1,3.9-1.6,3.7-3.7a181.5,181.5,0,0,1,.5-26.6c.2-2-1.9-3.8-3.7-3.8a3.9,3.9,0,0,0-3.8,3.8Z"/><path d="M152.1,74.9a147.5,147.5,0,0,0,14.5,24.5,3.8,3.8,0,0,0,4.3,1.7,3.8,3.8,0,0,0,2.7-3.6L175,72.2a3.7,3.7,0,0,0-3.7-3.7,3.9,3.9,0,0,0-3.8,3.7l-1.4,25.3,7-1.9a139.8,139.8,0,0,1-14.5-24.5,3.7,3.7,0,0,0-5.1-1.3,3.9,3.9,0,0,0-1.4,5.1Z"/><path d="M186.5,70.4a145.4,145.4,0,0,0-6,33.5,3.8,3.8,0,0,0,7.5,0,142.8,142.8,0,0,1,5.7-31.6,3.7,3.7,0,1,0-7.2-1.9Z"/><path d="M187.6,75a109,109,0,0,1,12.5,29.9,3.8,3.8,0,0,0,4.6,2.7,3.9,3.9,0,0,0,2.6-4.7,115.7,115.7,0,0,0-13.2-31.7,3.7,3.7,0,0,0-5.1-1.3,3.9,3.9,0,0,0-1.4,5.1Z"/><path d="M187.6,99.4a36.8,36.8,0,0,0,13.2-1.2,3.7,3.7,0,0,0,2.6-4.6,3.9,3.9,0,0,0-4.6-2.6,35.8,35.8,0,0,1-4.5.9h1a33.1,33.1,0,0,1-7.7.1,3.8,3.8,0,0,0-3.8,3.8,3.9,3.9,0,0,0,1.1,2.6,3.5,3.5,0,0,0,2.7,1.1Z"/><path d="M212.6,74.3c-.2,8.4-.3,16.7-.2,25.1.1,2.1-.1,4.3,1,6.1a6.3,6.3,0,0,0,5.7,3.2c2,.2,4,0,6,0h6.4a3.8,3.8,0,0,0,0-7.5l-11.1.2H219a2.4,2.4,0,0,1,1,1v-.4c.1.4.1.4.1,0s-.1-3.6-.1-5.3c0-7.4,0-14.8.2-22.2a3.8,3.8,0,1,0-7.5,0Z"/><path d="M239.3,75.3a127.8,127.8,0,0,0,.2,22.3,49.5,49.5,0,0,0,.6,5.4c.3,2.2.3,4.9,2.6,6.2a4.1,4.1,0,0,0,6-2.5,4,4,0,0,0-4.9-5,3.9,3.9,0,0,0-2.6,4.6,3.7,3.7,0,0,0,4.6,2.6h.2l-2.9-.4h.1l-1.7-2.2v-1.5l.9-1.7h-.1l1.7-.9h1.6l1.6,1c.5,1,.7,1.2.5.6s-.1-.6-.1-1a5.2,5.2,0,0,1-.2-1.4c-.2-1.3-.3-2.6-.4-3.9s-.4-4.8-.5-7.2a126.4,126.4,0,0,1,.3-15.1,3.8,3.8,0,1,0-7.5,0Z"/><path d="M260.1,78h9.2c.5,0,.5,0,.1-.1s.5.1-.4-.3a2.1,2.1,0,0,1-.4-.6h0a1.5,1.5,0,0,1-.1.7h0c-1.3,4.6-2.3,9.2-3.8,13.8-.8,2.2-1.7,4.5-2.5,6.8s-.4,6,2.4,7.5,4.7.9,7.1.9h7.8a3.8,3.8,0,0,0,0-7.5H268.4c-.4,0-.4,0,0,.1l-.6-.2a2.1,2.1,0,0,1,1.4,1.8c0,.3,0,.2.1-.2a110.2,110.2,0,0,0,4.6-13.7c.6-2.3,1.3-4.6,1.8-7a8.9,8.9,0,0,0-.6-6.6c-1.6-2.6-4.4-2.8-7.1-2.8h-7.9a4,4,0,0,0-3.8,3.8,3.8,3.8,0,0,0,3.8,3.7Z"/><path d="M293.3,73.3a182.8,182.8,0,0,0-4.8,32.8c-.2,4.2,6.5,5.1,7.4,1l.4-2.2a3.7,3.7,0,1,0-7.2-2l-.5,2.2,7.4,1a177.4,177.4,0,0,1,4.5-30.8,3.7,3.7,0,0,0-7.2-2Z"/><path d="M295,74.9A159.4,159.4,0,0,1,307.2,106a3.7,3.7,0,0,0,4.6,2.6,3.8,3.8,0,0,0,2.6-4.6,168.1,168.1,0,0,0-12.9-32.8,3.7,3.7,0,0,0-6.5,3.7Z"/><path d="M298.7,102.9l11.5-3.3a3.7,3.7,0,0,0-2-7.2l-11.5,3.2a3.8,3.8,0,0,0,2,7.3Z"/><path d="M316.5,74.3a135.1,135.1,0,0,0,2.8,22,43.7,43.7,0,0,0,1.2,5.2c.5,2.1,1.2,4.4,3.6,5.1a4.1,4.1,0,0,0,5.3-3.9,4,4,0,0,0-5.1-4,3.8,3.8,0,0,0-2.6,4.6,3.9,3.9,0,0,0,4.6,2.6h.2l-2.9-.3h.1l-1.4-1.3-.3-2.3.9-1.7h-.1l1.7-.9H326l1.7,1,.4.6-.3-.9c-.1-.6-.3-1.2-.4-1.9s-.5-2.2-.8-3.3-.9-4.6-1.3-6.9A120.5,120.5,0,0,1,324,74.3a3.9,3.9,0,0,0-3.8-3.8c-1.9.1-3.9,1.7-3.7,3.8Z"/><path d="M322.6,79.2c.4-.2.4-.2.1-.1l.7-.2a5.8,5.8,0,0,1,1.4-.3h2.3l.7.2,1.5.4.7.2c-.4-.1-.3-.1.1.1l1,.5a12,12,0,0,1,3.5,3.2,12.6,12.6,0,0,1,2.1,4.9l.3,1.3c0,.4.1.5,0,.1s.1.5.1.8a16.1,16.1,0,0,1,0,3.1,10.9,10.9,0,0,1-1.6,5.1c-.2.2-.2.2,0,.1l-.5.5-1.1,1.1c.4-.4-.7.4-.8.5l-1.4.7-.8.4-1.5.6-2.9.9a3.8,3.8,0,1,0,2,7.3c3.9-1.3,8-2.7,11.1-5.5s4.9-7.9,5-12.5c.3-8.3-4-16.8-11.9-20.1a16.9,16.9,0,0,0-13.9.3,3.8,3.8,0,0,0,3.8,6.5Z"/><path d="M359,69.8c-6.6,1.8-10.6,8.5-10.8,15.1-.2,3.8,1,7.6,2.5,11.1s3.2,6.7,5.7,9c5.7,5.3,14,1.6,17.5-4.4S377,89.4,375,84.2s-7.1-11.4-13.7-13.1a3.8,3.8,0,0,0-2,7.3l1.5.4c.9.3-.4-.2.1.1l.7.3,1.2.7.7.4c.8.6-.6-.4.2.2a21.8,21.8,0,0,1,2.1,2.2h0l.5.6.9,1.5.6,1.4.3.7c.1.5.3.9.4,1.4a2.9,2.9,0,0,0,.2.9c0,.2.1,1.1,0,.2a13.1,13.1,0,0,1,.1,2.8v.9c0-.1.1-.8,0-.1a7.8,7.8,0,0,1-.5,1.8c0,.2-.1.4-.1.6l-.2.5c.2-.6-.2.4-.2.4l-.3.6-.5.7-.2.2-.5.5-.5.5c-.3.3-.4.3-.2.2s-.5.3-.4.3l-.6.3-.4.2-.6.2h-.9c-.3,0-.6-.2.1,0s-1-.2-.4,0a4.4,4.4,0,0,1-1.8-1.8,36,36,0,0,1-2.2-3.7,18.9,18.9,0,0,1-1.6-3.6,12.7,12.7,0,0,1-.6-1.8l-.3-1.1s-.2-1.1-.1-.7a10.7,10.7,0,0,1-.1-2.5v-.7c.1-1.1-.2.7.1-.4a14.6,14.6,0,0,1,.5-2l.3-.7c-.3.7.1-.2.2-.3a4.1,4.1,0,0,1,.5-.9l.2-.3a6.9,6.9,0,0,1,1.1-1.3l.3-.2.8-.5.6-.3.7-.2a3.8,3.8,0,0,0,2.7-4.6,4,4,0,0,0-4.7-2.7Z"/><path d="M398.3,72.8a10.4,10.4,0,0,0-16.5,12.1c1.5,3.4,4.7,5.5,7.6,7.6l.5.4.3.2.6.5.9.8.4.4.3.4c-.2-.4.3.4.4.6l.3.6c-.2-.6,0,0,.1.1s.2,1.4.2.7v1.5h0l-.3.9c0,.1-.3.8-.1.4l-.3.5c-.1.1-.4.6,0,.1a2.3,2.3,0,0,1-.7.7l-.3.3c.3-.3-.5.3-.5.3l-.6.3c.4-.2.1-.1-.1,0l-.7.2c-1,.2.3,0-.3,0h-.7c-.3,0-.8,0-.2.1l-1.7-.5c-1.9-.8-4.2.8-4.7,2.6s.7,3.8,2.7,4.6A11.8,11.8,0,0,0,400.2,94c-1.4-3.9-4.5-6.2-7.8-8.5l-.9-.7-.5-.3c.1.1.6.4.1,0a9.8,9.8,0,0,1-1.8-1.7l-.3-.3c-.4-.3.2.5,0,.1a4.1,4.1,0,0,0-.5-.9c-.3-.6,0-.1,0,.1a1.4,1.4,0,0,0-.2-.6s-.1-.6,0-.2,0-.4,0-.5v-.7c-.1.6,0,.1.1-.2l.2-.5v-.2l.2-.3.3-.4c.1-.1.6-.4.1-.1l.6-.3c.6-.4.2-.1.1-.1l.8-.2h1c-.7,0,.5.2.8.3s1,.8.4.3a3.9,3.9,0,0,0,5.3,0,3.7,3.7,0,0,0,0-5.3Z"/></svg>