<svg xmlns="http://www.w3.org/2000/svg" viewBox="0 0 512 298.3"><path d="M108.2,98.2c2.7-5.4,5.2-10.8,7.6-16.3.5,8.2.9,16.4,1.4,24.7l.8,15.1c.2,3.3,2.7,6.5,6.2,6.3s6.5-2.8,6.3-6.3c-1-17.6-1.9-35.3-2.9-52.9-.3-5.1-.6-10.1-.8-15.2a6.3,6.3,0,0,0-5.5-6.1c-3.2-.5-5.7,1.5-6.8,4.5l-3.9,10.3c-.8,1.7-1.5,3.5-2.2,5.3l-1,2.4a5.1,5.1,0,0,0-.4,1l-.3.6c-1.7,4-3.4,7.9-5.2,11.7l-1.4-1.8c-2.5-3.6-4.9-7.2-7.1-10.9s-4.2-7.4-6.1-11.2c-1-1.9-1.9-3.9-2.8-5.8l-1.2-2.8a1.4,1.4,0,0,1-.2-.6c-.1-.1-.1-.2-.2-.4a6.2,6.2,0,0,0-5.9-5.7,5.9,5.9,0,0,0-2.3.1c-2.9,1-5.7,4.5-4.4,7.7.1.1.1.1.1.2,0,18.5.7,37,2.3,55.5.5,5.4,1,10.8,1.6,16.2a6.6,6.6,0,0,0,1.9,4.4,6.4,6.4,0,0,0,4.4,1.9c3.1-.2,6.6-2.8,6.2-6.3C84.7,108.6,83.6,93.3,83,78A179.3,179.3,0,0,0,98.4,99.5C100.9,102.4,106.6,101.7,108.2,98.2Z"/><path d="M173.5,114h0Z"/><path d="M191,101.8c0-.1-.3.4-.2.6h0A1.7,1.7,0,0,0,191,101.8Z"/><path d="M189.8,122.1c10.3-6.5,14.8-17.9,16-29.5a81.3,81.3,0,0,0-.8-19.1c-.2-2.2-.5-4.3-.8-6.5a20,20,0,0,1-.4-2.4,5,5,0,0,0-.2-1.2v-.5c-.5-3.5-.8-7-1-10.6s-2.8-6.4-6.2-6.2-6.4,2.7-6.3,6.2c.3,6.4,1.2,12.7,2.1,19l.3,1.9v.2a2.2,2.2,0,0,1,.1.8l.6,4.6c.2,2.6.4,5.2.4,7.8s-.1,2.5-.1,3.7a9.2,9.2,0,0,0-.1,1.6,5.9,5.9,0,0,0-.2,1.3v.5c-.1.1-.1.1-.1.2h0c0,.3-.1.6-.1.8l-.3,1.6c-.3,1.3-.6,2.5-1,3.7l-.6,1.7H191c.1,0,0,.1-.1.3a.3.3,0,0,1-.1.2v.2h0a33,33,0,0,1-1.8,3.2,10,10,0,0,1-.8,1.4c-.1,0-.2.2-.3.4a25,25,0,0,1-2.3,2.3l-1,.8-.5.4-2.8,1.6-.6.3-1.1.4-3.1.7h-3.7l-1.3-.4-.9-.3-.8-.4-1.5-.9-.3-.3-1.3-1.2-.8-.9-.6-.8a33.8,33.8,0,0,1-3.4-6.2l-.2-.5a7.8,7.8,0,0,1-.5-1.4c-.5-1.3-1-2.7-1.4-4s-1.7-5.5-2.4-8.3-1.5-6.1-2-9.2c-.3-1.6-.6-3.2-.8-4.9h0c-.1-.4-.1-.7-.2-1.1a21.1,21.1,0,0,1-.2-2.6,122.9,122.9,0,0,1-.5-19.2,6.3,6.3,0,0,0-12.5,0,139.8,139.8,0,0,0,3.4,37.6,121,121,0,0,0,5.2,16.8c2.1,5.3,4.7,10.5,9,14.4a23.5,23.5,0,0,0,15.7,6.4A28.6,28.6,0,0,0,189.8,122.1Z"/><path d="M193.2,93.2c-.1-.2-.2,0-.1.7h0A2,2,0,0,1,193.2,93.2Z"/><path d="M182,40.1c3.2-3.1,6.5-6.1,9.8-9l5-4.1,1.3-1,.4-.3h0l2.8-2.1a6.5,6.5,0,0,0,2.8-3.7,6.2,6.2,0,0,0-.6-4.8,6.3,6.3,0,0,0-3.7-2.9,6,6,0,0,0-4.9.6,224.4,224.4,0,0,0-21.7,18.4c-2.3,2.3-2.5,6.6,0,8.9A6.4,6.4,0,0,0,182,40.1Z"/><path d="M247.2,53.2h0Z"/><path d="M238.1,117.4l-.6.3h0Z"/><path d="M249.5,53.2Z"/><path d="M231,118.5h0Z"/><path d="M250.1,53.3l.9.3.6.3c2.9,1.5,6.9.8,8.6-2.3s.8-6.9-2.3-8.5c-8.2-4.5-17.6-2.3-24.5,3.4s-9.6,15.7-8.2,24.8a39.3,39.3,0,0,0,4.6,12.8,70,70,0,0,0,8.1,10.7l1.8,2.1.8.9a1,1,0,0,0,.4.5l1.5,2.4a7.5,7.5,0,0,1,.7,1.2l.3.6a3.3,3.3,0,0,1,.3.6c0,.2.1.3.1.4a5.6,5.6,0,0,1,.4,1.2,5,5,0,0,1,.2,1.2.7.7,0,0,1,.1.5,22.6,22.6,0,0,0-.1,2.6v.2c-.2.5-.3,1-.5,1.6a12.1,12.1,0,0,1-.5,1.4c.6-1.8.1-.2-.2.3l-.9,1.5-.2.2a12.6,12.6,0,0,1-2,2l-.6.5-1.4.7h0c.1,0,.1.1-.4.2h-.2l-1.5.5-1.5.3h-4.1l-1.7-.4a6.2,6.2,0,0,0-7.7,4.3,6.3,6.3,0,0,0,4.3,7.7c9.1,2.8,19.9.1,26-7.3a24.8,24.8,0,0,0,5.6-13.7,23.9,23.9,0,0,0-3-13.4c-2-3.8-4.9-7-7.6-10.3a20,20,0,0,1-1.9-2.2l-.9-1-.3-.5a44.5,44.5,0,0,1-3.3-5.1l-.6-1.3-.2-.3h0a28.3,28.3,0,0,1-1.1-3.1l-.6-2.7c0-.2-.1-.4-.1-.6s-.1-.9-.1-1.4V63.6h0l.3-1.1c.1-.5.3-1.1.4-1.6l.3-.6c0-.2.1-.4.2-.4a5.4,5.4,0,0,1,.7-1.3l.5-.7.4-.5,1.8-1.7.4-.3,1.2-.8,1.2-.6h.1l2.4-.7h.3c.3-.1.6-.1.4,0h1Zm-15.8,65.3h0Zm.1-.1ZM239,74.7c0-.1-.1-.2-.1-.3A.4.4,0,0,1,239,74.7Zm-1.7-6.5ZM245,53.8h0Z"/><path d="M237.2,64.3h0c.1,0,.3-.4.1-.8h0C237.3,63.8,237.3,64.2,237.2,64.3Z"/><path d="M281.7,110.5c0,5.4,0,10.7-.1,16,0,3.2,2.9,6.4,6.3,6.2a6.2,6.2,0,0,0,6.2-6.2c.2-18.6.2-37.2.1-55.7,0-5.3,0-10.6-.1-15.9a6.3,6.3,0,0,0-6.2-6.3,6.5,6.5,0,0,0-6.3,6.3C281.8,73.4,281.8,92,281.7,110.5Z"/><path d="M358.5,46.3c-8.8-4.4-19-3.3-27.5,1.5s-14.2,13.5-16.8,23a71.6,71.6,0,0,0-2.3,15.3,127.1,127.1,0,0,0-.1,13.8c.4,5.3,1.4,10.6,4,15.4a27.2,27.2,0,0,0,10,10.2c8.9,5.4,20,6.1,30,4.1a6.4,6.4,0,0,0,4.4-7.7,6.5,6.5,0,0,0-7.7-4.4l-1.4.3h-1.2l-1.6.2a36.2,36.2,0,0,1-5.7-.1h-1.2l-2.9-.6-2.6-.7-1.1-.5h-.3a39.1,39.1,0,0,1-4.4-2.6l.3.2-.3-.3-.9-.8a6,6,0,0,1-.8-.8l-.6-.7c.8.9-.2-.4-.4-.6a10,10,0,0,1-.8-1.4l-.6-1.1a6.4,6.4,0,0,0-.2-.7,27.6,27.6,0,0,1-.8-2.7l-.3-1.6a6.4,6.4,0,0,0-.2-.7,85.3,85.3,0,0,1-.2-12.4c0-2.1.2-4.3.3-6.4l.3-2.9h0v-.3h.1V80l.3-1.8a48.5,48.5,0,0,1,1.6-6.3l.4-1.3c.2-.5,1-1.9.2-.4.5-1,.9-2.1,1.4-3a21.3,21.3,0,0,1,1.6-2.5c.2-.4,1.3-1.7,0-.2l.9-1.1,1.8-1.8.9-.8.4-.4a32,32,0,0,1,5.1-2.9l.3-.2,1.5-.5,2.9-.7h1.6a11.3,11.3,0,0,1,2.6.1h.5l1.5.4,1,.3.7.3c2.9,1.5,6.9.9,8.5-2.2S361.6,47.9,358.5,46.3Zm-14,9.8h.1C344.2,56.1,343.7,56.2,344.5,56.1Zm.1,0h0Z"/><path d="M324.9,80.3v.2c.3-1.1.2-.8.1-.5h0A.4.4,0,0,1,324.9,80.3Z"/><path d="M334.5,116Z"/><path d="M330.4,113.6Z"/><path d="M412.3,60.6c-1.4-6.3-2.5-13.1-6.2-18.6a6.5,6.5,0,0,0-6.3-3c-2.2.3-4.8,2.1-5.2,4.5q-5.4,31.9-12.4,63.6c-1.3,5.9-2.7,11.8-4.1,17.7-.7,3.2,1,6.9,4.4,7.7s6.9-1,7.7-4.4c1.6-6.9,3.2-13.8,4.7-20.7,1,.6,2,1.1,3,1.8l1.9,1.3.2.2.8.7c1.4,1.1,2.7,2.4,4,3.6a99.9,99.9,0,0,1,6.8,7.8h.1l.7,1,1.4,1.9c.9,1.2,1.7,2.5,2.5,3.8a6.3,6.3,0,0,0,7.8,2.6,6.4,6.4,0,0,0,3.6-7.4C422.8,103.4,417.4,82,412.3,60.6ZM396.9,51h0a4.3,4.3,0,0,0,.1.5A4.5,4.5,0,0,0,396.9,51Zm.7,44c1.6-7.7,3.1-15.5,4.6-23.2l1.5,6.4c1.9,8,3.9,16.1,5.9,24.2A37.5,37.5,0,0,0,397.6,95Z"/><path d="M84.7,204.4c-.5-6.6-.9-13.3-1.4-19.9-.2-2.7-1.8-5.4-4.6-6a6.3,6.3,0,0,0-7,2.9L52.8,215c-2.3-4.1-4.7-8.3-7.2-12.4-4-6.7-8.5-13.3-14.5-18.4a6.3,6.3,0,0,0-6.8-1.3,6.2,6.2,0,0,0-3.8,5.7q-.2,35.7,1.3,71.4.3,10,.9,20.1c.1,3.2,2.7,6.4,6.2,6.2s6.4-2.7,6.3-6.2q-1.8-35.7-2.2-71.3V206c.7,1.1,1.4,2.2,2,3.3,4.3,7.1,8.3,14.4,12.5,21.6a6.3,6.3,0,0,0,10.8,0c4.6-8.4,9.3-16.7,14-25l3.3,48.7,1.3,19.9c.2,3.2,2.7,6.4,6.3,6.2s6.5-2.7,6.2-6.2Q87,239.4,84.7,204.4Z"/><path d="M144.3,181.8H122.6c-2.2,0-4.4-.1-6.6,0s-5.5,1-7.7,3.1-2.6,5.5-2.4,8.7l1.2,14.4,4.8,57.9c.3,3.4.3,6.9,2.7,9.5s6.2,2.7,9.6,2.4l16.1-1.2c3.2-.2,6.4-2.7,6.2-6.2s-2.7-6.5-6.2-6.3l-13.1,1-2.9.2-2.1-26c-.2-2-.3-4.1-.5-6.2h19.5a6.3,6.3,0,0,0,6.3-6.2,6.5,6.5,0,0,0-6.3-6.3H120.7c-.3-2.6-.5-5.2-.7-7.9-.4-4.4-.7-8.8-1.1-13.2-.1-1.7-.3-3.5-.4-5.2h25.8c3.3,0,6.4-2.8,6.2-6.2A6.3,6.3,0,0,0,144.3,181.8ZM121,265.5Z"/><path d="M212.2,219.3c-2.4-8.7-6.6-17.1-13.1-23.4s-14.8-10.6-23.8-11.2a5.5,5.5,0,0,0-2.6-.6,6.6,6.6,0,0,0-5.8,4,5.2,5.2,0,0,0-.6,2.8,5.9,5.9,0,0,0,.2,1.3c.1,21.2.4,42.4,1.1,63.5l.6,18.4a6.4,6.4,0,0,0,6.3,6.3,5.3,5.3,0,0,0,2.4-.6,5.3,5.3,0,0,0,4.3.4c8.2-2.4,16.3-5.2,22.9-10.8s10-15,10.7-24a81.3,81.3,0,0,0-.2-12.1A90.9,90.9,0,0,0,212.2,219.3Zm-10.1,28a.6.6,0,0,1-.1.4,5,5,0,0,1-.2,1.2c-.2.9-.4,1.9-.7,2.9s-.4,1.2-.7,1.9-.3.6-.2.6l-.7,1.2a16.4,16.4,0,0,1-1.4,2.2h0l-1.1,1.1a18,18,0,0,1-2,1.9h-.3l-1.2.8a31.5,31.5,0,0,1-5.1,2.8l-.4.2h-.2l-1.1.5-2.9,1-2.2.7h-1.1c-.7-19.4-1.2-38.7-1.4-58.1,0-3.6-.1-7.2-.1-10.8l2.6.8,1.2.6a17.1,17.1,0,0,1,2.3,1.3,11,11,0,0,1,2.1,1.4l.6.4.8.6,3.7,3.7.7.9.2.3h0l.3.3-.2-.2a14.3,14.3,0,0,1,1.5,2.2,39.2,39.2,0,0,1,2.9,5.3l.5,1.2c-.8-1.5,0-.2.1.3l1.1,3a51.2,51.2,0,0,1,1.5,5.6,27.4,27.4,0,0,1,.5,2.8l.3,1.5a1.3,1.3,0,0,0,.1.6h0a105.2,105.2,0,0,1,.7,11.2C202.4,243.7,202.2,245.5,202.1,247.3Z"/><path d="M193.3,208.1h-.2v-.2Z"/><path d="M188,264.8l.3-.2h.1l-.6.2Z"/><path d="M241.4,189.2c-.2-3.3-2.8-6.4-6.3-6.2s-6.4,2.7-6.2,6.2c.9,23,1.4,46.1,1.3,69.2,0,6.4-.1,12.9-.2,19.4,0,3.3,3,6.4,6.3,6.2a6.2,6.2,0,0,0,6.2-6.2c.4-23.1.2-46.1-.4-69.2C241.9,202.1,241.6,195.7,241.4,189.2Z"/><path d="M280.1,256.2h0Z"/><path d="M287.7,197.1a11,11,0,0,1,1.4-.9l3.1-1.9,1.7-.8.4-.2,3.1-1.1,3.4-.8,1.4-.3h.4a33.7,33.7,0,0,1,7.1.1,6.1,6.1,0,0,0,4.4-1.9,5.9,5.9,0,0,0,1.8-4.4,6,6,0,0,0-1.8-4.4,7.2,7.2,0,0,0-4.4-1.8c-9.6-1.1-19.6,1.8-27.5,7.1a49.8,49.8,0,0,0-19.3,24.8,59.7,59.7,0,0,0-2.2,31.6c2,10.3,7,20.5,14.9,27.4a33,33,0,0,0,16.3,8.3,28.3,28.3,0,0,0,19.9-3.7c2.7-1.7,4.1-5.6,2.2-8.5s-5.6-4.1-8.5-2.3l-1.4.9-1,.4h0l-.3.2-.8.2-1.7.5-.9.2c.5-.2-.2,0-.4,0h-4.7l-1.8-.4-1.5-.5-.7-.3-2.7-1.4-1.3-.8-.6-.5c-.2-.3-.9-.6-1.1-.9l-1.2-1-2.4-2.6a7.3,7.3,0,0,0-.9-1.1c.2.2.6.8.2.2l-.3-.3h0c0-.1-.1-.2-.2-.3a32.8,32.8,0,0,1-2-3.1c-.6-1-1.1-2-1.6-3s-.5-.9-.7-1.4-.4-1,0-.1-.1-.2-.2-.4a48.8,48.8,0,0,1-2-6.5c-.3-1.1-.5-2.1-.7-3.2s-.1-.9-.2-1.4-.1-.6-.1-.9c-.2-2.3-.3-4.6-.3-7s.1-2.1.2-3.2.1-1,.2-1.5.1-.5.1-.8c.4-2.2.9-4.4,1.5-6.5s.6-2,1-3l.3-.8c0-.1.6-1.3.1-.3h.1l.4-.9a47.1,47.1,0,0,1,3.2-5.8l1-1.4c.1-.1.2-.2.2-.3s1.5-1.7,2.2-2.5l2.3-2.2,1.1-1,.6-.5c.2-.2,1.1-.8.2-.2l-.3.2.6-.4Zm-15.4,27.4Z"/><path d="M341.7,191.9c-.2-3.2-2.8-6.4-6.3-6.2s-6.4,2.7-6.2,6.2c1,20.9,1.5,41.9,1.3,62.8,0,6-.1,11.9-.3,17.9a6.5,6.5,0,0,0,6.3,6.3,6.4,6.4,0,0,0,6.2-6.3q.8-31.4-.3-62.7C342.2,203.9,342,197.9,341.7,191.9Z"/><path d="M422.8,173c-3.2-.8-7.1.9-7.7,4.3a164.1,164.1,0,0,0-2.4,21.1c-.4,5.7-.7,11.4-1,17.1-.6,10.9-1,21.7-1.6,32.6-8-16.3-15.1-33-22.6-49.5-2.8-6.2-5.6-12.3-8.6-18.3a5.7,5.7,0,0,0-2.3-2.3,5.9,5.9,0,0,0-4.3-1.7,6.2,6.2,0,0,0-6.2,6.2q-1.1,34.4-2,68.7l-.6,19.4a6.3,6.3,0,0,0,6.2,6.3,6.5,6.5,0,0,0,6.3-6.3l1.8-63.3c7.4,16.3,14.5,32.7,22.4,48.7,2.9,6,6,11.9,9.4,17.8a6.1,6.1,0,0,0,7,2.8,6.4,6.4,0,0,0,4.6-6c1.9-23.1,2.3-46.4,3.8-69.6.2-3,.4-6.1.7-9.1l.6-6.3v-.4a5,5,0,0,0,.2-1.2l.6-3.4C427.8,177.4,426.2,173.7,422.8,173Z"/><path d="M495.3,265.4l-9.1-36.1c-2.7-10.6-5.2-21.3-9.4-31.4a89.9,89.9,0,0,0-9-17.1,6.7,6.7,0,0,0-5.4-3.1c-2,0-4.6,1.2-5.4,3.1-4.8,11-7.4,22.4-9.5,34.1s-4,23.9-6.1,35.8L438,271.2a6.6,6.6,0,0,0,.6,4.8,6,6,0,0,0,3.7,2.9c3,.7,7.1-.9,7.7-4.4,2-11.5,3.9-23,5.9-34.5l.8.2c.3.1,1,.6,1.4.6l.4.2,2.5,1.3,2.7,1.7,1,.7.2.2h.1l4.5,4c1.4,1.6,2.9,3.2,4.1,4.8l.5.7.8,1.1c.7,1,1.4,2,2,3,2.5,3.8,4.7,7.7,6.9,11.6a6.3,6.3,0,0,0,7.8,2.6A6.4,6.4,0,0,0,495.3,265.4Zm-37.4-37.9c1.3-7.7,2.7-15.5,4.5-23.1.4-1.8.8-3.6,1.3-5.4a20,20,0,0,1,1,2.1v.3c.1.2.1.3.2.4l.7,1.8c.5,1.3,1,2.6,1.4,3.9s1.7,5.1,2.5,7.7c2.1,7.3,4,14.8,5.8,22.2A44.2,44.2,0,0,0,457.9,227.5Z"/></svg>