<svg xmlns="http://www.w3.org/2000/svg" viewBox="0 0 512 125.4"><path d="M61.3,19.8C48,11.2,28.6,9.4,16.7,21.2A29.3,29.3,0,0,0,8,40.8a24.5,24.5,0,0,0,8.8,18.9C22,64,28,66.6,33.8,69.9l3.9,2.3,1,.7.4.3.4.3,1,.9L42,75.9l.6.8.4.4-.3-.4a30.3,30.3,0,0,1,2.4,3.8,10.4,10.4,0,0,0,.4,1c.1.2.2.3.2.5s-.4-1.3-.2-.6a19.5,19.5,0,0,1,.8,2.2,20.7,20.7,0,0,1,1,4.3,1.3,1.3,0,0,1,.1.6c0,.1-.1-1.4-.1-.8s.1.8.2,1.1.1,1.6.1,2.4a12.7,12.7,0,0,1-.1,2,3.7,3.7,0,0,1-.1,1.1c0,.3-.2,1.8,0,.7s0,.1-.1.4-.1.7-.2,1.1l-.6,2.3a14.6,14.6,0,0,1-.7,1.9,1.4,1.4,0,0,1-.2.6c-.2.6.4-.8.3-.7a11.7,11.7,0,0,0-.5,1.1c-.7,1.4-1.6,2.6-2.4,3.9s.5-.7.5-.6a1,1,0,0,0-.4.5l-.7.7-1.6,1.7-.9.7a1,1,0,0,1-.5.4l.6-.4-1.9,1.3L36.2,111l-.9.4-.6.3.6-.2-4.4,1.4-2.2.4c-.5.1-1.7.1.2,0H27.6a21.4,21.4,0,0,1-4.4.1H22.1c-.5-.1-1.7-.4.2,0l-2.2-.4a31.9,31.9,0,0,1-4.4-1.3c-1.2-.4,1,.5.1.1l-1-.5-2.1-1.2L11,109c-.6-.4,1.1.8.5.3l-.4-.3-.9-.8c-2.4-2.1-6.2-2.5-8.5,0s-2.5,6.2,0,8.5c10.8,9.7,26.8,11.2,39.8,5S61,101.3,59.3,87.6a35.8,35.8,0,0,0-8.5-19.7c-4.4-5.1-10.5-8.2-16.3-11.2A66.8,66.8,0,0,1,26.3,52l-.9-.6c-.8-.6,1,.8.3.2L23.9,50l-1.5-1.6c-.8-.9.6.9.1.1a6.1,6.1,0,0,1-.7-1,19.8,19.8,0,0,1-1.1-2c-.5-.9.4,1.2.1.3l-.4-1.2a7.8,7.8,0,0,1-.4-2.1s.1,1.6.1.7a1.1,1.1,0,0,1-.1-.5V41.5c0-.8.1-1.5.1-2.2s-.2.9-.1.8a1.3,1.3,0,0,1,.1-.6,5,5,0,0,1,.2-1.2c.2-.7.4-1.5.6-2.1l.3-.9c.4-.9-.2.5-.2.5l.3-.6a25,25,0,0,1,2.3-3.9c.4-.6-.5.6-.4.5l.4-.5.7-.8c.6-.6,1.1-1.2,1.7-1.7l.9-.7c.5-.4-.6.5-.6.4a.9.9,0,0,0,.5-.3A10,10,0,0,1,28.7,27l1.1-.5.6-.4c.6-.2-.5.3-.5.3a21.3,21.3,0,0,0,2.7-.9,19.8,19.8,0,0,1,2.6-.6c1.4-.2-1,.1.1,0h1.5a46.9,46.9,0,0,1,5.3.1c.4.1,1,.3-.4,0h.5l1.4.2,2.8.7,2.6.9,1.2.5s-1.1-.5-.5-.3l.9.4a43.9,43.9,0,0,1,4.7,2.7,6.1,6.1,0,0,0,8.2-2.2,6.1,6.1,0,0,0-2.2-8.1Z"/><path d="M144.4,17.2,143,93.8l-.4,21.4A6.2,6.2,0,0,0,147,121c2.5.5,5.5-.4,6.7-2.8l2-3.7c1.4-2.8.8-6.6-2.2-8.2s-6.6-.8-8.2,2.2l-1.9,3.7,11.1,3,1.4-76.6.4-21.4a6,6,0,1,0-11.9,0Z"/><path d="M153.6,24.9l4.1-.8,1.8-.3h1.3l3.9-.2h3.1c1.2.1-.8-.2,0,0l3,.7.8.3c.5.2.9.6-.3-.2l1.6.8,1.2.7a1,1,0,0,1,.5.4c1.1.6-.8-.8-.2-.2l2.3,2.2c-1.2-1.2-.3-.3,0,.2l.4.7c.3.6.2,1-.1-.3.1.4.3.8.4,1.3s.1.4.2.6-.1-1.2,0-.1a8.5,8.5,0,0,1,0,1.6c0,.3-.1.7,0,.9s.2-1.5,0-.5l-.3,1.4-.3.9c-.5,1.3.3-.6,0,0s-1,1.8-1.6,2.7a4.3,4.3,0,0,0-.4.7c-.8,1,.6-.8.1-.2a8.6,8.6,0,0,1-1.3,1.4,17,17,0,0,1-2.4,2.2c-.9.9.9-.6.2,0l-.9.6L169,43.5c-5.2,3.3-10.6,6-15.5,9.8-1.8,1.4-2.1,4.5-1.2,6.5a6,6,0,0,0,5.4,3.7l5.4.2,2.6.2,1.3.2h.7c.9,0-.2-.1-.4-.1,1.7.4,3.5.5,5.2,1l2.5.7,2.5.9-.4-.2.5.2,1.1.6,2.2,1.4.5.3-.4-.3,1,.8,1.8,1.8c.1.2,1,1.2.3.4l.3.4,1.2,2,.5,1c.4.9-.5-1.4-.1-.1a20.9,20.9,0,0,1,.8,2.3,14.3,14.3,0,0,1,.4,2.2.6.6,0,0,1,.1.4c.1.8-.1-1.4-.1-.6a5.7,5.7,0,0,1,.1,1.3,24.6,24.6,0,0,1-.1,4.7v.5c-.1.7.2-1.4.1-.6a3.6,3.6,0,0,0-.2,1.1l-.6,2.4a15.9,15.9,0,0,1-.7,2c-.1.4-.8,1.8,0,.1l-.5,1.2a25.5,25.5,0,0,1-2.4,3.9l-.3.5.3-.4-.7.8a18.9,18.9,0,0,1-2,2,12.9,12.9,0,0,1-1.7,1.6c-1.1.9.8-.6-.1,0l-1.1.8a34.7,34.7,0,0,1-4.5,2.6l-1.5.7.6-.3-.8.4-2.8.9a50.9,50.9,0,0,1-5.6,1.4l-1.5.2c1.8-.3.3,0-.2,0l-3.1.3c-2,.1-4,0-6-.1s-6.1,2.9-6,6a6.2,6.2,0,0,0,6,6c16,1,34.3-5,42.8-19.6a35.3,35.3,0,0,0,4.1-23.4,27.9,27.9,0,0,0-13.6-19.1c-8.3-4.7-18.2-5.3-27.5-5.7L162,61.7l.8-.6,1.7-1.1,3.8-2.3c2.4-1.4,4.9-2.7,7.2-4.3,5-3.3,9.6-7.5,12-13s2.9-12.7-.7-18.3A23.1,23.1,0,0,0,173,12.4c-7.5-2-15.2-.5-22.5,1a5.9,5.9,0,0,0-4.2,7.3c1,3.3,4,4.8,7.3,4.2Z"/><path d="M215.8,15.9V116.6c0,3.2,2.7,6.2,5.9,6a6,6,0,0,0,6-6v-5.9c0-3.2-2.7-6.2-6-6a6,6,0,0,0-5.9,6v5.9c0,3.2,2.7,6.2,5.9,6a6,6,0,0,0,6-6V15.9c0-3.2-2.7-6.2-6-6a6,6,0,0,0-5.9,6Z"/><path d="M225.9,28.8a30.3,30.3,0,0,1,3.8-2.4l1-.5.5-.2c.1,0-1.2.5-.6.3l2.3-.8,2.3-.6,1-.2h4.2l1.1.2,2.1.7c1,.3-1.1-.5-.1-.1l.9.5.9.5.6.4c-.8-.7.1.1.3.3l.7.6.7.7c.1.2.9,1.2.3.3s0,.1.1.3a2.2,2.2,0,0,1,.5.8,9.1,9.1,0,0,1,.9,1.7c.5.9-.4-1.3-.1-.3l.3.9a13.9,13.9,0,0,1,.6,1.9l.3,1.9c.2.6-.1-1-.1-.9a1.1,1.1,0,0,1,.1.5,3.7,3.7,0,0,0,.1,1.1,29.5,29.5,0,0,1-.2,4.2c-.1,1,.3-1.4.1-.3s-.1.6-.2.9a16,16,0,0,1-.5,2.1,12.1,12.1,0,0,1-.5,1.8l-.4.9c-.4,1.2.5-.9.1,0s-1.3,2.4-2,3.6l-1.5,2,.4-.5-.4.5-.8,1L241.4,56l-2,1.7-1.1.8c-.5.4.5-.3.5-.3l-.7.4c-1.4,1.1-2.9,2.1-4.4,3.1-3.1,2-6.4,3.8-9.7,5.6s-4,5.7-2.1,8.2a397.2,397.2,0,0,0,33.4,38.8,6.1,6.1,0,0,0,8.5,0,6.2,6.2,0,0,0,0-8.5C258,100,252.4,94,247,87.7c-2.6-3-5.2-6.1-7.7-9.2l-3.9-4.9-.9-1.1-.4-.5-1.9-2.5L230,77.6c12.8-6.9,26.5-15.5,31.1-30.2,1.9-6.3,2.1-13.6-.3-19.7s-8.5-12.8-16.2-14.6-17.7.3-24.7,5.3a7.1,7.1,0,0,0-2.8,3.6,6.2,6.2,0,0,0,.6,4.6c1.6,2.5,5.5,4.1,8.2,2.2Z"/><path d="M276.1,20.8q3.8,32.9,5.3,66c.3,6.2.5,12.5.7,18.7,0,3.5,2.6,5.7,5.9,6a143.9,143.9,0,0,0,35.3-1.3,5.9,5.9,0,0,0,3.6-2.8,5.6,5.6,0,0,0,.6-4.6,5.6,5.6,0,0,0-2.7-3.5,6.7,6.7,0,0,0-4.6-.6l-2.1.3h-.9l-4.2.4c-2.7.3-5.5.5-8.3.6a155.4,155.4,0,0,1-16.7-.6l6,6q-.9-33.1-4-66.1c-.6-6.2-1.2-12.4-1.9-18.6a6.7,6.7,0,0,0-1.8-4.3,5.9,5.9,0,0,0-4.2-1.7c-2.9.1-6.3,2.6-6,6Z"/><path d="M282.9,67.7a54.3,54.3,0,0,0,35.7-3.6c2.8-1.3,3.7-5.6,2.1-8.1s-5.1-3.6-8.2-2.2l-.9.4c-.8.4,1-.4.2-.1l-1.7.7-3.6,1.1-3.7.8-2,.4c.3-.1,1.1-.2.3-.1h-1a47,47,0,0,1-7.5.1l-1.9-.2h-.8c1.5.1.5.1.1,0a27,27,0,0,1-3.9-.8c-3-.7-6.6,1-7.3,4.2s.9,6.6,4.1,7.4Z"/><path d="M284.3,27.6l42-6.9a5.9,5.9,0,0,0,3.5-2.7,5.8,5.8,0,0,0,.6-4.6c-1-3.4-4-4.8-7.3-4.2l-42,6.9a5.3,5.3,0,0,0-3.5,2.7,5.8,5.8,0,0,0-.6,4.6c1,3.4,4,4.7,7.3,4.2Z"/><path d="M394.4,112.1q1.1-30.9,3.5-61.7c.5-5.9,1-11.7,1.6-17.5l-10.2,4.2,2.1,2.6.8,1,.4.5c1.2,1.5,2.4,3.1,3.5,4.7A118.6,118.6,0,0,1,403,56.4a171,171,0,0,1,11.4,22.1c.8,1.9,3.2,3,5.1,3a6.1,6.1,0,0,0,5.2-3l26.5-41.7-11.1-3,5.1,54.9,1.4,15.6a6.7,6.7,0,0,0,1.8,4.2,5.9,5.9,0,0,0,4.2,1.7c3-.1,6.3-2.6,6-5.9l-5.1-54.9L452,33.8a6.3,6.3,0,0,0-4.4-5.8,6.3,6.3,0,0,0-6.7,2.8L414.4,72.5h10.3a177.1,177.1,0,0,0-27-43.9c-1.5-1.8-4.5-2.1-6.5-1.2a6.2,6.2,0,0,0-3.7,5.5q-2.8,30.8-4.4,61.6c-.2,5.9-.5,11.7-.7,17.6a6.1,6.1,0,0,0,6,6,6.3,6.3,0,0,0,6-6Z"/><path d="M477.7,49.4v57.9a6.1,6.1,0,0,0,5.9,6,6.2,6.2,0,0,0,6-6V49.4a6,6,0,0,0-11.9,0Z"/><path d="M486.7,21l22.4-10a6,6,0,0,0,2.7-3.5,6.1,6.1,0,0,0-.6-4.6c-1.9-3-5.1-3.6-8.2-2.2l-22.3,10a5.8,5.8,0,0,0-2.7,3.6,5.8,5.8,0,0,0,.6,4.6c1.9,3,5.1,3.5,8.1,2.1Z"/><path d="M118,28.7a18.5,18.5,0,0,0-9.8-6.9A23.6,23.6,0,0,0,97,21.7c-7.5,1.9-13.4,7.9-16.9,14.6s-5.9,16.1-7,24.5a75,75,0,0,0,.3,24.1,40,40,0,0,0,8.4,18.2c4.4,5.3,11.5,8.7,18.4,8,8.6-1,15.8-6.2,20.4-13.4s6-14.9,7.4-22.7c2.6-14.2,4.7-30.3-2.9-43.5a36.1,36.1,0,0,0-3.6-5.1c-2-2.4-6.4-2.2-8.5,0a6.3,6.3,0,0,0,0,8.5l.4.4-.4-.5.6.9a13.7,13.7,0,0,1,1.3,2l1,2a1.7,1.7,0,0,1,.2.5c.3.6-.2-.6-.2-.6s.3.8.4,1.2a33.8,33.8,0,0,1,1.3,4.2c.1.7.3,1.4.4,2.2s.1.7.2,1v-.7a2.2,2.2,0,0,0,.1.8,59,59,0,0,1,.1,9.4c-.1,1.7-.2,3.3-.4,5l-.3,2.2c0,.1.2-1.3.1-.6v.5a6.9,6.9,0,0,0-.2,1.3c-1,6.7-2.1,13.5-4.4,19.8-.1.4-.3.8-.4,1.1a6.9,6.9,0,0,1-.3.8s.5-1.1.2-.5l-1.2,2.4-1.2,2.2-.6.9-.4.4c-.4.6.8-.9.3-.3a25,25,0,0,1-3.2,3.3,1.5,1.5,0,0,0-.6.5c0-.1,1-.8.5-.4l-.9.6-2.1,1.2-1,.5.6-.3-.5.2-2.2.6h-.6s1.4-.1.7-.1H97.9c-.3,0-1.7-.2-.6,0s0-.1-.3-.1l-.9-.2-.8-.3h-.4l.6.2a10.1,10.1,0,0,1-3.2-1.8l.6.5c0-.1-.2-.2-.3-.3l-.8-.7L90.5,95l-.6-.7.5.6-.3-.4A9.9,9.9,0,0,1,89,92.8a39,39,0,0,1-1.9-3.5c-.5-1.2.4,1,.1.1l-.4-.9a11.8,11.8,0,0,0-.7-2c-.4-1.3-.7-2.7-1-4l-.3-1.9-.2-.9s.2,1.3.1.8a1.9,1.9,0,0,0-.1-.8,99.2,99.2,0,0,1-.3-10.9c.1-2,.2-3.9.4-5.8s.1-.9.2-1.4-.2,1,0-.1.3-1.9.5-2.9a77.8,77.8,0,0,1,2.8-10.8l.7-2.1a4.9,4.9,0,0,0,.4-1.1c.4-.9-.5,1.2.1-.1a31.7,31.7,0,0,1,2.1-4.1l1.3-2,.4-.4c0-.1-.8.9-.4.5l.8-1a12.1,12.1,0,0,1,1.6-1.6l.8-.7c.7-.6-1,.7.1,0l1.7-1.1.8-.4-.7.3.8-.3,1.8-.5,1-.2h2.6c1,0-1.4-.3-.2,0l1.8.5c1.2.3-1-.6-.1-.1l.9.5.8.4c.5.3-.6-.5-.6-.4l.3.3c.5.4,1.8,2,.7.4a6.5,6.5,0,0,0,3.5,2.8,6.1,6.1,0,0,0,4.6-.6c2.5-1.6,4.2-5.5,2.2-8.2Z"/></svg>