<svg xmlns="http://www.w3.org/2000/svg" viewBox="0 0 512 109"><path d="M56.9,8.8C44.6.8,26.6-.9,15.5,10.1a26.8,26.8,0,0,0-8,18.2,22.3,22.3,0,0,0,8.1,17.5c4.8,4,10.4,6.5,15.8,9.5,1.2.7,2.5,1.4,3.6,2.2l.9.6c.2.1,1.2.8.4.3l.4.3.9.8A9.3,9.3,0,0,1,39,60.9l.6.7c.1.1.2.3.4.4s-.8-1-.4-.4a21.6,21.6,0,0,1,2.2,3.6l.5.9c.1.1.1.3.2.4s-.5-1.2-.2-.5.5,1.3.7,2,.7,2.7,1,4,.1.4.1.6-.2-1.4-.1-.8a4.1,4.1,0,0,0,.1,1.1c0,.7.1,1.4.1,2.2a12.8,12.8,0,0,1-.1,1.9v1c-.1.2-.2,1.6-.1.6s0,.1-.1.4a3.6,3.6,0,0,1-.2,1,16,16,0,0,1-.5,2.1l-.6,1.8a1.7,1.7,0,0,0-.2.5c-.3.6.3-.7.2-.6s-.3.7-.5,1a26.7,26.7,0,0,1-2.2,3.6c-.3.5.5-.6.5-.5l-.4.4-.6.7-1.6,1.6-.7.7-.5.3c0,.1,1-.7.6-.4l-1.8,1.3-1.8,1-.8.4-.5.2.5-.2c-1.4.4-2.7,1-4.1,1.3l-2,.4c-.5.1-1.6.1.1,0H20.5c-.5-.1-1.6-.3.2,0l-2.1-.3a26.7,26.7,0,0,1-4-1.3c-1.1-.4.9.5.1.1l-.9-.5-2-1-1.5-1.1c-.6-.4.9.8.4.3l-.4-.2-.9-.8a5.5,5.5,0,0,0-7.8,7.8c10,9.1,24.9,10.5,36.9,4.7S56.6,84.4,55,71.7a33.5,33.5,0,0,0-7.8-18.3c-4.1-4.7-9.7-7.5-15.1-10.3a57.7,57.7,0,0,1-7.6-4.4l-.9-.6c-.8-.5.9.8.2.2l-1.6-1.5c-.5-.4-.9-1-1.4-1.5s.6.9.1.1l-.7-.9a11.4,11.4,0,0,1-1-1.9c-.4-.8.4,1.2.1.3L19,31.8a6.5,6.5,0,0,1-.5-2s.2,1.6.1.7V30c0-.3-.1-.7-.1-1.1s.1-1.3.1-2-.1.8-.1.7a4.3,4.3,0,0,0,.1-.5,5,5,0,0,0,.2-1.2l.6-1.9.3-.9c.3-.8-.2.5-.2.6a1.4,1.4,0,0,0,.2-.6c.7-1.3,1.4-2.5,2.2-3.7s-.4.6-.4.6l.4-.5.7-.8a11.4,11.4,0,0,1,1.6-1.5,2.7,2.7,0,0,1,.8-.7c.4-.4-.6.4-.6.4l.5-.3,1.8-1.1.9-.5.7-.3-.5.2c.1.1,2.2-.8,2.5-.8l2.4-.6c1.3-.2-.9.1.1,0h1.4a26.8,26.8,0,0,1,4.9.2h.1l1.2.2,2.7.7,2.4.8,1.1.4-.5-.2.8.4a30.9,30.9,0,0,1,4.4,2.4,5.5,5.5,0,1,0,5.6-9.5Z"/><path d="M74.4,9.6l-1.8,73-.5,20.7a5.6,5.6,0,0,0,5.5,5.6h28.2a5.6,5.6,0,1,0,0-11.1H77.6l5.6,5.5L85,30.4l.5-20.8a5.6,5.6,0,0,0-11.1,0Z"/><path d="M83.4,54.6h27.9a5.6,5.6,0,0,0,0-11.1H83.4a5.6,5.6,0,1,0,0,11.1Z"/><path d="M82.7,16.5l1.7-.2h.8c.9-.2-.1-.2-.2,0s1.6-.2,1.9-.3h1.7c2.4-.3,4.7-.5,7.1-.6,4.7-.2,9.5-.2,14.2,0a5.4,5.4,0,0,0,5.5-5.5,5.6,5.6,0,0,0-5.5-5.6A152.7,152.7,0,0,0,79.7,5.8a6,6,0,0,0-3.3,2.6,5.4,5.4,0,0,0-.5,4.3c1,3.1,3.7,4.3,6.8,3.8Z"/><path d="M128.2,12.3c1.9,23,3.4,46,4.3,69l.6,19.4c0,2.9,2.5,5.7,5.5,5.5a5.6,5.6,0,0,0,5.6-5.5q-.9-34.7-3.4-69.1l-1.5-19.3c-.3-2.9-2.4-5.7-5.6-5.6s-5.8,2.5-5.5,5.6Z"/><path d="M142.8,15.4c-1.5,1.2.1,0,.5-.2l1.4-.7c.6-.4-1.4.5-.4.2l.8-.3,1.8-.5h.7c-1.7.4-.8.1-.3.1h3.1c.5,0,1.2.4-.3-.1l.9.2,1.6.4.8.3c.4.1,1.1.6-.3-.2l3,1.7c.3.2.5.6-.5-.3l.7.5,1.2,1.2c.1.1.2.3.4.4s-.5-.6-.2-.2l1.3,2.3a2.1,2.1,0,0,1,.3.7l-.2-.6c.1.2.1.5.2.7a14.2,14.2,0,0,1,.7,2.2l.3,1.7c.1.5.1,1.4,0-.3,0,.4.1.8.1,1.2a18.2,18.2,0,0,1,0,3.3c0,.5-.1,1-.1,1.5.1-1.7.1-.7,0-.2s-.1.8-.2,1.1l-.9,3.2a8.8,8.8,0,0,0-.5,1.5c.5-1.6.2-.6,0-.2l-.5,1.1-1.7,2.8-.8,1.3c-.7.9.8-1,.1-.2l-.8,1-2.8,2.8-.5.4c-1.1.9.9-.6,0,0L150,46.3l-3.5,1.8.5-.2-1.1.4a16.6,16.6,0,0,1-2.1.6c-4.2,1-5.2,6.3-2.4,9.3s4.7,5.2,6.9,8l.6.9c-.9-1.1,0-.1.2.2l1.7,2.3,2.9,4.2a133.4,133.4,0,0,1,10.2,18.5l.5,1.2.3.7c.3.7,0,0-.1-.3a16.2,16.2,0,0,1,1.1,2.8l2.1,5.7c.9,2.7,3.8,4.8,6.8,3.9s4.9-3.9,3.9-6.9a136.6,136.6,0,0,0-21-39.3c-2.7-3.4-5.4-6.6-8.3-9.8l-2.4,9.3c11.6-2.8,21-12.9,23.8-24.5a31.1,31.1,0,0,0-1.5-19.5,21.3,21.3,0,0,0-14-12,23.7,23.7,0,0,0-10.6-.5A20.9,20.9,0,0,0,135,7.6a5.4,5.4,0,0,0-1.7,3.9,5.2,5.2,0,0,0,1.7,3.9,5.6,5.6,0,0,0,3.9,1.7,6.6,6.6,0,0,0,3.9-1.7Z"/><path d="M179.8,10q9.4,36,20.3,71.5l6.3,20.1c.7,2.2,2.9,4.2,5.3,4.1a5.8,5.8,0,0,0,5.4-4.1C223,77.7,229,53.8,234.9,29.8l5-20.1c.7-2.9-.9-6.2-3.8-6.9a5.8,5.8,0,0,0-6.9,3.9L211.4,78.4l-5,20.2h10.7q-11.2-35.4-21.2-71.3c-1.8-6.7-3.7-13.5-5.4-20.3a5.6,5.6,0,0,0-10.7,3Z"/><path d="M256.5,5.6q0,35.4,2.8,70.8c.5,6.7,1.1,13.5,1.8,20.2a5.7,5.7,0,0,0,1.6,3.9,5.1,5.1,0,0,0,3.9,1.6c2.8-.1,5.9-2.4,5.6-5.5-2.4-23.5-3.8-47.1-4.4-70.8-.1-6.7-.2-13.5-.2-20.2A5.7,5.7,0,0,0,262,0a5.6,5.6,0,0,0-5.5,5.6Z"/><path d="M330.3,2.1c-10.6-2.4-21.6,2-28.9,9.9s-10.7,19.8-11.6,30.9-.4,20.5,3.1,29.9a41.4,41.4,0,0,0,8.3,13.8,31.4,31.4,0,0,0,11.9,7.9c9.7,3.9,21.8,2.7,29.2-5.1,2-2.1,2.3-5.8,0-7.8a5.5,5.5,0,0,0-7.8,0l-1,1-.5.4.5-.4-2.4,1.5c-.5.3-2,.8-.2.2l-1.1.4-2.7.7h-.7c-.7.2,1.5-.1.5,0h-5.5l-2.9-.7-2.5-.9c1.7.5.1,0-.4-.2l-1.3-.7L312,81.5l-.6-.4c-.4-.3-.6-.8.3.2l-1.1-.9a18,18,0,0,1-1.9-2c-.2-.2-.8-1.2-1.1-1.3s.8,1.1.2.3l-.6-.8a39.7,39.7,0,0,1-3.2-5.7c-.1-.2-.1-.5-.3-.6s.3.6.1.2a8.8,8.8,0,0,0-.5-1.5c-.4-1.1-.7-2.2-1-3.3a28.2,28.2,0,0,1-.7-3.1c-.3-1.1-.3-2.4-.6-3.4s.1,1.4,0,.4a2.8,2.8,0,0,0-.1-.9c0-.5-.1-1.1-.1-1.6s-.2-2.3-.2-3.5-.1-4.5,0-6.7.1-2.3.2-3.4.1-1.1.2-1.7a6.5,6.5,0,0,1,.2-2s-.2,1.4-.1.3.1-.5.2-.7l.3-1.9c.2-1.2.5-2.4.8-3.6l.9-3.3c.2-.4.3-.9.5-1.4l.3-.8c.1-.2.7-1.4.2-.6s.2-.2.2-.3l.3-.7.9-1.7a23.8,23.8,0,0,1,1.8-3l.5-.7h0l1.1-1.3a31.9,31.9,0,0,1,2.6-2.6l.5-.4.4-.4c.4-.2.2-.1-.4.4a8.3,8.3,0,0,0,1.5-1.1l3.1-1.8.6-.2.6-.3-.7.3a7.3,7.3,0,0,0,1.9-.7l3.2-.7c1.1-.3-1.1.1-.3,0h2.8a8.6,8.6,0,0,0,1.6.1c-1,.2-1-.2-.3,0l1.1.2c2.9.6,6.2-.9,6.9-3.9s-.9-6.1-3.9-6.8Z"/><path d="M361.7,7.8c-1.4,25.5-2,51.2-1.8,76.8v5.3c.1,1.8-.1,3.8.5,5.6a6.7,6.7,0,0,0,8,4.7,6.3,6.3,0,0,0,4.7-7.8c-.9-2.8-3.9-4.8-6.8-3.9s-4.8,3.9-3.9,6.8l-.2-1,.8-2.8c1.3-2.8,6.7-2.5,7.8.4.1.3.3,1.9.3.9V91c-.1-1.5-.1-3-.1-4.4V78c-.1-5.6,0-11.2,0-16.8.2-11.4.5-22.7.9-34l.9-19.4a5.6,5.6,0,0,0-5.5-5.6,5.8,5.8,0,0,0-5.6,5.6Z"/><path d="M422.7,6.8a18.9,18.9,0,0,0-13.1,2.4,25.6,25.6,0,0,0-8.5,9.1c-3.9,7-5.6,15.4-6.7,23.3a96.7,96.7,0,0,0-.4,25.2c1,7.8,2.3,15.8,6,22.8s9.9,12.3,17.8,11.4,15-6.9,19.7-13.6c7.9-11.2,10-25.8,9.9-39.2-.1-8.3-.9-16.7-4.3-24.3A28,28,0,0,0,427,8.7a18.6,18.6,0,0,0-5.7-1.1c-2.9-.3-5.7,2.7-5.6,5.5a5.7,5.7,0,0,0,5.6,5.5h-.2l1.1.2,2.2.7.4.2-.6-.3,1.1.5,1.9,1.2.4.3-.5-.4.9.8,1.7,1.6,1.3,1.5c.4.6-.7-.9-.3-.3l.3.4.6.9,1.1,1.9.6,1.1a1.4,1.4,0,0,0,.2.6c-.2-.2-.4-1-.1-.3a30.2,30.2,0,0,1,1.6,5.1,18.4,18.4,0,0,1,.5,2.5c.1.4.1.8.2,1.1s.1,1.1,0-.3a1.9,1.9,0,0,0,.1.8c.2,1.8.3,3.6.4,5.4s.1,6.2,0,9.3a34,34,0,0,1-.3,4.5,16.4,16.4,0,0,1-.2,2.2c0,.3-.1.6-.1,1s0-.4.1-.5a1.7,1.7,0,0,0-.1.7,69.7,69.7,0,0,1-2,8.8c-.4,1.3-.8,2.7-1.3,4a4.9,4.9,0,0,0-.4,1.1c-.3.5.2-.6.2-.6l-.2.5c-.3.6-.6,1.3-1,2a28.2,28.2,0,0,1-2.1,3.8l-1.2,1.7h0l-.8.9a30,30,0,0,1-3,3.2l-.7.6-.6.5h0c.6-.5-.4.2-.5.4a5.7,5.7,0,0,0-1.3.8l-1,.5-.5.3c-.6.2-.4-.2.3-.2a4.9,4.9,0,0,0-1.1.4,5.8,5.8,0,0,0-1.4.3h-1.1c-1,0,1.2.2,0,0l-1-.2c-.2-.1-1.3-.5-.4-.1s0-.1-.2-.2l-.9-.5-.3-.2-.4-.3-.6-.6-.6-.7-.4-.4c.2.1.8,1,.4.4s-1.5-2.3-2.2-3.6a3,3,0,0,0-.4-.8c0-.2-.1-.3-.2-.5l.2.5c-.2-.7-.5-1.4-.7-2.1a62.5,62.5,0,0,1-2.4-9.7c-.2-.8-.3-1.7-.5-2.6s-.2-1.8-.1-.9,0,0,0-.1-.1-.5-.1-.8c-.2-1.9-.4-3.7-.5-5.6a104.6,104.6,0,0,1,0-11.2c.1-1.7.3-3.5.5-5.3,0-.3.1-.6.1-.8s-.1.4-.1.4a2.5,2.5,0,0,0,.2-1.2c.2-1,.3-1.9.5-2.9a96.4,96.4,0,0,1,2.6-10.6c.3-.8.5-1.6.8-2.3s.3-.7.4-1.1-.2.5-.2.5a3.6,3.6,0,0,0,.4-.9l1.2-2.1c.4-.8,1.1-1.5,1.4-2.2s-.7.8-.3.4l.4-.5.7-.7.9-.9.4-.3c-.1.2-.9.6-.3.2l2-1.2.4-.2c.9-.5-.2.1-.3.1l1.1-.4,1.2-.3c1-.2-1.1.1-.1,0h1.2a6.4,6.4,0,0,0,4.3-.6,5.7,5.7,0,0,0,2.6-3.3c.6-2.7-.8-6.4-3.9-6.8Z"/><path d="M509.3,8.5C497,.6,479-1.1,467.8,9.9a27,27,0,0,0-8,18.2A22.7,22.7,0,0,0,468,45.6c4.8,4,10.4,6.4,15.8,9.4l3.6,2.2.9.6.4.3.4.3.9.8,1.4,1.5.6.6.3.5-.3-.4a25.6,25.6,0,0,1,2.2,3.5l.5,1c0,.1.1.2.1.4s-.4-1.2-.2-.6a18,18,0,0,1,.8,2.1,25.9,25.9,0,0,1,.9,4,1.3,1.3,0,0,1,.1.6c0,.1-.1-1.4-.1-.8s.1.7.1,1a17,17,0,0,1,.1,2.2v1.9a4.1,4.1,0,0,1-.1,1.1c0,.2-.2,1.6,0,.5s-.1.2-.1.5-.1.6-.2,1-.3,1.4-.5,2.1a13.4,13.4,0,0,1-.7,1.8l-.2.5c-.2.6.3-.7.3-.7a11.7,11.7,0,0,1-.5,1.1,26.7,26.7,0,0,1-2.2,3.6c-.3.5.5-.6.4-.5l-.3.4-.6.7c-.5.5-1,1.1-1.6,1.6l-.7.6-.5.4s1-.7.5-.4l-1.8,1.2-1.8,1-.7.4-.6.3.5-.2-4,1.3-2,.4h-6.2c-.5,0-1.6-.3.1.1l-2-.4a31.7,31.7,0,0,1-4.1-1.2c-1.1-.4,1,.4.2,0l-1-.4-1.9-1.1-1.6-1,.4.3-.3-.3-.9-.8c-2.1-1.9-5.7-2.2-7.8,0s-2.3,5.8,0,7.9c10,9,24.9,10.4,36.9,4.6S509,84.2,507.4,71.5a32.9,32.9,0,0,0-7.9-18.3c-4-4.7-9.7-7.6-15.1-10.3a71.5,71.5,0,0,1-7.6-4.4l-.8-.6c-.8-.6.9.7.2.1a10.7,10.7,0,0,1-1.6-1.4l-1.4-1.5c-.8-.9.6.9,0,.1l-.6-1a16.2,16.2,0,0,1-1-1.8c-.4-.8.4,1.2.1.3s-.3-.8-.4-1.1a7.1,7.1,0,0,1-.4-2s.2,1.5.1.6v-.4a4.5,4.5,0,0,1-.1-1.1c0-.7.1-1.4.1-2s-.1.8-.1.7.1-.4.1-.6.1-.7.2-1.1l.6-2,.3-.8-.2.5c.1-.1.1-.3.2-.5a27.7,27.7,0,0,1,2.2-3.7c.4-.5-.4.6-.4.5l.4-.4a2.7,2.7,0,0,1,.7-.8,12.1,12.1,0,0,1,1.6-1.6,4.6,4.6,0,0,0,.7-.7c.5-.3-.5.5-.5.5l.5-.4,1.7-1.1,1-.5.6-.3c.6-.2-.5.3-.5.3l2.5-.9,2.4-.5c1.3-.2-.9.1.1,0h1.4a41.7,41.7,0,0,1,5,.1c.4.1.9.3-.4,0h.5l1.2.2,2.6.6,2.4.8,1.2.5-.5-.2.8.4a37.5,37.5,0,0,1,4.4,2.4,5.6,5.6,0,0,0,7.6-2,5.7,5.7,0,0,0-2-7.6Z"/></svg>