<svg xmlns="http://www.w3.org/2000/svg" viewBox="0 0 409.4 126.4"><path d="M0,20.3,1,38l.5,8.7.2,4.2c.1,1.8,0,3.5.8,5.1A3.8,3.8,0,0,0,9,52.2l.3,1v-.5a3.4,3.4,0,0,0-.1-1V49.5l-.2-4L8.4,37,7.5,20.3a3.8,3.8,0,0,0-7.5,0Z"/><path d="M2.9,20.5l6.8,9.2,3.4,4.7c1.1,1.5,2.1,3.4,3.8,4.3,4.5,2.5,7.7-3.2,9.8-6.2a103,103,0,0,0,5.5-9l-7-1.9L27.5,50a3.8,3.8,0,0,0,3.7,3.8A3.9,3.9,0,0,0,35,50L32.7,21.6A3.8,3.8,0,0,0,29.9,18a3.9,3.9,0,0,0-4.2,1.7,69.9,69.9,0,0,1-4.2,7.1c-.7,1.1-1.4,2.2-2.2,3.3a9.4,9.4,0,0,0-.9,1.2l-.7.9c-.3.3.6-.3-.2.1l1.9-.5a2,2,0,0,1,1.7.8c.2.3.1.2-.2-.2l-.6-.8-1.6-2.2-3.1-4.2L9.4,16.7a3.9,3.9,0,0,0-5.1-1.3c-1.7.9-2.6,3.5-1.4,5.1Z"/><path d="M40.6,24.5C37.5,33.6,39,44.6,45,52.2a11.2,11.2,0,0,0,6.2,4.5,8.7,8.7,0,0,0,8-1.9c4-3.2,5.6-8.7,6-13.6S64.7,30,63.6,24.5a3.7,3.7,0,1,0-7.2,2,63.7,63.7,0,0,1,1.5,11.3c0,3.7-.4,7.2-2.4,10.2l-.4.4c.4-.4,0,.1-.1.1a3,3,0,0,1-.8.8c.6-.5-.7.3-.3.1h-.4c-.5.2.6,0,0,0s.4.2-.2,0h-.5c.5.2-.4-.3-.6-.4s-.1,0,0,0l-.6-.5-.7-.8A21.2,21.2,0,0,1,46.8,38a1.3,1.3,0,0,0-.1-.6c0-.3.1.2,0-.4a8.6,8.6,0,0,1-.1-1.6,15,15,0,0,1,0-3,1.9,1.9,0,0,1,.1-.8c0-.1.1-.8,0-.5s.1-.4.1-.5.1-.5.2-.8a20.2,20.2,0,0,1,.9-3.3,3.8,3.8,0,0,0-2.6-4.6,3.9,3.9,0,0,0-4.7,2.6Z"/><path d="M53.8,12.7l2.4-2.1-.8.6a27,27,0,0,1,5.9-3.5l-.9.4,1.9-.7a4.1,4.1,0,0,0,2.2-1.7A3.7,3.7,0,0,0,60.3.2,29.9,29.9,0,0,0,48.5,7.4a3.7,3.7,0,0,0,5.3,5.3Z"/><path d="M89.9,17.7c-7.6-.2-19.4,5.2-16.7,14.7,1.1,3.8,4,6.4,6.9,8.9L82,42.8l.7.8c.1.1.9,1.1.6.6l.5.9c.4.5.2.2.1,0s.1.4.2.6a4.3,4.3,0,0,1,.1.5s.1.6.1.2-.1.3-.1.4v.4c.1-.5,0,.1,0,.2l-.3.6-.4.7c.3-.4-.3.3-.5.5s.5-.3-.1,0l-.4.3h-.9c.6-.1,0,0-.1,0h-.7l-.9-.2h0l-.8-.5a3.8,3.8,0,0,0-3.8,6.5,10.6,10.6,0,0,0,16-11.8c-1.1-3.7-4-6.2-6.9-8.6l-1.8-1.6A12.4,12.4,0,0,1,81,31.6a4.7,4.7,0,0,1-.5-1c.2.5-.1-.6-.2-.7s0,0,.1.1a.6.6,0,0,1,0-.6c0-.6-.2.5,0-.1s-.2.4,0-.1l.3-.5c-.3.4.2-.2.3-.3l.4-.4c.4-.4,0,0,.3-.2a10.7,10.7,0,0,1,2.7-1.6c-.1,0-.3.1.1-.1l1-.3,1.6-.5a12.4,12.4,0,0,1,2.8-.1,3.9,3.9,0,0,0,3.8-3.8,3.8,3.8,0,0,0-3.8-3.7Z"/><path d="M99.9,21.3,102.8,51c.2,2,1.6,3.9,3.8,3.8s3.9-1.7,3.7-3.8l-2.9-29.7c-.2-2-1.6-3.9-3.7-3.8s-4,1.7-3.8,3.8Z"/><path d="M133.7,18a12.4,12.4,0,0,0-11.6,1.9,16.5,16.5,0,0,0-6.3,10.7c-1.3,8,.8,18.1,8.6,22,4.2,2.1,9.5,2.4,13.5-.3a4,4,0,0,0,1.3-5.2c-1-1.6-3.4-2.5-5.1-1.3l-1.2.7c.7-.3-.6.1-.7.2s.4,0-.4,0h-1.4c-.4,0-.5,0,0,.1l-.7-.2-1.1-.3h0l-.7-.3-1.2-.8c.6.4-.3-.2-.3-.3a5.7,5.7,0,0,1-1.1-1.1c.3.4-.4-.7-.5-.9l-.6-1c-.2-.4-.2-.4-.1-.1a2.4,2.4,0,0,1-.2-.8,8.8,8.8,0,0,1-.5-1.5l-.3-1.1c0-.3-.1-.6-.1-.8v-.2a26.2,26.2,0,0,1-.1-2.8A9.2,9.2,0,0,1,123,33v-.2c0-.2.1-.5.1-.7a10.5,10.5,0,0,1,1.9-4.6c.2-.4.3-.4.1-.2l.5-.5.6-.6.9-.6.6-.3c-.3.1-.3.1.1-.1l1.2-.3h.6c.2,0,1.5.2.8,0l1.3.4a3.7,3.7,0,0,0,4.6-2.6,3.8,3.8,0,0,0-2.6-4.6Z"/><path d="M148.5,19.4l-3,22.2c-.4,3.5-2.1,9.3,2.6,10.7a4.5,4.5,0,0,0,5.4-3.1,4.1,4.1,0,0,0-3.9-5.3,3.8,3.8,0,0,0-3.8,3.7,3.9,3.9,0,0,0,3.8,3.8h.2l-1.9-.5h.1l-1.7-2.3,2-3.6h2.5l1.3,1.4c.4.4.1,1.1.2.1l.3-2,.5-3.4L154,34l2-14.6c.3-2-1.9-3.9-3.8-3.8s-3.4,1.7-3.7,3.8Z"/><path d="M152.9,19.7A74.2,74.2,0,0,1,170.8,50a3.8,3.8,0,0,0,4.6,2.6A3.7,3.7,0,0,0,178,48a81.9,81.9,0,0,0-19.8-33.6,3.7,3.7,0,0,0-5.3,0,3.9,3.9,0,0,0,0,5.3Z"/><path d="M153.2,43a35.8,35.8,0,0,1,4.5-.9l2.2-.4c.1,0,1-.1.4,0l1.2-.2c3-.3,6.1-.5,9.1-.6a3.8,3.8,0,0,0,3.8-3.8,3.8,3.8,0,0,0-3.8-3.7,97.9,97.9,0,0,0-19.4,2.3,3.8,3.8,0,0,0-2.7,4.6,4,4,0,0,0,4.7,2.7Z"/><path d="M2.7,90.9c.4,9.1.6,18.2,1.3,27.3.2,2.3.7,4.4,2.4,6a7.8,7.8,0,0,0,5.3,2.1,16.4,16.4,0,0,0,4.4-.2h3.2c-1-.1.3.1.5.2a3.7,3.7,0,1,0,2-7.2c-2.9-.9-5.7-.3-8.6-.2H11.7c.5.1.6.1.3.1s-1.1-.5-.2,0-.6-.6-.1,0-.3-.3-.1,0,.2.2,0-.1-.1-.5-.1-.6,0-.4,0-.6a9.1,9.1,0,0,1-.1-1.7l-1.2-25a3.8,3.8,0,0,0-3.8-3.7,3.8,3.8,0,0,0-3.7,3.7Z"/><path d="M10.5,110.5a16.5,16.5,0,0,1,3.2-.6h-1a24.4,24.4,0,0,1,5.4,0h-.3a4.9,4.9,0,0,0,2.9-.4,4.4,4.4,0,0,0,1.7-2.3,3.8,3.8,0,0,0-.4-2.9,4.1,4.1,0,0,0-2.2-1.7,25.4,25.4,0,0,0-11.3.6A4.4,4.4,0,0,0,6.2,105a4.1,4.1,0,0,0-.3,2.9,3.8,3.8,0,0,0,4.6,2.6Z"/><path d="M7.4,95.3l3.6-.8-1,.2a21.5,21.5,0,0,1,6.2,0l-1-.2h.5a4.1,4.1,0,0,0,2.9-.3A3.9,3.9,0,0,0,20.3,92a3.7,3.7,0,0,0-.3-2.9,3.6,3.6,0,0,0-2.3-1.7,26.5,26.5,0,0,0-12.2.7,4,4,0,0,0-2.3,1.7,3.7,3.7,0,0,0-.4,2.9,3.8,3.8,0,0,0,4.6,2.6Z"/><path d="M33.4,90.9v23.8c0,2-.3,4.2.2,6.1a5.7,5.7,0,0,0,4.6,4.4c4,.6,8.3.1,12.3-.4,2-.3,3.1-2.9,2.6-4.6a3.8,3.8,0,0,0-4.6-2.7l-4.2.4H40q-.6-.2-.3,0c.1-.3,1.2,1.2,1.2,1.3V90.9a3.8,3.8,0,0,0-7.5,0Z"/><path d="M60,90.9v29.5a3.8,3.8,0,0,0,3.7,3.7l13.3.3a3.8,3.8,0,0,0,0-7.5l-13.3-.3,3.8,3.8V90.9a3.8,3.8,0,0,0-3.8-3.7A3.8,3.8,0,0,0,60,90.9Z"/><path d="M67.8,108.2l10.2-1a3.9,3.9,0,0,0,2.7-1.1,4.1,4.1,0,0,0,1.1-2.6,4.4,4.4,0,0,0-1.1-2.7A3.9,3.9,0,0,0,78,99.7l-10.2,1a3.6,3.6,0,0,0-2.6,1.1,3.3,3.3,0,0,0-1.1,2.6,3.5,3.5,0,0,0,1.1,2.7,3.6,3.6,0,0,0,2.6,1.1Z"/><path d="M66.8,94.7H76a3.8,3.8,0,0,0,2.6-1.1,3.5,3.5,0,0,0,1.1-2.7A3.8,3.8,0,0,0,76,87.2H66.8a3.9,3.9,0,0,0-2.7,1.1A4.1,4.1,0,0,0,63,90.9a3.9,3.9,0,0,0,3.8,3.8Z"/><path d="M109.6,92.1A11.9,11.9,0,0,0,96,91.3a16.2,16.2,0,0,0-7.1,11.3c-1.5,8.5,2,18.6,11.2,21,4.6,1.1,9.8.1,13.1-3.5a3.9,3.9,0,0,0,0-5.3c-1.5-1.3-3.9-1.6-5.3,0l-.7.6c-.4.5,0,.1.1,0l-.4.3-.8.4c-.3.2.2-.1.3-.1l-.8.3-.8.2h-.5c.2-.1.8-.1.1-.1h-1.6l-.7-.2-.9-.2-.4-.2c-.6-.2.5.3,0,0l-.9-.5c-.3-.2-.7-.5-.3-.1l-.8-.8-.7-.7h.1l-.5-.7-.5-.9-.2-.5a17.2,17.2,0,0,1-.7-2.1,5,5,0,0,1-.2-1.2c.1.7-.1-.1-.1-.3a19.2,19.2,0,0,1,0-2.4,4.1,4.1,0,0,1,.1-1.1c-.1.8,0-.3.1-.5a10.5,10.5,0,0,1,.6-2.4c.1-.2.1-.4.2-.5h0a4.1,4.1,0,0,1,.5-.9l.6-1.1s.4-.4.1-.2.3-.2.3-.2.3-.3.4-.4l.4-.4h.2l.5-.4.5-.2c.3-.2-.5.1.2-.1l1.1-.3H103c.4,0,.3.1,0,0h.4c.2.1.9.3.2,0s1.2.7.7.3c1.5,1.2,3.8,1.6,5.3,0s1.6-4,0-5.3Z"/><path d="M122.1,92l.5,20.1v5c0,1.8.2,3.8,1.6,5.1a4.4,4.4,0,0,0,6.2-.1,4.2,4.2,0,0,0,.1-6.1,3.7,3.7,0,0,0-5.3,5.3l.2.2-1-1.7V118l1.1-1.6,1.9-.5h.5l1.7,1a1.7,1.7,0,0,1,.4,1.2v-5.8l-.2-6.7L129.6,92a3.8,3.8,0,1,0-7.5,0Z"/><path d="M116.8,92.7c3.5-.2,7.1-.3,10.6-.2a96.9,96.9,0,0,1,9.9.8c1.9.3,4.1-.5,4.6-2.6s-.5-4.3-2.6-4.6a106,106,0,0,0-22.5-.9c-1.9.2-3.8,1.7-3.7,3.8s1.6,3.9,3.7,3.7Z"/><path d="M148.9,93a141.6,141.6,0,0,0,.9,27.6c.2,1.9,1.5,3.8,3.7,3.7s4.1-1.7,3.8-3.7a141.6,141.6,0,0,1-.9-27.6,3.8,3.8,0,0,0-3.7-3.8,3.9,3.9,0,0,0-3.8,3.8Z"/><path d="M157.3,97.1c0-.1.6-.8.1-.2l.6-.7c-.4.5,0,0,.3-.1s.8-.5.4-.2l.4-.2.9-.2c-.8.2.1,0,.3,0h1l.6.2.4.2c.6.3-.2-.3.3.2l.6.7c-.4-.5.1.2.2.4s.5.8.3.4.1.5.2.6a1.9,1.9,0,0,0,.2.8c-.2-.7,0,.2,0,.4a3.8,3.8,0,0,1-.1,1c.1-.6.1-.2,0,.1l-.3,1c-.1.4.3-.4,0,.2l-.6.9c.4-.6-.3.2-.3.3l-.8.7h-.2l-.9.5h-.3l-1,.3h-.4a4.1,4.1,0,0,1-1.1,0c-.1,0-1.2-.1-.4.1a3.7,3.7,0,0,0-4.2,1.7,3.8,3.8,0,0,0,.6,4.5,80,80,0,0,0,18.2,13.4,3.8,3.8,0,0,0,5.1-1.4,3.7,3.7,0,0,0-1.3-5.1,69.6,69.6,0,0,1-16.7-12.2l-3.7,6.3a14.5,14.5,0,0,0,12.4-3.8A12.4,12.4,0,0,0,171,96a11.1,11.1,0,0,0-20.2-2.6,3.8,3.8,0,0,0,1.3,5.1,3.9,3.9,0,0,0,5.2-1.4Z"/><path d="M195.4,91.2c-6.1.9-11.3,6.3-12.7,12.3a15,15,0,0,0,6.9,16.3c5.1,3.2,12.1,3.6,17.1,0a16.9,16.9,0,0,0,6.5-16.4c-1.3-7.9-8.8-11.8-15.6-14.5a3.8,3.8,0,0,0-4.6,2.6,4,4,0,0,0,2.6,4.7l1.1.4h.2l1.8.8a24.3,24.3,0,0,1,3.5,2c.1.1.7.6.3.2l.6.5,1.3,1.4c.8.9-.2-.3.2.3a1.6,1.6,0,0,1,.4.7l.3.5h0c.1.1.1.3.2.4s.3,1,.4,1.5.1.9,0,.1.1.4.1.6a7.6,7.6,0,0,1-.1,1.5s-.1,1,0,.4-.1.7-.1.8a6.5,6.5,0,0,0-.4,1.3c-.1.2-.4.9-.1.1a1.4,1.4,0,0,1-.2.6l-.8,1.3c-.1.2-.7.9-.2.3l-.6.7c-.1.2-1.3,1.1-.6.6l-1.2.8-.7.3c.7-.3.2-.1.1,0l-1.9.4h-1.7a3.5,3.5,0,0,1-1.4-.3l-.8-.2h-.2l-1.4-.7-.8-.5-1.2-1.1-.4-.4c-.6-.6.2.4-.2-.3l-.8-1.3c-.4-.8.1.4,0-.1l-.3-.8c0-.2-.1-.4-.1-.6s-.1.7-.1-.3v-1.7c0-1-.2.7,0-.3s.1-.6.2-.9a3.1,3.1,0,0,0,.2-.8c.1-.2.6-1.2.2-.5l.8-1.5.6-.8.2-.2,1.3-1.3c.5-.4-.7.4.2-.1l.8-.5.9-.5c-.6.3.1,0,.3-.1l1.9-.4c2-.3,3.1-2.9,2.7-4.7s-2.6-2.9-4.7-2.6Z"/><path d="M196.4,85.1,211.7,82a3.6,3.6,0,0,0,2.6-4.6,3.8,3.8,0,0,0-4.6-2.6l-15.3,3a3.8,3.8,0,0,0,2,7.3Z"/><path d="M221.4,95a198.6,198.6,0,0,0,.4,25.6,3.7,3.7,0,0,0,3.7,3.7,3.8,3.8,0,0,0,3.8-3.7,198.6,198.6,0,0,1-.4-25.6,3.8,3.8,0,0,0-3.7-3.7,3.8,3.8,0,0,0-3.8,3.7Z"/><path d="M223.4,99.8A138.4,138.4,0,0,1,240.3,119a4.1,4.1,0,0,0,3.8,1.8,3.9,3.9,0,0,0,3.1-2.7A70.5,70.5,0,0,0,249,93.9c-.2-2-1.6-3.9-3.8-3.8s-3.9,1.7-3.7,3.8a63.6,63.6,0,0,1-1.5,22.2l6.8-.9a155.1,155.1,0,0,0-18.1-20.8,3.9,3.9,0,0,0-5.3,0,4,4,0,0,0,0,5.4Z"/><path d="M258,93a148.9,148.9,0,0,0,2.8,19.9c.3,1.6.7,3.1,1,4.7s.7,3.3,2,4.4a5,5,0,0,0,4.8,1.4,3.9,3.9,0,0,0,2.7-5.1,4,4,0,0,0-4.6-2.6c-1.8.5-3.3,2.7-2.6,4.6v-.6l.5-1.9h-.1l1.4-1.4a2.6,2.6,0,0,1,2.7-.1,2.2,2.2,0,0,1,1,1.3c.1-.1-.3-1.1-.4-1.4s-.5-2.2-.7-3.3-1-4.5-1.4-6.8c-.7-4.4-1.2-8.7-1.6-13.2a3.8,3.8,0,0,0-7.5,0Z"/><path d="M296.7,89.8a18.6,18.6,0,0,0-20.5,13c-2.5,8.2,2.4,16.8,9.9,20.2,4.2,1.8,9,2.4,13.3.7a3.9,3.9,0,0,0,2.7-4.6,3.9,3.9,0,0,0-4.7-2.6,13.9,13.9,0,0,1-1.9.6h-.3c.5-.1,0,0-.1,0h-2.7c-.5-.1.6.1.1,0l-2.1-.6c-.2,0-1.2-.4-.5-.1l-.8-.4-1.9-1.2c-.6-.3-.2,0,0,.1a.8.8,0,0,1-.4-.4,2.7,2.7,0,0,1-.8-.7,4.6,4.6,0,0,1-.7-.7c-.1-.2-.8-1.1-.4-.4a16.2,16.2,0,0,1-1-1.8l-.2-.4a10.4,10.4,0,0,1-.4-1,3.6,3.6,0,0,1-.2-1.1c-.2-.7,0,.5-.1-.3v-1.9l.6-2.1c.2-.7-.2.2.1-.4l.7-1.2.6-1,.3-.4h0l1.8-1.8c.1,0,.5-.4.2-.1l.3-.3,1.2-.7,1.2-.6c.4-.2,0,0-.1,0l.7-.2,1.3-.4h2.8c1.9.3,4.1-.5,4.6-2.6s-.6-4.3-2.6-4.6Z"/><path d="M315.8,91.1a170.4,170.4,0,0,0-4.9,28.4,3.8,3.8,0,0,0,3.7,3.8,3.9,3.9,0,0,0,3.8-3.8,158.8,158.8,0,0,1,4.7-26.4,3.8,3.8,0,0,0-7.3-2Z"/><path d="M318.5,93.4a96.6,96.6,0,0,1,13.3,28.1,3.9,3.9,0,0,0,4.6,2.7,4,4,0,0,0,2.7-4.7A107.7,107.7,0,0,0,325,89.6a3.8,3.8,0,0,0-6.5,3.8Z"/><path d="M318,116.2l3.6-.6h.9l1.8-.2a54,54,0,0,1,7-.2,3.8,3.8,0,0,0,3.7-3.8,3.7,3.7,0,0,0-3.7-3.7A60.6,60.6,0,0,0,316,109a3.7,3.7,0,0,0-2.6,4.6,3.9,3.9,0,0,0,4.6,2.6Z"/><path d="M198.5,19.5a292.3,292.3,0,0,0-.3,29.6,3.7,3.7,0,0,0,3.7,3.8,3.9,3.9,0,0,0,3.8-3.8,292.3,292.3,0,0,1,.3-29.6,3.8,3.8,0,0,0-3.8-3.8,3.8,3.8,0,0,0-3.7,3.8Z"/><path d="M201.6,22.9a75.8,75.8,0,0,1,9.1,12c1.2,1.9,4.3,2.7,5.9.8a70.2,70.2,0,0,0,9.9-14.9l-7-1.8a117.1,117.1,0,0,0,3.9,34.3,3.9,3.9,0,0,0,4.6,2.6,3.7,3.7,0,0,0,2.6-4.6A109.8,109.8,0,0,1,227,19c.2-3.7-5.3-5.3-7-1.9a66.3,66.3,0,0,1-8.7,13.3l5.9.7a79,79,0,0,0-10.3-13.5,3.7,3.7,0,0,0-5.3,5.3Z"/><path d="M234.6,20.6l1.2,21.9a24.7,24.7,0,0,0,.5,5.4,5.7,5.7,0,0,0,4.7,3.9,28.6,28.6,0,0,0,10.9-.8,3.7,3.7,0,0,0-2-7.2,23.3,23.3,0,0,1-3.5.6h-3.2c-.1,0-1.2-.1-.7,0h-.1c-.4-.1-.2,0,.6.4l.5.9a13.4,13.4,0,0,1-.1-2.1l-.3-4.7-1-18.4a3.8,3.8,0,1,0-7.5,0Z"/><path d="M239.6,35.5h9.2a3.9,3.9,0,0,0,2.7-1.1,4.1,4.1,0,0,0,1.1-2.6,3.9,3.9,0,0,0-3.8-3.8h-9.2a3.8,3.8,0,0,0-2.6,1.1,3.5,3.5,0,0,0-1.1,2.7,3.8,3.8,0,0,0,3.7,3.7Z"/><path d="M237.6,23.3h11.2a3.9,3.9,0,0,0,3.8-3.8,3.8,3.8,0,0,0-3.8-3.7H237.6a3.8,3.8,0,0,0-3.8,3.7,3.9,3.9,0,0,0,3.8,3.8Z"/><path d="M261.5,20.6c.4,7.4.9,14.7,1.4,22l.3,5.5c.2,2.1.6,4.2,2.6,5.3a4.2,4.2,0,1,0,2.3-7.8,3.8,3.8,0,0,0-3.8,3.8,3.8,3.8,0,0,0,3.8,3.7h.1L265.6,52h.1l-1-1.6h0V48.7l1.4-1.7,1.9-.5h-.2l1.9.5a2.2,2.2,0,0,1,1.1,1.8c0-.3-.1-.6-.1-1s-.1-1.3-.1-1.9l-.3-3.5c-.1-2.4-.3-4.8-.4-7.2L269,20.6a3.8,3.8,0,0,0-7.5,0Z"/><path d="M266.3,24.7l1.3-.3c-.9.2.5,0,.6,0h2l2.5.7.6.3,1.2.7c.1,0,1.2.8.6.3l1,.9a4.6,4.6,0,0,0,.7.7l.4.5a17.6,17.6,0,0,1,1.4,2.3h0c.1.2.1.4.2.6l.3,1.3c.1.4.1.4.1,0v2a1.5,1.5,0,0,1-.1.7h0l-.3,1.4c0,.1-.5,1.4-.2.7l-.5.9a7.5,7.5,0,0,1-.7,1.2c0,.1-.9,1.2-.4.6l-1.9,2c-.4.3-.4.3-.1,0l-.6.4a4.1,4.1,0,0,1-1.1.7c-.2.1-1.4.6-.7.4l-1.3.4-1.3.3c.8-.1-.6,0-.8,0a3.8,3.8,0,0,0-3.7,3.7,3.8,3.8,0,0,0,3.7,3.8,18.5,18.5,0,0,0,17-13.8A17.1,17.1,0,0,0,277,19a17.6,17.6,0,0,0-12.7-1.5,3.9,3.9,0,0,0-2.6,4.6,3.7,3.7,0,0,0,4.6,2.6Z"/><path d="M287.9,21.6a118.2,118.2,0,0,1,5.2,27.5,3.8,3.8,0,0,0,3.7,3.8,3.9,3.9,0,0,0,3.8-3.8,129,129,0,0,0-5.5-29.5,3.8,3.8,0,0,0-4.6-2.6,3.7,3.7,0,0,0-2.6,4.6Z"/><path d="M320.6,19.5a11.4,11.4,0,0,0-11.1,3.6,19.2,19.2,0,0,0-4.3,11.5c-.5,7.7,2.7,15.7,10.3,18.7A12.4,12.4,0,0,0,327,52.2a3.8,3.8,0,0,0,1.4-5.1,3.9,3.9,0,0,0-5.2-1.4,4.1,4.1,0,0,1-1.1.7,1.6,1.6,0,1,0-.4.1l-.9.2c.8-.1-.3,0-.5,0s-1.4-.1-.5,0l-1-.2-1-.3c.7.2-.5-.3-.7-.4a5.6,5.6,0,0,1-2.5-2.3,10.2,10.2,0,0,1-1.6-4,5,5,0,0,1-.2-1.2c.1.6-.1-.6-.1-.8V35c0-.4.1-.8.1-1.2s.1-.5,0-.2.1-.5.2-.8a21,21,0,0,1,.6-2.4v-.2l.3-.6a7.5,7.5,0,0,1,.7-1.2c-.2.4.5-.4.4-.4s.9-.7.4-.4l1.3-.8c-.5.3.4-.1.5-.1s-.4-.1.5-.1h.7c-.4,0-.3,0,.1.1s4.2-.6,4.6-2.6a3.7,3.7,0,0,0-2.6-4.6Z"/><path d="M333,20.5a167.6,167.6,0,0,0,2.4,30.8,3.8,3.8,0,0,0,4.6,2.6,3.8,3.8,0,0,0,2.7-4.6,154,154,0,0,1-2.2-28.8,3.8,3.8,0,0,0-3.8-3.7,3.8,3.8,0,0,0-3.7,3.7Z"/><path d="M347,21.6a170.7,170.7,0,0,1,1.2,28.6,3.8,3.8,0,0,0,3.7,3.7,3.8,3.8,0,0,0,3.8-3.7,170.7,170.7,0,0,0-1.2-28.6c-.2-2-1.5-3.9-3.7-3.8s-4,1.7-3.8,3.8Z"/><path d="M350.7,24.9A84.6,84.6,0,0,1,368,50.4c.6,1.5,2.8,2.1,4.2,1.7a3.8,3.8,0,0,0,2.8-3.6c1.2-9,2.3-17.9,3.5-26.9.3-1.9-1.9-3.8-3.7-3.7s-3.5,1.6-3.8,3.7c-1.2,9-2.3,17.9-3.5,26.9l7-1.9a92.7,92.7,0,0,0-18.5-27,3.7,3.7,0,0,0-5.3,0,3.9,3.9,0,0,0,0,5.3Z"/><path d="M386.1,19.5l-2.3,28.6a3.9,3.9,0,0,0,3.8,3.8,3.8,3.8,0,0,0,3.7-3.8l2.3-28.6a3.8,3.8,0,0,0-3.8-3.7,3.8,3.8,0,0,0-3.7,3.7Z"/><path d="M390.3,22.1A47.1,47.1,0,0,1,398.1,34a21.8,21.8,0,0,1,1.1,2.7,25.3,25.3,0,0,1,1.2,3.6,21.1,21.1,0,0,1,.9,3.6,11.6,11.6,0,0,1,.4,1.8c0,.3.1.5.1.8v.6c.3,2,1.6,3.9,3.8,3.8s4-1.7,3.7-3.8a54.9,54.9,0,0,0-13.8-30.3,3.7,3.7,0,0,0-5.3,5.3Z"/><path d="M391.7,45.5l12.4-3.9a3.9,3.9,0,0,0,2.6-4.6,3.7,3.7,0,0,0-4.6-2.6l-12.4,3.9a3.9,3.9,0,0,0-2.6,4.6,3.8,3.8,0,0,0,4.6,2.6Z"/></svg>