<svg xmlns="http://www.w3.org/2000/svg" viewBox="0 0 512 512"><defs><linearGradient id="logo-bg" y1="50%" x2="100%" y2="50%" gradientUnits="userSpaceOnUse"><stop offset="0.25" stop-color="#a254fd"/><stop offset="0.4" stop-color="#ea659b"/><stop offset="0.5" stop-color="#ea659b"/><stop offset="0.6" stop-color="#ea659b"/><stop offset="0.75" stop-color="#ea4233"/></linearGradient></defs><g id="logo" fill="var(--text,url(#logo-bg))"><path d="M82.7,130.3c-6.3-6.3-7.4-15.6-9.2-31.1-1.5,15.3-3.2,20.7-6.9,27.7s-17,8.7-29.5,12.3c13.3,3.1,20.2,4.2,26.1,10s8.6,14.4,10.3,30c1.6-15.4,3.8-20.3,7.5-27.3s16.5-9.2,29-12.7C96.7,136.1,88.5,136.1,82.7,130.3Z"/><path d="M335.7,53.7c-4.1-4.2-4.8-10.3-6-20.6-1,10.2-2.1,13.7-4.6,18.3s-11.2,5.8-19.5,8.2c8.8,2,13.4,2.7,17.2,6.6s5.7,9.5,6.9,19.8c1-10.2,2.5-13.4,4.9-18s10.9-6.1,19.2-8.4C345,57.5,339.6,57.6,335.7,53.7Z"/><path d="M63.5,418.2c-4.1-4.1-4.8-10.2-6-20.5-1,10.1-2.1,13.7-4.6,18.3s-11.2,5.8-19.5,8.1c8.8,2.1,13.4,2.8,17.2,6.7s5.7,9.5,6.9,19.7c1-10.1,2.5-13.4,4.9-18s10.9-6,19.2-8.4C72.8,422.1,67.4,422.1,63.5,418.2Z"/><path d="M188.7,68.3c-4.2-4.1-4.9-10.2-6-20.5-1.1,10.1-2.2,13.7-4.6,18.3s-11.2,5.8-19.5,8.1c8.8,2.1,13.3,2.8,17.2,6.7s5.7,9.5,6.9,19.7c1-10.1,2.4-13.4,4.9-18s10.9-6,19.2-8.4C197.9,72.2,192.6,72.2,188.7,68.3Z"/><path d="M152.1,46.3c-1.7-2-2-4.9-2.4-9.8-.4,4.8-.9,6.5-1.9,8.7s-4.4,2.8-7.7,3.9c3.5,1,5.3,1.3,6.8,3.2s2.3,4.5,2.8,9.4c.4-4.8.9-6.4,1.9-8.6s4.3-2.9,7.6-4C155.7,48.1,153.6,48.1,152.1,46.3Z"/><path d="M107.5,61.1c-1.6-2-1.9-4.9-2.4-9.9-.4,4.9-.8,6.6-1.8,8.8s-4.5,2.7-7.7,3.9c3.5,1,5.3,1.3,6.8,3.1s2.3,4.6,2.7,9.5c.4-4.8,1-6.4,2-8.6s4.3-2.9,7.6-4C111.2,62.9,109,62.9,107.5,61.1Z"/><path d="M168.1,442.8c-4.2-4.2-4.8-10.3-6-20.6-1,10.1-2.2,13.7-4.6,18.3s-11.2,5.8-19.5,8.1c8.8,2.1,13.4,2.8,17.2,6.7s5.7,9.5,6.9,19.8c1-10.2,2.5-13.4,4.9-18.1s10.9-6,19.2-8.4C177.3,446.6,172,446.6,168.1,442.8Z"/><path d="M429.4,85.3c-4.1-4.1-4.8-10.3-6-20.5-1,10.1-2.1,13.6-4.6,18.3s-11.2,5.7-19.5,8.1c8.8,2,13.4,2.8,17.2,6.6s5.7,9.5,6.9,19.8c1-10.1,2.5-13.4,4.9-18s10.9-6.1,19.2-8.4C438.7,89.1,433.3,89.2,429.4,85.3Z"/><path d="M459.1,408.2c-4.2-4.2-4.9-10.3-6-20.6-1.1,10.2-2.2,13.7-4.6,18.3s-11.3,5.8-19.5,8.2c8.8,2,13.3,2.7,17.2,6.6s5.7,9.5,6.9,19.8c1-10.2,2.4-13.4,4.9-18s10.9-6.1,19.1-8.4C468.3,412,462.9,412,459.1,408.2Z"/><path d="M464.5,173.6c-2-1.9-2.3-4.8-2.9-9.7-.4,4.8-1,6.5-2.1,8.7s-5.4,2.7-9.3,3.8c4.2,1,6.4,1.4,8.2,3.2s2.7,4.5,3.2,9.4c.5-4.8,1.2-6.4,2.4-8.6s5.2-2.8,9.1-4C468.9,175.5,466.3,175.5,464.5,173.6Z"/><path d="M375.3,446.6c-4.2-4.2-4.8-10.3-6-20.6-1,10.2-2.1,13.7-4.6,18.3s-11.2,5.8-19.5,8.1c8.8,2.1,13.4,2.8,17.2,6.7s5.7,9.5,6.9,19.8c1-10.2,2.5-13.4,4.9-18.1s10.9-6,19.2-8.4C384.6,450.4,379.2,450.4,375.3,446.6Z"/><path d="M105.2,188.9a9.7,9.7,0,0,0,5.8-6.8c1.3,3.1,2.8,5.6,6.3,6.7a10.9,10.9,0,0,0-6.3,7.1C110,192.4,108.2,190.2,105.2,188.9Z"/><path d="M396,151.7a9.9,9.9,0,0,0,6-7c1.3,3.2,2.9,5.8,6.6,6.9a11,11,0,0,0-6.6,7.2A10,10,0,0,0,396,151.7Z"/><path d="M245.1,236.8c.3,3.9.1,9.2.6,10.6a2.9,2.9,0,0,0,3.5,2.1h0a3.2,3.2,0,0,0,2.9-3.2,41.5,41.5,0,0,0-.3-7c-.5-4-1.8-7.9-1.9-11.9-.3-9.8,10.4-15.8,19-10.9,5.4,3.1,7.7,7.9,8.3,13.9a32.8,32.8,0,0,1-2.3,16.1c-2,5-1.4,9.9-.3,15a148.3,148.3,0,0,1,3.6,19.5c.2,3.1.3,11.5-8.8,13.1a11.1,11.1,0,0,1-13-8.5c-1.5-5.9,0-11,1.6-16.4s3.5-9.4,4.4-14.3-.8-5.9-1.8-6a2.9,2.9,0,0,0-3.3,2.6h0a69.1,69.1,0,0,1-1.9,10.1c-1.7,6-6.9,7.5-11.3,3-2.6-2.5-3.3-6-4.2-9.3a35.4,35.4,0,0,0-1.8-5.5,2.5,2.5,0,0,0-4.7.5,20.9,20.9,0,0,0,1.9,13.9c2.9,5.9,6.1,11.7,8.4,17.8a10,10,0,0,1-2.8,11.6c-3.5,3.1-8.9,3.3-13.5.7s-5.6-6.6-4.7-11.1,2.2-10,3.3-15a26.4,26.4,0,0,0-.8-15c-3.1-8.7-3.4-17.6-1.8-26.7a9.4,9.4,0,0,1,7.4-7.6c3.9-1.1,7.2,0,10,3.1S244.5,232,245.1,236.8Z"/><path d="M34.9,273.3c0-6,.4-11.8-.1-17.5s-2-8.6-2.5-12.9c-.9-8-.1-15.7,6.1-21.8a18,18,0,0,1,5.3-3.7c6.3-2.9,12.4-6.5,19.7-6.2,4.7.3,8.9,1.6,11.6,5.9s1.3,6,1.3,9.2c-.1,10.3-11.7,16.2-20.5,12.8a71.6,71.6,0,0,0-7.5-2.3c-3.6-.8-6.7.9-7.2,3.8s1.6,8,5.6,8.1,5.7-.5,8.5-.7,4.7-.8,6.7-.2c5.2,1.5,6.7,8.5,3,12.4s-5.9,3.7-9.6,3.7-5.6,0-7.2,2.8-1.5,4.8.2,6.3a7.8,7.8,0,0,0,4.9,1.4c2.3-.2,4.5-1.3,6.9-1.7,4.2-.8,8.4-1,12.3,1.3a7.8,7.8,0,0,1,3.9,5.8c2,11.6-8.9,18.9-16.9,17.4-4.2-.9-8.2-2-12.3-3.2C40.1,291.8,34.1,280.6,34.9,273.3Z"/><path d="M102.8,260.8c3,7.3,6.3,14.6,9,22.1s2.7,13.4-.5,20.1c-2.3,4.9-6.4,6.7-11.3,7.2s-11.2.1-14.9-4.8-3.5-10-2.4-15.3,2.7-11.2,3.8-16.7.3-10.2-1.2-15.2a69.5,69.5,0,0,1-2-31.4c1-6.6,5.2-9.8,11.3-11.3,11.1-2.8,20.4,2.8,24.7,13,2.3,5.6,3.3,11.4,1.2,17.4a18,18,0,0,1-8.1,9.7C109.3,257.4,106.1,259.1,102.8,260.8ZM98.6,252c1.9-1.4,3.3-2.2,4.6-3.3,5.7-4.4,7.8-10,5.4-15.7-1.6-3.8-4.8-6.4-9.8-5s-6.4,4.5-5.2,8.8S96.8,246.6,98.6,252Z"/><path d="M144.2,238.7c-.5,2-1.4,3.9-1.8,5.8a8.5,8.5,0,0,0,5.4,9.8c3.4,1.3,6.8-.7,6.5-4.3a27.7,27.7,0,0,0-1.6-8c-1.9-5.3-2.7-10.5-.3-15.9s5.3-6,12.2-5.4c3.6.3,6.7,3.9,6.8,8.2a21.2,21.2,0,0,1-1.3,9.1c-4.6,8.8-3,16.9,1.1,25.2s3.7,16.3-.8,24.1a10.5,10.5,0,0,1-18.9-.7c-1.8-3.5-1.1-7.1.3-10.7s2.7-5.6,2.2-8.9-1.7-4-4.4-4.3-3.6.6-4.2,3.4a43.6,43.6,0,0,0-.3,5.1c-.1,2.5-.2,5-.5,7.4-.7,4.1-3.7,7.3-7.1,7.9a10.2,10.2,0,0,1-10.2-4.9c-2.9-5.1-2.3-10.5-.8-15.8a82,82,0,0,1,3.2-7.6c2.8-6.2,2-12.5.2-18.8a25.2,25.2,0,0,1-1.2-10.9,8.4,8.4,0,0,1,9-7.1c5.6.4,8.1,2.9,8.3,8.2A69.7,69.7,0,0,1,144.2,238.7Z"/><path d="M417.9,249c.5,5-1.8,9.2-3.6,13.5a5.8,5.8,0,0,0-.1,3.9c2.1,4.4,4.6,8.6,6.4,13.1s2,7.3-.9,10.6c-1.2,1.3-7.3,5.4-13.7,2.2-3.3-1.5-3.9-4.8-4.3-7.9-.8-5.6.6-10.7,1.7-16a6.1,6.1,0,0,0-2.3-6.6c-1.2-.9-4-.5-5.2.5s-1.6,3.6-1.3,5.3a69.1,69.1,0,0,0,2.7,9.9c1,3.3.5,7.5-.5,11.2s-7.4,6.4-11.7,5.1a9.7,9.7,0,0,1-6-12.1c1.8-5.4,2.9-9,4.6-13.5s1.3-7.5-.6-10.9c-5.1-9.4-2.6-18.3,1.4-27a42.9,42.9,0,0,1,4.2-6.8c4.3-5.8,15.3-7.1,20.1.8,3.8,6.4,7.1,12.8,8.6,20.1A24,24,0,0,1,417.9,249Zm-28.7-5.8c6.1.7,9,4.2,9.5,10.4.8-6.3,3.8-9.9,10.4-10.4-8.3,0-9.1-6.1-10.6-11.9-.4,6.3-3.5,10.1-9.3,11.9Z"/><path d="M445.4,299.6c-4.1.4-8-.5-11.1-3.6s-4.9-7.3-3.5-11.7c3.5-10.5,1.4-20.3-2-30.3a43,43,0,0,1-2-22.2c1.3-7.5,6.9-12.2,13.7-11.9,3.9.2,9.4,4.9,10.7,9.6,2.4,8.1-.4,15.2-3.5,22.4-2.4,5.6-3.3,9.9-5.1,15.7-1,3-1.3,8.3.9,10.1a5.6,5.6,0,0,0,6.7.6c2.2-1.1,5-4,7.4-6,4.2-3.5,8.9-5,14-2.9s7.7,6.2,8.3,11.3-1.7,8.5-5.9,10.7a59.8,59.8,0,0,1-8.6,3.6C460.3,296.6,446.9,299.6,445.4,299.6Z"/><path d="M341.6,260.9c1.9,5.3,4.1,10.3,5.6,15.6a18.4,18.4,0,0,1,0,8.1c-1.5,6.5-9.2,8.3-13.9,3.6s-4.1-8.1-3.2-12.7,1.9-12.3.8-18.5a129.2,129.2,0,0,0-3.5-13.6c-1.2-4.5-1.6-9,.2-13.6a10.9,10.9,0,0,1,8.4-7.1c7.6-1.4,15.1-1.2,22.3,2.3s12.7,12.9,11,20.7a11.8,11.8,0,0,1-9.3,9.5,56.9,56.9,0,0,1-10.2,1.2c-2,.2-7.5-.1-9.4-.1-.1.4,4.8,1.3,5.6,1.6,7.6,2,14.9,4.5,20.8,10,3.9,3.7,6.5,8.3,5.7,13.8s-1.9,7.7-6.5,8.8a8.5,8.5,0,0,1-10.5-5.9.9.9,0,0,0-.1-.5c-1.7-7.2-3.2-14.6-8.2-20.4A6.9,6.9,0,0,0,341.6,260.9Zm-2.8-11.4a44.1,44.1,0,0,0,5.4-.7c3.8-.7,7.9-1.2,10-4.7s.5-8.4-3-9.3a13.2,13.2,0,0,0-7.1.4C338.6,237.4,336.9,242.9,338.8,249.5Z"/><path d="M207.4,216.4c5.5-.6,11.8,4,10.9,10.4a11.5,11.5,0,0,1-7,9.1c-4.3,2-8.9,3.5-13.5,5.2s-5.7,2.9-7,6.1a3.1,3.1,0,0,0,.9,4,5.9,5.9,0,0,0,3.7.3c3.3-.9,6.5-2.2,9.8-2.8a6.2,6.2,0,0,1,6.4,3.6c1.1,2.8.5,5.2-1.9,7.4s-7.8,3-12.1,2.1-5.6.1-6.4,3.7a2.8,2.8,0,0,0,2,3.6h.1a25.3,25.3,0,0,0,7.3,1.1c2.8.2,5.8-.2,8.6,0a7.6,7.6,0,0,1,6.2,4.1c2.6,4.9,1.6,12.1-2.6,15.8-2.6,2.4-6,2.4-9.1,2.4-11,0-21.1-8.4-22.8-18.7a49.4,49.4,0,0,1,0-8.6c.6-9.2,1-18.5,2-27.7a22.9,22.9,0,0,1,20.6-20.8Z"/><path d="M284.1,259.7c.2-5.8-.4-11.3.3-17.8a18.1,18.1,0,0,1,7.5-13.1c3.3-2.4,6.5-5,10.1-7.2a22.6,22.6,0,0,1,14.1-3.8c5.1.4,7.9,7,5.1,11.7a15.2,15.2,0,0,1-10.3,7.5c-6.1,1.3-11.7,3.1-16.4,7.3-1.9,1.7-3.3,3.6-3.2,6.3s2,4.5,4.8,3.2a70.5,70.5,0,0,1,8.5-3.7c2.7-.9,4.2-1.5,6.9-1.4a6.1,6.1,0,0,1,6,4,8.1,8.1,0,0,1-2.5,8.4c-2.3,2-6.6,2-10.1,1.6s-5-.7-7.4-.5a4.5,4.5,0,0,0-4.1,2.5c-.6,1.2-.1,3.8,1.5,5.4,3.2,2.9,6.9,3.6,11.1,3.1a84.4,84.4,0,0,1,8.7-.4c3.2,0,6.5.6,7.5,4.1s1.1,7.6-2,10.5c-5.6,5.3-19.8,8.6-27.6-.3a34.3,34.3,0,0,1-8.3-19.5A69.5,69.5,0,0,1,284.1,259.7Z"/><path d="M267.2,171.8a51.3,51.3,0,0,0,2.4-29c-.7-3.6-2.1-6.9-3.1-10.4s-1.5-6.7.3-10a7.7,7.7,0,0,1,10.1-3.2c5.2,2.3,8.1,6.7,10.7,11.5a70.6,70.6,0,0,0,5.7,7.8,1.7,1.7,0,0,0,2.4.3,1.8,1.8,0,0,0,.7-1.7c-.3-2.1-.7-4.2-1-5.4-1.1-4.8-1-8.7,1.6-13s7.3-5.2,11.3-4.9a8.6,8.6,0,0,1,7.3,7.5,85.6,85.6,0,0,1-.2,12.4c-.4,5-1.3,9.9-1.6,14.9-.3,7.9,2.1,15.2,5.1,22.5a40.5,40.5,0,0,1,3.2,11.8c.6,6.5-4.7,10.4-11.1,8.7a11.4,11.4,0,0,1-7.3-6.3c-2.2-5.5-4-11.1-5.8-16.8-.8-2.6-1.4-5.3-2.1-8-1.7-7.3-6.4-12.2-11.4-17.1a2.1,2.1,0,0,0-2.6-.8c-1,.6-1.1,1.7-.6,3.6a54.5,54.5,0,0,0,5.4,13.5,71.2,71.2,0,0,1,8.6,23c1.2,7.1-1.4,14.2-6.7,16.9-8.3,4.4-22.2,1.5-23.5-12-.2-1.3-.2-2.5-.3-3.8A69.1,69.1,0,0,1,267.2,171.8Z"/><path d="M192,160.5a14,14,0,0,0-.6,2.8,48.6,48.6,0,0,0,2.4,19.7c2,6.4-1.7,11.4-9,10.4s-11.2-4.9-11-13c.2-6.2.6-9.2,2.7-15,.4-1,1.6-4,2.5-5.9,2.2-4.5,2.1-8.2-.8-11.9a28.4,28.4,0,0,1-5-14.7c-.5-8.7,5.3-14.8,11.6-17.6,8.1-3.6,21.5-.5,26.4,8.4,3.7,6.7,4.5,13.6,2,20.5-2.2,4.3-3.8,5-5.8,7.6s-2.7,3-3.6,4.8a5.2,5.2,0,0,0,1.7,6.2c2,1.6,4,3.4,5.7,5s5.6,4.3,7.7,7.3a9.7,9.7,0,0,1,.9,6.5c-1.3,6-8.7,10.1-14.2,7.8a9.6,9.6,0,0,1-5.3-5c-2.7-6.2-4.8-12.6-6.9-18.9C192.9,163.9,192.2,160.5,192,160.5Zm2.6-13.1c.6-2.2,1.2-4.9,2.1-7.6s4.2-3.6,7.4-4.5c-6.7-1.6-8.8-6.1-9.2-12-.7,6.3-3.5,10.5-10.4,11.5C192.5,138,192.8,138.5,194.6,147.4Z"/><path d="M334.2,141.5a12.1,12.1,0,0,0,10.8-.3c3.2-1.6,6.6-3,10.4-2s4.7,1.8,5.3,4.5a7.2,7.2,0,0,1-2.2,7.7c-3,2.7-6.3,4.1-10.3,3-2.5-.6-4.8-1.7-7.3-2.2s-4.6-.6-7.1-1c1.2,8.2,7.7,16,14.2,16,2.9,0,5.9-.9,8.8-1.1a37.5,37.5,0,0,1,8.2-.2c3.8.4,6.1,2.8,7,6.4a10.1,10.1,0,0,1-2,9.7c-2.9,3.5-6.9,4.8-11.1,5a68.2,68.2,0,0,1-13.5-.6c-14.3-2.8-18.3-8-21.1-20.3-2-9.2-1.1-18.5-.7-27.9a26.3,26.3,0,0,1,8.2-18c7.5-7.1,16.4-10.6,26.8-9.6a11.6,11.6,0,0,1,8.9,5.1c4.2,6.8.9,13.4-7.1,13.5-4.6.2-9.4-.3-14-.4s-11.3,5.4-12.2,10.6Z"/><path d="M236.7,160.1c-2.1.4-2.8,2-2.5,4s.4,4.3,3.3,4.8,7.3-.2,10.8-1.1,5.7-1.2,8.1,1.4,2.5,8.7-1.5,12.1c-6.1,5.2-13.1,6-20.6,4.5s-12.1-7.7-10.7-15.7,3-13.6,1.6-20.5a61.8,61.8,0,0,0-2.9-9.8c-1.8-4.8-2.9-9.5-1.9-14.7A14.8,14.8,0,0,1,230.7,114a27.7,27.7,0,0,1,20.6,1.3c6.6,3.1,9,9.6,7.3,16.2s-7.9,8.5-14,7.1c-2.9-.7-5.8-1.5-8.8-.4s-4.1,3-3.5,6,2.5,3.8,5.6,3.3,5.3-1.4,8-1.8,6-.4,8.6,1.5,3.7,7.2,0,10.1-5.5,2.1-8.4,2.1A76.7,76.7,0,0,0,236.7,160.1Z"/><path d="M165,156.8c-1.5,4.2-1.5,7.9,1,11.8s3.4,9,3,14-5.8,10.2-11.4,10.4a36.8,36.8,0,0,1-6.6-.6c-7.9-1.8-12.1-9.4-10-18.2.6-2.4,2-4.7,3-7.1,2.1-4.9,1.2-9.7-.9-14.2s-2.1-7.7-1.4-11.8,6-8.7,10.3-9a24.8,24.8,0,0,1,9,1.2c5.4,1.7,6.6,6.2,6.5,11.3C167.8,144.6,166.5,152.9,165,156.8Z"/><path d="M155.1,126.6c-4.7,0-8.5-.5-11.7-3.1s-4.3-5.4-3.7-9.3,2.9-6,6.3-7.1a25.8,25.8,0,0,1,14.8-.8c4.8,1.2,7.8,5.9,7.4,11.4s-3.6,7.8-8.6,8.4Z"/><path d="M192.7,343.4l4.2-7.3a8,8,0,0,1,1.8-2.3,1.8,1.8,0,0,1,1.9-.2c.5,0,1.2,1.1,1.2,1.8.9,6,1.8,11.9,2.6,17.9.2,1.7.3,3.3-2,3.7s-2.8-1.1-3.1-2.7c-.6-3.3-1.1-6.5-1.6-9.7-1.6,1.3-3,3.4-4.7,3.6s-3.4-1.6-5.2-2.5v7.4c0,1.6-.1,3.3-2,3.7s-3.1-.2-3.1-2.2c0-6.7.2-13.3.3-20,.1-.7,1.1-1.9,1.7-1.9a3.8,3.8,0,0,1,2.6,1.4,49.7,49.7,0,0,1,3,5.6Z"/><path d="M48.8,350.5a26.4,26.4,0,0,1-4,.1,44,44,0,0,1-4.8.1s-.9,2.6-1.7,4.7-1.1,2.3-2.7,2-1.9-1.5-1.7-2.8A25.6,25.6,0,0,1,35,350c1.8-5.2,3.6-10.6,5.6-15.8a5.1,5.1,0,0,1,2.3-2.8,4,4,0,0,1,4.5,2c2,3.5,3.3,7.4,4.8,11.1a67.8,67.8,0,0,1,2.2,8.6c.2.8.7,2.4.5,3a3,3,0,0,1-1.9,1.6,1.8,1.8,0,0,1-2-.9,16.8,16.8,0,0,1-1.6-3.9C49.2,352.2,49.4,352.7,48.8,350.5Zm-7.4-3.8,2.9-.2h3.9c-1.5-3.4-3.4-12.1-4.1-9.3"/><path d="M428.9,348.5c.2-2.5,1-6.6,1.1-9.1s1.1-2.8,2.8-2.8,2.1,1.4,1.9,2.6c-.4,4.5-1.6,11.1-2.4,15.6a3.1,3.1,0,0,1-2.3,2.5c-1.4.6-3.3-.6-4.1-2.1-1.9-3.6-3.4-6.1-5.2-9.7-.3-.6-1.5-3.7-2.3-4.6,0,2.6.3,7.3.3,10s-.1,3-.2,4.5-1.2,2.7-2.7,2.3-1.9-.4-2.2-2.4a91.4,91.4,0,0,1,.2-11.7c0-1.2,0-2.3.1-3.3a9.9,9.9,0,0,1,.6-3.7,2.1,2.1,0,0,1,1.9-1.1c1.7,0,2.8.1,3.9,1s4.3,6.4,6.1,8.9,1.6,3.1,2.2,4.2S428.8,349.2,428.9,348.5Z"/><path d="M280.6,344.5c.3-2.5.1-5.5.5-8.8.3-1.8,1.6-1.5,3.2-1.5s3.2.7,4.3.8c3.1,1.3,4.3,2.1,5.5,4.6a21.4,21.4,0,0,1,2.5,9.6c0,4-1.5,5.2-4.3,6.6s-7.3,1.9-10.9,1.2c-.9-.3-.6-3-.8-4.1S280.8,347.8,280.6,344.5Zm4.4-5.3.6,13.3a23.2,23.2,0,0,0,4.9-1.7c1.3-.8,1.8-1.6,1.8-2.5C292.9,344.3,289.6,340.1,285,339.2Z"/><path d="M71.7,337.6a8.4,8.4,0,0,1,.6,5.4,10.3,10.3,0,0,1-2.5,5l4.3,3.5c1.5,1.1,2,2.5.9,3.8s-2.7.9-4.1-.1l-6.2-4.6-.9-.4c-.1,1.7.1,4.1-.4,5.5s-1.3,1.1-2,1.1-1.9-.3-2.2-1.1-.1-3.4,0-4.7l.6-13.6a4.2,4.2,0,0,1,.7-2.9,3.7,3.7,0,0,1,2.9-.6C65.8,334.1,69.8,334.4,71.7,337.6Zm-7.6,0v6.8c2.7,0,4-.9,4-2.6C68,338.3,67.2,337.5,64.1,337.6Z"/><path d="M360.5,344.3a78.5,78.5,0,0,1,.5-9,3.8,3.8,0,0,1,2.1-2.2,74.8,74.8,0,0,1,8.2.2,7.2,7.2,0,0,1,6.6,7.2c.1,3.7-.7,5-4.2,6.4a46.4,46.4,0,0,1-8.2,1.2s0,2.9-.1,5.6a7.8,7.8,0,0,1-.2,2.6,2.6,2.6,0,0,1-1.8,1.4,3.2,3.2,0,0,1-2.6-.9c-.7-1-.4-4.1-.3-6.3a1.1,1.1,0,0,0,0-.8A48,48,0,0,1,360.5,344.3Zm5-.4a20,20,0,0,0,5.9-1.2,2.7,2.7,0,0,0,1.7-2.5,3.2,3.2,0,0,0-2.1-2.4c-1.6-.6-3.4-.5-5.5-.7v6.8Z"/><path d="M137.4,353.7c1.2-5.5,2.3-10.8,3.6-16.2.5-2.3,1.1-3.9,3.8-4.3s2.8.4,3.5,1a5.5,5.5,0,0,1,1.4,2.6c1.8,5.1,3.6,10.2,5.2,15.4.3,1.3.1,3-1.7,3.3s-2.5-.8-3-2.2-.8-2.4-1.4-2.4a12.8,12.8,0,0,0-5.5.3c-.5.1-.7,1.9-.8,2.9s-.7,2.9-2.6,2.7A2.5,2.5,0,0,1,137.4,353.7Zm8-16.7c-.3,0-.3,1.2-.6,2.4-.6,2.7-.9,4.2-1.5,7h5c-.8-2.9-2.1-6.7-2.9-9.4Z"/><path d="M216.1,350.6a1.4,1.4,0,0,0,2,.1l.3-.5c1.1-3.5.5-6.8.1-9.9a13.5,13.5,0,0,1-.1-4,2.5,2.5,0,0,1,2-1.4c.6-.1,2,.5,2.1,1.1,1.1,5.2,2.2,10.4.8,15.8-.6,2.4-1.8,4.3-4.4,4.9a6.5,6.5,0,0,1-6.7-2.3c-4.1-4.6-5.3-10-4.6-16,.2-1.5-.5-4.4,2.4-4.1s1.8,2.9,1.8,4.4a17.1,17.1,0,0,0,2.7,10.1A9.3,9.3,0,0,0,216.1,350.6Z"/><path d="M316.3,360.1a8.4,8.4,0,0,1-3-.3,4.5,4.5,0,0,1-1.4-2.6c-.4-1.2.5-2.2,2-2.3a42.2,42.2,0,0,0,4.9-.4,1.8,1.8,0,0,0,.9-3.2,13.9,13.9,0,0,0-3.6-2.9c-3.8-2.1-4.6-4.2-3.5-8.6s4.6-5.6,7.6-5.3h.1A2.2,2.2,0,0,1,322,337a2.2,2.2,0,0,1-.8,1.3l-.2.2c-.9.7-2.1,1.1-3,1.8a2.2,2.2,0,0,0-.2,3.1,1.8,1.8,0,0,0,.7.5c1.3.9,2.7,1.8,3.9,2.8,2.9,2.1,3.3,5.2,2.4,8.4s-3.9,4.4-7,4.9A3.8,3.8,0,0,1,316.3,360.1Z"/><path d="M236.3,352.2l6.7-.9c1.5-.1,3.1-.3,3.6,1.5s-.2,3.6-2.1,3.9a61.4,61.4,0,0,1-10.4,1.2c-.9,0-2.5-1.7-2.7-2.7-.5-3.6-.9-7.1-1.1-10.7s-.4-6.1-.5-9.1c-.1-1.4.4-2.6,1.9-2.4a2.4,2.4,0,0,1,2.3,1.9c.8,4.7,1.3,9.4,2,14.1C236,350,236.2,351.1,236.3,352.2Z"/><path d="M246.3,335.8l.3-1.9a1.2,1.2,0,0,1,1.3-1.2h9.9a32,32,0,0,1,4.4.1c.7.2,1.8,1.1,1.7,1.7a9.3,9.3,0,0,1-1.4,2.5,1.7,1.7,0,0,1-1.4.3c-3.2-.6-3.1,1.3-3,3.6.1,4,0,7.9,0,11.9,0,2-.5,3.6-2.8,3.6s-2.7-1.5-2.6-3.7c.1-4.1.3-8.2.6-12.2.2-1.9.1-3.8-2.6-3.6a9.8,9.8,0,0,1-3.8-.2.8.8,0,0,1-.6-.9Z"/><path d="M388.2,336.9c.4,1.3-.2,3.8-.2,5.5s-.3,3.4-.3,5.7.9,3.3,3,3.1l4-.3a2.2,2.2,0,0,1,2.5,2.5c.1,1.7-.5,2.7-2.1,2.8a75.3,75.3,0,0,1-9.5.2c-2.4-.2-2.7-2.4-2.7-4.2.2-4.7.5-9.4.7-14,.1-1.9.2-2.5,1.1-2.9A2.7,2.7,0,0,1,388.2,336.9Z"/><path d="M340.4,357.4c-4.2-.3-7-3.1-8.9-6.8a11.5,11.5,0,0,1,.8-11.7c2.2-3.2,5.5-4,9.1-3.3a2.4,2.4,0,0,1,2.1,2.2,2.7,2.7,0,0,1-2.2,2.2c-3.7.6-5.6,2.1-5.9,4.9s1.9,5.1,4.7,6.3l2.4.6c1.2.3,2.6.6,2.8,2.2a3.3,3.3,0,0,1-2.7,3.4C341.1,357.8,341.1,357.3,340.4,357.4Z"/><path d="M84.8,338.1c.2,5,.3,9.8.5,14.5a4.2,4.2,0,0,1-.1,1.6c-.2.4-1.2,1.8-1.9,1.9a2.9,2.9,0,0,1-2.2-1.5,8,8,0,0,1-.5-3.4c-.1-4.3,0-8.6,0-13.2-1.6-.1-2.8.1-3.8-.3s-2.2-1.2-2.4-2.1.8-2,2.1-2c3.1-.1,6.1-.3,9.2-.2,1.3,0,2.8-.1,3,2s-1.3,2.2-2.7,2.6Z"/><path d="M113,342.7l-1.9-1.5a1.7,1.7,0,0,1-.4-1.2,1.3,1.3,0,0,1,.7-.9l1.7-1,.3-.2a2,2,0,0,0,1.3-2.1,1.9,1.9,0,0,0-1.6-1.7,5.9,5.9,0,0,0-7.1,3.4c-1.4,3.2-.5,5.9,2.6,8.5l2.6,2.2.3.4a.8.8,0,0,1,.2.8.9.9,0,0,1-.6.6,5.9,5.9,0,0,0-2.2.5c-.3.1-1.9.8-2.1,1.7a4.1,4.1,0,0,0,1.1,3,4,4,0,0,0,2.2.6l2.1-.3c1.8-.5,4-1.7,4.6-3.1C117.9,349.1,116.4,345.2,113,342.7Z"/><path d="M129.7,338.2v12.4c0,.7-.1,1.3-.1,1.9s-.9,2.4-2.3,2a3.4,3.4,0,0,1-2-2.2c-.1-4.4,0-8.7.2-13.1v-1.1l-2.8-.6a1.7,1.7,0,0,1-1.7-1.8v-.5a2.6,2.6,0,0,1,1.9-1.6,67.5,67.5,0,0,1,10-.4,2.4,2.4,0,0,1,1.9,1.7c.2.7-.6,1.9-1.3,2.3S131.1,337.8,129.7,338.2Z"/><path d="M100.2,335.5a2.5,2.5,0,0,0-2.6-2.3h-.3a2.8,2.8,0,0,0-2.9,2.1,30.8,30.8,0,0,0-.8,5.3v2c-.3,3.5-.6,7.2-.7,10.8a4,4,0,0,0,1,2.9,3,3,0,0,0,2,.8h.3c2-.1,3.2-1.4,3.3-3.6s.3-6.5.6-10l.2-4.4h0c0-.2.1-.5.1-.8A8.8,8.8,0,0,0,100.2,335.5Z"/><path d="M406.6,337.7c-.3-1.9-1-2.1-1.8-2.2h-.3a2.2,2.2,0,0,0-1.9,2.1,30.2,30.2,0,0,0-.2,5.2v1.8c-.1,3.4-.1,6.9,0,10.3a4,4,0,0,0,.8,2.8,1.4,1.4,0,0,0,1.4.6h.2c1.4-.1,2.1-1.4,2.1-3.5V341.1h0v-.8A11.5,11.5,0,0,0,406.6,337.7Z"/><path d="M305.7,337.7c-.4-1.9-1.1-2.1-1.9-2.2h-.2a2.3,2.3,0,0,0-2,2.1c-.1,1.7-.2,3.5-.2,5.2v1.8c-.1,3.4-.1,6.9,0,10.3a4,4,0,0,0,.8,2.8,1.7,1.7,0,0,0,1.5.6h.2c1.3-.1,2.1-1.4,2.1-3.5s-.1-6.2-.1-9.5v-4.2h0a2.2,2.2,0,0,1-.1-.8A7.7,7.7,0,0,0,305.7,337.7Z"/><path d="M274.3,335.1c-.5-1.9-1.1-2.1-1.9-2.1h-.2c-1.1,0-1.8.9-2,2.1a29,29,0,0,0-.2,5.1v1.9c0,3.4-.1,6.8,0,10.3a5.3,5.3,0,0,0,.8,2.7,2.1,2.1,0,0,0,1.5.7h.2c1.3-.3,2.1-1.5,2.1-3.6s-.1-6.2-.1-9.5v-4.2h0v-.8A22.8,22.8,0,0,0,274.3,335.1Z"/><path d="M354.8,336.2c-.4-2-1.1-2.1-1.9-2.2h-.2a2.2,2.2,0,0,0-2,2.1,29,29,0,0,0-.2,5.1v1.9c-.1,3.4-.1,6.9,0,10.3a3.6,3.6,0,0,0,.8,2.7,1.4,1.4,0,0,0,1.4.7h.3c1.3-.2,2.1-1.5,2.1-3.5s-.1-6.3-.1-9.6v-4.1h0v-.8A11,11,0,0,0,354.8,336.2Z"/><path d="M439.4,355.3l3.6-16.2c.5-2.2,1.1-3.9,3.8-4.3s2.8.5,3.6,1a5.5,5.5,0,0,1,1.4,2.6c1.8,5.2,3.6,10.2,5.1,15.4.4,1.4.1,3-1.6,3.4s-2.6-.8-3.1-2.3-.8-2.3-1.4-2.4a17,17,0,0,0-5.5.3c-.5.2-.6,1.9-.8,3s-.6,2.8-2.5,2.7A2.7,2.7,0,0,1,439.4,355.3Zm8.1-16.6c-.3,0-.3,1.2-.7,2.3-.5,2.7-.8,4.2-1.4,7.1h5Z"/><path d="M474.3,338.9a7.8,7.8,0,0,1,.5,5.4,10.2,10.2,0,0,1-2.4,5l4.3,3.5c1.5,1.1,1.9,2.4.8,3.8s-2.7.9-4-.1l-6.2-4.6-.9-.4a49.3,49.3,0,0,1-.3,5.5c-.4,1.4-1.5,1.1-2.2,1.1s-1.8-.3-2.1-1.1a34.8,34.8,0,0,1-.1-4.7l.7-13.6c0-.7-.1-2.1.7-2.9s1.4-.7,2.8-.6S472.5,335.7,474.3,338.9Zm-7.6,0v6.8c2.7,0,4-.9,3.9-2.6-.1-3.5-.9-4.3-3.9-4.2Z"/><path d="M274.7,393.5c-.6-4.4.8-6.8,3.6-9.6s8.6-2.9,12.1-.1a8.6,8.6,0,0,1,3.2,8.7,14.6,14.6,0,0,1-6.1,9.5,8.1,8.1,0,0,1-8.2.6c-2.9-1.4-4.2-4-4.5-7A15.5,15.5,0,0,1,274.7,393.5Zm5.1-.3a15.5,15.5,0,0,0,.5,2.3c.7,1.1.8,1.5,1.8,2.1s3.3-.2,4-.9a6.9,6.9,0,0,0,1.7-3,3.2,3.2,0,0,0,.3-1.9c0-1.5-.3-2.4-.8-2.8s-2.8-1.7-3.9-1.4C280.5,388.4,279.6,390.2,279.8,393.2Z"/><path d="M315.5,394.8c.3-2.5,1.1-6.6,1.2-9.1s1.1-2.8,2.7-2.8,2.1,1.4,2,2.5c-.4,4.6-1.6,11.3-2.4,15.7a3,3,0,0,1-2.3,2.4c-1.5.6-3.3-.5-4.1-2-1.9-3.6-3.4-6.1-5.3-9.8-.3-.5-1.4-3.6-2.2-4.5,0,2.6.3,7.3.3,10-.1,1-.1,3.4-.2,4.5s-1.2,2.6-2.8,2.3-1.8-.5-2.2-2.4a116.2,116.2,0,0,1,.3-11.8c0-1.1,0-2.3.1-3.3a9.3,9.3,0,0,1,.6-3.6,1.9,1.9,0,0,1,1.8-1.1c1.8-.1,2.9,0,4,1s4.3,6.3,6.1,8.9c.6,1,1.6,3.1,2.2,4.2S315.5,395.4,315.5,394.8Z"/><path d="M351.3,396.8v3.4c0,1.6.5,3.5-1.9,3.8s-2.8-.7-2.9-3.4c0-4.2,0-8.5.1-12.8s1.3-4.2,4.8-4.5a12.7,12.7,0,0,1,2.8-.3c2.7,0,5.4.1,6.8,3.1s.5,6-2.2,8.5l2.9,1c2.1.5,2.5,2,2,3.8s-2,1.6-3.4,1.2l-4.5-1.5C354.4,398.5,353,397.7,351.3,396.8Zm.2-4.8a35.4,35.4,0,0,0,4.3-1.6c1.3-.7,1.8-1.9.4-2.5a6.6,6.6,0,0,0-4.4-.1c-.3,0-.3,2-.5,3.1S351.4,391.4,351.5,392Z"/><path d="M178.2,386v2.4a43.6,43.6,0,0,1,5.1-.3c2.7.2,3.6,1.5,2.5,3.7s-1.6,1.1-2.5,1.5l-2.5.2-2.3.2-.3.8c-.3,4.3-.3,4.3,3.8,3.9s4.5.4,4,3a2.9,2.9,0,0,1-1.5,1.9,67.6,67.6,0,0,1-9,.1c-1.6-.2-2.1-1.7-2.1-3.3.1-3.7.1-7.5,0-11.3a21,21,0,0,0-.5-4.3c-.5-1.9.2-2.9,1.9-3.3s4.5-1.1,6.7-1.4a3.8,3.8,0,0,1,3,1.1,2.2,2.2,0,0,1-.6,3.1l-.7.3Z"/><path d="M213.5,395.4l3.1-7.4c.4-.9,1.3-2.8,2-3.2a3.2,3.2,0,0,1,2.8-.3c1,.3,1.4,2.2,1.1,3-2.1,5.2-4.2,10.3-6.7,15.3-1.3,2.6-4.5,2.3-5.7-.5s-2.1-6.7-3.1-10-1.1-3.8-1.6-5.7-.9-3.3,1-4,2.9.5,3.5,2.3C211,388.2,212.2,391.5,213.5,395.4Z"/><path d="M246.1,406.3c-1.1,0-2.8-.1-3.1-.4a4.8,4.8,0,0,1-1.4-2.5c-.3-1.2.5-2.2,2-2.4a27,27,0,0,0,4.9-.4,1.8,1.8,0,0,0,.9-3.2,14.8,14.8,0,0,0-3.6-2.9c-3.7-2.1-4.6-4.1-3.4-8.5.6-2.9,4.5-5.7,7.6-5.3h0a2.1,2.1,0,0,1,.9,3.7l-.2.3a14.9,14.9,0,0,0-3,1.8,2.1,2.1,0,0,0-.2,3,1.9,1.9,0,0,0,.7.6,27,27,0,0,1,3.9,2.7c2.9,2.2,3.3,5.2,2.5,8.4s-4,4.4-7,4.9Z"/><path d="M164.1,387.6c.2,3.6,0,9.7.3,13.2.2,1.6.3,3.1-1.7,3.5s-2.8-1.2-2.9-2.8-.2-8.4-.3-11.2l-.3-2.4-3.3-.2c-1.6.1-2.1-1.1-2.1-2.3a3,3,0,0,1,1.7-2.1,32.4,32.4,0,0,1,12.8-1,2.8,2.8,0,0,1,2,1.8c.4,1.2.2,2.6-1.4,2.9S165.8,387.4,164.1,387.6Z"/><path d="M262.1,394.1c.1-2.3-.1-5.1.1-7.7a1.9,1.9,0,0,1,2.1-2.1,2.3,2.3,0,0,1,2.5,2.3c.1,1.3.3,4.9.3,7.3s0,4.9-.1,7.2-.5,2.8-2.4,2.9-2.5-1-2.7-2.7S262.2,396.8,262.1,394.1Z"/><path d="M324.1,401.3l3.6-16.2c.5-2.2,1.1-3.9,3.8-4.3s2.8.5,3.5,1a6.1,6.1,0,0,1,1.5,2.7q2.7,7.5,5.1,15.3c.4,1.3.1,3-1.7,3.4s-2.5-.8-3-2.3-.8-2.4-1.4-2.4a17,17,0,0,0-5.5.3c-.5.2-.7,1.9-.8,3s-.6,2.8-2.5,2.7S323.8,403.2,324.1,401.3Zm8-16.6c-.3,0-.3,1.2-.7,2.3l-1.3,7H335Z"/><path d="M380.2,394.8c-.5-4.2.9-6.7,3.6-9.6s8.6-2.8,12.1,0,3.8,5.2,3.2,8.7a13.7,13.7,0,0,1-6.1,9.5,7.8,7.8,0,0,1-8.3.6c-2.7-1.3-4-4-4.4-7A15.5,15.5,0,0,1,380.2,394.8Zm5.1-.2a10.5,10.5,0,0,0,.6,2.4c.7,1,.7,1.5,1.8,2s3.2-.2,3.9-.8a7.3,7.3,0,0,0,1.7-3.1,3.4,3.4,0,0,0,.3-2c0-1.3-.2-2.2-.8-2.7s-2.7-1.7-3.9-1.4c-2.8.8-3.7,2.6-3.6,5.6Z"/><path d="M368,392.9c.1-2.3-.1-5.1,0-7.7a2,2,0,0,1,2.2-2.1,2.2,2.2,0,0,1,2.4,2.3c.2,1.3.4,4.9.5,7.3s-.2,4.9-.3,7.3-.4,2.7-2.4,2.8-2.4-1-2.5-2.6S368.1,395.6,368,392.9Z"/><path d="M147.7,385.9a7.8,7.8,0,0,1,.5,5.4,9.4,9.4,0,0,1-2.4,5l4.4,3.4c1.4,1.2,1.9,2.5.8,3.9s-2.8.9-4-.1l-6.2-4.7-1-.3c-.1,1.6.1,4-.3,5.5s-1.3,1.1-2.1,1.1-1.9-.3-2.1-1.1a33.9,33.9,0,0,1-.2-4.7l.7-13.6c.1-.7-.1-2.1.8-2.9s1.4-.8,2.8-.6S145.9,382.6,147.7,385.9Zm-7.6,0v6.8c2.7,0,4.1-.9,4-2.6-.1-3.5-.9-4.4-4-4.2Z"/><path d="M112.7,402.6l3.6-16.2c.5-2.2,1.1-3.9,3.8-4.4s2.8.6,3.6,1.1,1,1.7,1.4,2.6c1.8,5.1,3.6,10.2,5.1,15.3.4,1.4.1,3-1.7,3.5s-2.5-.8-3-2.3-.8-2.4-1.4-2.5a17.1,17.1,0,0,0-5.5.4c-.5.2-.6,1.9-.8,3s-.6,2.7-2.5,2.7A2.6,2.6,0,0,1,112.7,402.6Zm8.1-16.6c-.3,0-.4,1.2-.7,2.3-.5,2.7-.8,4.2-1.5,7h5.1C122.8,392.4,121.5,388.5,120.8,386Z"/><path d="M228.4,394.1c.2-2.3,0-5.1.1-7.7s.6-2.1,2.2-2.1,2.2.9,2.4,2.3a67.8,67.8,0,0,1,.4,7.3c0,2.5-.1,4.9-.2,7.2s-.4,2.8-2.4,2.9-2.5-1-2.6-2.7S228.5,396.8,228.4,394.1Z"/><circle cx="81.6" cy="460.1" r="3"/><circle cx="48.2" cy="75.2" r="3"/><circle cx="112.7" cy="116.1" r="3"/><circle cx="370" cy="74.2" r="3"/><circle cx="441.1" cy="142.6" r="3"/><circle cx="447.5" cy="70.2" r="3"/><circle cx="429" cy="472.4" r="3"/><circle cx="224" cy="440.5" r="3"/><circle cx="41.4" cy="176.4" r="3"/><circle cx="274.6" cy="86" r="3"/></g></svg>